<?xml version="1.0" encoding="utf-8"?>
<!-- Generator: Adobe Illustrator 16.0.0, SVG Export Plug-In . SVG Version: 6.00 Build 0)  -->
<!DOCTYPE svg PUBLIC "-//W3C//DTD SVG 1.1//EN" "http://www.w3.org/Graphics/SVG/1.1/DTD/svg11.dtd">
<svg version="1.1" id="Layer_1" xmlns="http://www.w3.org/2000/svg" xmlns:xlink="http://www.w3.org/1999/xlink" x="0px" y="0px"
	 width="40px" height="40px" viewBox="0 0 40 40" enable-background="new 0 0 40 40" xml:space="preserve">
<g>
	<path fill="none" stroke="#231F20" stroke-linecap="round" stroke-linejoin="round" stroke-miterlimit="10" d="M8.969,20.211
		c2.175,0,3.939,1.764,3.939,3.939c0,2.175-1.764,3.938-3.939,3.938c-2.176,0-3.939-1.764-3.939-3.938
		C5.03,21.975,6.793,20.211,8.969,20.211"/>
	<path fill="none" stroke="#231F20" stroke-linecap="round" stroke-linejoin="round" stroke-miterlimit="10" d="M11.456,34.395
		h-8.79c0-3.481,2.821-6.305,6.303-6.305c2.088,0,3.938,1.016,5.084,2.578"/>
</g>
<g>
	<path fill="none" stroke="#231F20" stroke-linecap="round" stroke-linejoin="round" stroke-miterlimit="10" d="M31.031,20.21
		c2.176,0,3.939,1.765,3.939,3.94s-1.764,3.939-3.939,3.939s-3.94-1.764-3.94-3.939S28.855,20.21,31.031,20.21"/>
	<path fill="none" stroke="#231F20" stroke-linecap="round" stroke-linejoin="round" stroke-miterlimit="10" d="M25.943,30.671
		c1.146-1.565,2.998-2.581,5.086-2.581c3.484,0,6.305,2.822,6.305,6.305h-8.79"/>
</g>
<path fill="none" stroke="#010101" stroke-linecap="round" stroke-linejoin="round" stroke-miterlimit="10" d="M20,17.08
	c3.143,0,5.691,2.548,5.691,5.691c0,3.143-2.549,5.69-5.691,5.69c-3.143,0-5.691-2.548-5.691-5.69
	C14.309,19.628,16.857,17.08,20,17.08"/>
<path fill="none" stroke="#010101" stroke-linecap="round" stroke-linejoin="round" stroke-miterlimit="10" d="M11.899,16.286
	c1.873-2.416,4.803-3.972,8.101-3.972c3.293,0,6.225,1.555,8.098,3.971"/>
<path fill="none" stroke="#010101" stroke-linecap="round" stroke-linejoin="round" stroke-miterlimit="10" d="M8.948,13.665
	C11.547,10.438,15.529,8.374,20,8.374c4.46,0,8.439,2.058,11.04,5.277"/>
<path fill="none" stroke="#010101" stroke-linecap="round" stroke-linejoin="round" stroke-miterlimit="10" d="M5.794,11.3
	C9.112,7.117,14.24,4.435,20,4.435c5.766,0,10.898,2.69,14.218,6.883"/>
<path fill="none" stroke="#010101" stroke-linecap="round" stroke-linejoin="round" stroke-miterlimit="10" d="M29.104,37.568
	H10.896c0-5.029,4.073-9.105,9.104-9.105C25.029,28.463,29.104,32.539,29.104,37.568z"/>
</svg>
