<?xml version="1.0" encoding="utf-8"?>
<!-- Generator: Adobe Illustrator 16.0.0, SVG Export Plug-In . SVG Version: 6.00 Build 0)  -->
<!DOCTYPE svg PUBLIC "-//W3C//DTD SVG 1.1//EN" "http://www.w3.org/Graphics/SVG/1.1/DTD/svg11.dtd">
<svg version="1.1" id="Layer_1" xmlns="http://www.w3.org/2000/svg" xmlns:xlink="http://www.w3.org/1999/xlink" x="0px" y="0px"
	 width="40px" height="40px" viewBox="0 0 40 40" enable-background="new 0 0 40 40" xml:space="preserve">
<g>
	
		<rect x="16.869" y="20.803" fill="none" stroke="#010101" stroke-linecap="round" stroke-linejoin="round" stroke-miterlimit="10" width="6.262" height="7.828"/>
	<path fill="none" stroke="#010101" stroke-linecap="round" stroke-linejoin="round" stroke-miterlimit="10" d="M13.737,8.278
		c0-3.458,2.804-6.262,6.263-6.262c3.458,0,6.263,2.804,6.263,6.262v12.525H13.737V8.278z"/>
	
		<line fill="none" stroke="#010101" stroke-linecap="round" stroke-linejoin="round" stroke-miterlimit="10" x1="20" y1="28.631" x2="20" y2="38"/>
	<path fill="none" stroke="#010101" stroke-linecap="round" stroke-linejoin="round" stroke-miterlimit="10" d="M35.656,8.278
		c0,0.866-0.7,1.566-1.565,1.566h-7.828V6.712h7.828C34.956,6.712,35.656,7.413,35.656,8.278z"/>
	<path fill="none" stroke="#010101" stroke-linecap="round" stroke-linejoin="round" stroke-miterlimit="10" d="M4.344,8.278
		c0-0.865,0.7-1.565,1.566-1.565h7.828v3.131H5.91C5.044,9.844,4.344,9.144,4.344,8.278z"/>
	
		<line fill="none" stroke="#010101" stroke-linecap="round" stroke-linejoin="round" stroke-miterlimit="10" x1="17.651" y1="6.712" x2="22.349" y2="6.712"/>
	
		<line fill="none" stroke="#010101" stroke-linecap="round" stroke-linejoin="round" stroke-miterlimit="10" x1="17.651" y1="9.844" x2="22.349" y2="9.844"/>
	<polyline fill="none" stroke="#010101" stroke-linecap="round" stroke-linejoin="round" stroke-miterlimit="10" points="
		25.479,35.676 28.61,30.979 31.742,35.676 34.873,30.979 	"/>
	<polyline fill="none" stroke="#010101" stroke-linecap="round" stroke-linejoin="round" stroke-miterlimit="10" points="
		14.521,35.676 11.389,30.979 8.258,35.676 5.127,30.979 	"/>
</g>
</svg>
