<?xml version="1.0" encoding="utf-8"?>
<!-- Generator: Adobe Illustrator 16.0.0, SVG Export Plug-In . SVG Version: 6.00 Build 0)  -->
<!DOCTYPE svg PUBLIC "-//W3C//DTD SVG 1.1//EN" "http://www.w3.org/Graphics/SVG/1.1/DTD/svg11.dtd">
<svg version="1.1" id="Layer_1" xmlns="http://www.w3.org/2000/svg" xmlns:xlink="http://www.w3.org/1999/xlink" x="0px" y="0px"
	 width="40px" height="40px" viewBox="0 0 40 40" enable-background="new 0 0 40 40" xml:space="preserve">
<g>
	<polygon fill="none" stroke="#231F20" stroke-linejoin="round" stroke-miterlimit="10" points="25.361,38.848 16.976,38.848 
		13.621,28.784 28.717,28.784 	"/>
	<path fill="none" stroke="#231F20" stroke-linecap="round" stroke-linejoin="round" stroke-miterlimit="10" d="M24.556,15.357
		c-2.31,1.542-3.498,4.351,0,6.713c1.918,4.796,5.486,3.506,7.597,1.283c2.113-2.227,3.217-8.435,1.657-11.833
		C30.438,14.064,27.432,13.439,24.556,15.357z"/>
	<path fill="none" stroke="#231F20" stroke-linecap="round" stroke-linejoin="round" stroke-miterlimit="10" d="M17.881,8.589
		c2.484,2.924,3.798,6.768-2.124,9.351c-2.71,6.048-6.832,3.811-9.574,0.579C3.441,15.288,2.393,6.641,4.807,2.076
		C9.261,5.843,14.779,4.933,17.881,8.589z"/>
	<path fill="none" stroke="#231F20" stroke-linecap="round" stroke-linejoin="round" stroke-miterlimit="10" d="M29.352,18.234
		c-5.755,2.878-8.631,10.55-8.631,10.55S18.295,17.543,8.705,8.912"/>
</g>
</svg>
