<?xml version="1.0" encoding="utf-8"?>
<!-- Generator: Adobe Illustrator 16.0.0, SVG Export Plug-In . SVG Version: 6.00 Build 0)  -->
<!DOCTYPE svg PUBLIC "-//W3C//DTD SVG 1.1//EN" "http://www.w3.org/Graphics/SVG/1.1/DTD/svg11.dtd">
<svg version="1.1" id="Layer_1" xmlns="http://www.w3.org/2000/svg" xmlns:xlink="http://www.w3.org/1999/xlink" x="0px" y="0px"
	 width="40px" height="40px" viewBox="0 0 40 40" enable-background="new 0 0 40 40" xml:space="preserve">
<g>
	<polyline fill="none" stroke="#010101" stroke-linejoin="round" stroke-miterlimit="10" points="16.804,22.353 1.623,22.353 
		1.623,31.142 	"/>
	<polyline fill="none" stroke="#010101" stroke-linejoin="round" stroke-miterlimit="10" points="1.623,23.151 1.623,14.363 
		21.598,14.363 	"/>
	
		<rect x="1.623" y="6.373" fill="none" stroke="#010101" stroke-linejoin="round" stroke-miterlimit="10" width="17.579" height="7.99"/>
	
		<line fill="none" stroke="#010101" stroke-linejoin="round" stroke-miterlimit="10" x1="8.015" y1="6.373" x2="8.015" y2="14.363"/>
	
		<line fill="none" stroke="#010101" stroke-linejoin="round" stroke-miterlimit="10" x1="14.407" y1="14.363" x2="14.407" y2="22.353"/>
	
		<line fill="none" stroke="#010101" stroke-linejoin="round" stroke-miterlimit="10" x1="8.015" y1="22.353" x2="8.015" y2="30.343"/>
	
		<line fill="none" stroke="#010101" stroke-linejoin="round" stroke-miterlimit="10" x1="27.191" y1="31.142" x2="27.191" y2="38.333"/>
	<g>
		<path fill="none" stroke="#010101" stroke-linecap="round" stroke-linejoin="round" stroke-miterlimit="10" d="M27.996,11.397
			c0.877,0.994,2.391,1.089,3.384,0.212l6.167-5.603c0.478-0.42,0.768-1.011,0.807-1.648c0.041-0.632-0.175-1.258-0.595-1.734
			c-0.875-0.991-2.389-1.087-3.381-0.212l-6.169,5.601c-0.477,0.421-0.767,1.015-0.806,1.648
			C27.362,10.296,27.576,10.922,27.996,11.397z"/>
		<polyline fill="none" stroke="#010101" stroke-linecap="round" stroke-linejoin="round" stroke-miterlimit="10" points="
			28.015,11.417 33.134,17.315 27.141,22.603 		"/>
		<path fill="none" stroke="#010101" stroke-linecap="round" stroke-linejoin="round" stroke-miterlimit="10" d="M23.246,17.353
			c0.471-1.784,2.688-2.104,3.995-0.799l5.593,5.593c1.317,1.317,0.997,3.541-0.799,3.995l-14.382,5.594L23.246,17.353z"/>
	</g>
	<polyline fill="none" stroke="#010101" stroke-linejoin="round" stroke-miterlimit="10" points="30.412,30.343 38.377,30.343 
		38.377,38.333 1.623,38.333 1.623,30.343 13.608,30.343 14.407,30.343 14.407,38.333 	"/>
</g>
</svg>
