<?xml version="1.0" encoding="utf-8"?>
<!-- Generator: Adobe Illustrator 16.0.0, SVG Export Plug-In . SVG Version: 6.00 Build 0)  -->
<!DOCTYPE svg PUBLIC "-//W3C//DTD SVG 1.1//EN" "http://www.w3.org/Graphics/SVG/1.1/DTD/svg11.dtd">
<svg version="1.1" id="Layer_1" xmlns="http://www.w3.org/2000/svg" xmlns:xlink="http://www.w3.org/1999/xlink" x="0px" y="0px"
	 width="40px" height="40px" viewBox="0 0 40 40" enable-background="new 0 0 40 40" xml:space="preserve">
<g>
	
		<circle fill="none" stroke="#231F20" stroke-linecap="round" stroke-linejoin="round" stroke-miterlimit="10" cx="8.969" cy="24.15" r="3.939"/>
	<path fill="none" stroke="#231F20" stroke-linecap="round" stroke-linejoin="round" stroke-miterlimit="10" d="M11.456,34.394
		h-8.79c0-3.481,2.821-6.304,6.303-6.304c2.088,0,3.938,1.015,5.084,2.578"/>
</g>
<g>
	
		<circle fill="none" stroke="#231F20" stroke-linecap="round" stroke-linejoin="round" stroke-miterlimit="10" cx="31.031" cy="24.15" r="3.94"/>
	<path fill="none" stroke="#231F20" stroke-linecap="round" stroke-linejoin="round" stroke-miterlimit="10" d="M25.943,30.671
		c1.146-1.565,2.998-2.581,5.087-2.581c3.483,0,6.304,2.822,6.304,6.304h-8.79"/>
</g>
<circle fill="none" stroke="#010101" stroke-linecap="round" stroke-linejoin="round" stroke-miterlimit="10" cx="20" cy="22.771" r="5.691"/>
<path fill="none" stroke="#010101" stroke-linecap="round" stroke-linejoin="round" stroke-miterlimit="10" d="M11.899,16.286
	c1.873-2.416,4.803-3.972,8.101-3.972c3.293,0,6.225,1.555,8.098,3.971"/>
<path fill="none" stroke="#010101" stroke-linecap="round" stroke-linejoin="round" stroke-miterlimit="10" d="M8.948,13.665
	C11.547,10.438,15.529,8.374,20,8.374c4.46,0,8.439,2.058,11.04,5.277"/>
<path fill="none" stroke="#010101" stroke-linecap="round" stroke-linejoin="round" stroke-miterlimit="10" d="M5.794,11.3
	C9.112,7.117,14.24,4.435,20,4.435c5.765,0,10.898,2.69,14.218,6.883"/>
<path fill="none" stroke="#010101" stroke-linecap="round" stroke-linejoin="round" stroke-miterlimit="10" d="M29.104,37.568
	H10.896c0-5.029,4.073-9.105,9.104-9.105C25.029,28.463,29.104,32.539,29.104,37.568z"/>
</svg>
