<?xml version="1.0" encoding="utf-8"?>
<!-- Generator: Adobe Illustrator 16.0.0, SVG Export Plug-In . SVG Version: 6.00 Build 0)  -->
<!DOCTYPE svg PUBLIC "-//W3C//DTD SVG 1.1//EN" "http://www.w3.org/Graphics/SVG/1.1/DTD/svg11.dtd">
<svg version="1.1" id="Layer_1" xmlns="http://www.w3.org/2000/svg" xmlns:xlink="http://www.w3.org/1999/xlink" x="0px" y="0px"
	 width="40px" height="40px" viewBox="0 0 40 40" enable-background="new 0 0 40 40" xml:space="preserve">
<g>
	<path fill="none" stroke="#010101" stroke-linejoin="round" stroke-miterlimit="10" d="M37.927,27.856v-12.57H15.929
		c-1.735,0-3.143,1.407-3.143,3.143v9.428H37.927z"/>
	<polygon fill="none" stroke="#010101" stroke-linejoin="round" stroke-miterlimit="10" points="23.785,4.287 37.927,4.287 
		37.927,15.286 20.643,15.286 	"/>
	<polyline fill="none" stroke="#010101" stroke-linecap="round" stroke-linejoin="round" stroke-miterlimit="10" points="
		25.579,12.15 26.928,7.43 30.856,7.43 	"/>
	<polyline fill="none" stroke="#010101" stroke-linecap="round" stroke-miterlimit="10" points="2.573,8.215 6.501,12.929 
		6.501,30.213 2.573,34.927 	"/>
	<line fill="none" stroke="#010101" stroke-miterlimit="10" x1="6.501" y1="21.571" x2="12.786" y2="21.571"/>
	<line fill="none" stroke="#010101" stroke-miterlimit="10" x1="6.501" y1="24.714" x2="12.786" y2="24.714"/>
	
		<line fill="none" stroke="#010101" stroke-linecap="round" stroke-linejoin="round" stroke-miterlimit="10" x1="16.715" y1="18.429" x2="23" y2="18.429"/>
	
		<line fill="none" stroke="#010101" stroke-linecap="round" stroke-linejoin="round" stroke-miterlimit="10" x1="16.715" y1="21.571" x2="23" y2="21.571"/>
	<path fill="none" stroke="#010101" stroke-miterlimit="10" d="M12.786,31.784c0,2.17,1.759,3.929,3.929,3.929h17.284
		c2.169,0,3.928-1.759,3.928-3.929c0-2.169-1.759-3.928-3.928-3.928H16.715C14.545,27.856,12.786,29.615,12.786,31.784z"/>
	<circle fill="none" stroke="#010101" stroke-linejoin="round" stroke-miterlimit="10" cx="18.286" cy="31.784" r="1.571"/>
	<circle fill="none" stroke="#010101" stroke-linejoin="round" stroke-miterlimit="10" cx="25.356" cy="31.784" r="1.571"/>
	<circle fill="none" stroke="#010101" stroke-linejoin="round" stroke-miterlimit="10" cx="32.428" cy="31.784" r="1.571"/>
</g>
</svg>
