<?xml version="1.0" encoding="utf-8"?>
<!-- Generator: Adobe Illustrator 16.0.0, SVG Export Plug-In . SVG Version: 6.00 Build 0)  -->
<!DOCTYPE svg PUBLIC "-//W3C//DTD SVG 1.1//EN" "http://www.w3.org/Graphics/SVG/1.1/DTD/svg11.dtd">
<svg version="1.1" xmlns="http://www.w3.org/2000/svg" xmlns:xlink="http://www.w3.org/1999/xlink" x="0px" y="0px" width="1000px"
	 height="350px" viewBox="0 0 1000 350" enable-background="new 0 0 1000 350" xml:space="preserve">
<g id="city" display="none">
	<g display="inline">
		<rect x="784.357" y="268.211" fill="#E0D7B3" width="43.643" height="51.432"/>
		<g>
			<path fill="#7A7A7A" d="M826,270.211v47.432h-39.643v-47.432H826 M830,266.211h-47.643v55.432H830V266.211L830,266.211z"/>
		</g>
	</g>
	<g display="inline">
		<polygon fill="#E0D7B3" points="811.717,317.046 811.717,212.027 861.135,233.943 861.135,317.046 		"/>
		<g>
			<path fill="#7A7A7A" d="M813.717,215.102l45.418,20.143v79.802h-45.418V215.102 M809.717,208.952v110.094h53.418v-86.403
				L809.717,208.952L809.717,208.952z"/>
		</g>
	</g>
	<g display="inline">
		<rect x="838.426" y="269.391" fill="#E0D7B3" width="70.649" height="59.219"/>
		<g>
			<path fill="#7A7A7A" d="M907.075,271.391v55.219h-66.649v-55.219H907.075 M911.075,267.391h-74.649v63.219h74.649V267.391
				L911.075,267.391z"/>
		</g>
	</g>
	
		<line display="inline" fill="none" stroke="#7A7A7A" stroke-width="4" stroke-miterlimit="10" x1="827.968" y1="219.143" x2="827.968" y2="310.477"/>
	
		<line display="inline" fill="none" stroke="#7A7A7A" stroke-width="4" stroke-miterlimit="10" x1="847.514" y1="228.393" x2="847.514" y2="267.391"/>
	
		<line display="inline" fill="none" stroke="#7A7A7A" stroke-width="4" stroke-miterlimit="10" x1="787.25" y1="279.81" x2="812.5" y2="279.81"/>
	
		<line display="inline" fill="none" stroke="#7A7A7A" stroke-width="4" stroke-miterlimit="10" x1="787.25" y1="288.81" x2="812.5" y2="288.81"/>
	
		<line display="inline" fill="none" stroke="#7A7A7A" stroke-width="4" stroke-miterlimit="10" x1="787.25" y1="297.81" x2="812.5" y2="297.81"/>
	<polygon display="inline" fill="#BBB7A5" points="859.167,267.391 836.426,267.391 836.426,307.003 817.833,307.003 830,262.31 
		859.167,262.31 	"/>
	<g display="inline">
		<rect x="93.653" y="286.521" fill="#E0D7B3" width="97.499" height="63.955"/>
		<g>
			<path fill="#7A7A7A" d="M189.152,288.521v59.955H95.653v-59.955H189.152 M193.152,284.521H91.653v67.955h101.499V284.521
				L193.152,284.521z"/>
		</g>
	</g>
	
		<line display="inline" fill="none" stroke="#7A7A7A" stroke-width="4" stroke-miterlimit="10" x1="112.979" y1="251.725" x2="112.979" y2="288"/>
	<g display="inline">
		<rect x="103.5" y="296.5" fill="#E0D7B3" width="7" height="8"/>
		<path fill="#7A7A7A" d="M109,298v5h-4v-5H109 M112,295h-10v11h10V295L112,295z"/>
	</g>
	<g display="inline">
		<rect x="117.833" y="296.5" fill="#E0D7B3" width="6.334" height="7.971"/>
		<path fill="#7A7A7A" d="M122.667,298v4.971h-3.334V298H122.667 M125.667,295h-9.334v10.971h9.334V295L125.667,295z"/>
	</g>
	<g display="inline">
		<rect x="130.833" y="296.5" fill="#E0D7B3" width="6.334" height="7.971"/>
		<path fill="#7A7A7A" d="M135.667,298v4.971h-3.334V298H135.667 M138.667,295h-9.334v10.971h9.334V295L138.667,295z"/>
	</g>
	<g display="inline">
		<rect x="103.333" y="315.014" fill="#E0D7B3" width="5.334" height="6.971"/>
		<g>
			<path fill="#7A7A7A" d="M106.667,317.014v2.971h-1.334v-2.971H106.667 M110.667,313.014h-9.334v10.971h9.334V313.014
				L110.667,313.014z"/>
		</g>
	</g>
	<g display="inline">
		<rect x="117.833" y="314.514" fill="#E0D7B3" width="6.334" height="7.971"/>
		<path fill="#7A7A7A" d="M122.667,316.014v4.971h-3.334v-4.971H122.667 M125.667,313.014h-9.334v10.971h9.334V313.014
			L125.667,313.014z"/>
	</g>
	<g display="inline">
		<rect x="130.833" y="314.514" fill="#E0D7B3" width="6.334" height="7.971"/>
		<path fill="#7A7A7A" d="M135.667,316.014v4.971h-3.334v-4.971H135.667 M138.667,313.014h-9.334v10.971h9.334V313.014
			L138.667,313.014z"/>
	</g>
	<polygon display="inline" fill="#BBB7A5" points="129,284.521 148,284.521 148,320.484 123.038,320.484 	"/>
	
		<rect x="273.585" y="238.643" display="inline" fill="#E0D7B3" stroke="#615F59" stroke-width="4" stroke-miterlimit="10" width="453.481" height="127.582"/>
	<g display="inline">
		<rect x="759.969" y="223.102" fill="#E0D7B3" width="27.423" height="141.123"/>
		<g>
			<path fill="#7A7A7A" d="M785.392,225.102v137.123h-23.423V225.102H785.392 M789.392,221.102h-31.423v145.123h31.423V221.102
				L789.392,221.102z"/>
		</g>
	</g>
	<g display="inline">
		<rect x="220.62" y="87.96" fill="#E0D7B3" width="50.965" height="181.736"/>
		<g>
			<path fill="#7C7A74" d="M269.585,89.96v177.736H222.62V89.96H269.585 M273.585,85.96H218.62v185.736h54.965V85.96L273.585,85.96z
				"/>
		</g>
	</g>
	<g display="inline">
		<rect x="140.969" y="263.075" fill="#E0D7B3" width="58.771" height="88.925"/>
		<g>
			<path fill="#7C7A74" d="M197.739,265.075V350h-54.771v-84.925H197.739 M201.739,261.075h-62.771V354h62.771V261.075
				L201.739,261.075z"/>
		</g>
	</g>
	<g display="inline">
		<rect x="56.896" y="322.484" fill="#E0D7B3" width="97.5" height="29.516"/>
		<g>
			<path fill="#7C7A74" d="M152.396,324.484V350h-93.5v-25.516H152.396 M156.396,320.484h-101.5V354h101.5V320.484L156.396,320.484z
				"/>
		</g>
	</g>
	<g display="inline">
		<rect x="190" y="227.81" fill="#E0D7B3" width="105.93" height="124.19"/>
		<g>
			<path fill="#7C7A74" d="M293.93,229.81V350H192V229.81H293.93 M297.93,225.81H188V354h109.93V225.81L297.93,225.81z"/>
		</g>
	</g>
	<g display="inline">
		<rect x="482.84" y="65.326" fill="#E0D7B3" width="49.313" height="298.899"/>
		<g>
			<path fill="#7C7A74" d="M530.153,67.326v294.899H484.84V67.326H530.153 M534.153,63.326H480.84v302.899h53.313V63.326
				L534.153,63.326z"/>
		</g>
	</g>
	<g display="inline">
		<rect x="767.969" y="309.003" fill="#E0D7B3" width="174.031" height="59.22"/>
		<g>
			<path fill="#7A7A7A" d="M940,311.003v55.22H769.969v-55.22H940 M944,307.003H765.969v63.22H944V307.003L944,307.003z"/>
		</g>
	</g>
	<g display="inline">
		<rect x="691.741" y="161.959" fill="#E0D7B3" width="70.649" height="193.393"/>
		<g>
			<path fill="#7C7A74" d="M760.391,163.959v189.393h-66.649V163.959H760.391 M764.391,159.959h-74.649v197.393h74.649V159.959
				L764.391,159.959z"/>
		</g>
	</g>
	<g display="inline">
		<polygon fill="#E0D7B3" points="386.023,373.818 363.772,373.818 363.772,82.966 387.666,59.073 411.449,83.085 410.055,373.934 
					"/>
		<g>
			<path fill="#7C7A74" d="M387.659,61.908l21.786,21.996l-1.381,288.02l-22.05-0.105h-20.241V83.794L387.659,61.908
				 M387.673,56.237l-25.9,25.9v293.681h24.241l26.031,0.125l1.408-293.677L387.673,56.237L387.673,56.237z"/>
		</g>
	</g>
	
		<line display="inline" fill="#E0D7B3" stroke="#7C7A74" stroke-width="4" stroke-miterlimit="10" x1="568.141" y1="67.32" x2="568.141" y2="91"/>
	<g display="inline">
		<rect x="610.81" y="79.972" fill="#E0D7B3" width="22.657" height="298.899"/>
		<g>
			<path fill="#7A7A7A" d="M631.467,81.972v294.899H612.81V81.972H631.467 M635.467,77.972H608.81v302.899h26.657V77.972
				L635.467,77.972z"/>
		</g>
	</g>
	
		<line display="inline" fill="none" stroke="#7C7A74" stroke-width="4" stroke-miterlimit="10" x1="141.333" y1="272.977" x2="191" y2="272.977"/>
	
		<line display="inline" fill="none" stroke="#7A7A7A" stroke-width="4" stroke-miterlimit="10" x1="141.333" y1="282.977" x2="191" y2="282.977"/>
	
		<line display="inline" fill="none" stroke="#7A7A7A" stroke-width="4" stroke-miterlimit="10" x1="141.333" y1="292.977" x2="191" y2="292.977"/>
	
		<line display="inline" fill="none" stroke="#7A7A7A" stroke-width="4" stroke-miterlimit="10" x1="141.333" y1="302.977" x2="191" y2="302.977"/>
	
		<line display="inline" fill="none" stroke="#7A7A7A" stroke-width="4" stroke-miterlimit="10" x1="140.5" y1="313.014" x2="190.167" y2="313.014"/>
	
		<line display="inline" fill="none" stroke="#7A7A7A" stroke-width="4" stroke-miterlimit="10" x1="154.424" y1="323.014" x2="191" y2="323.014"/>
	
		<line display="inline" fill="none" stroke="#7A7A7A" stroke-width="4" stroke-miterlimit="10" x1="155.027" y1="332.439" x2="191" y2="332.439"/>
	
		<line display="inline" fill="none" stroke="#7A7A7A" stroke-width="4" stroke-miterlimit="10" x1="154.424" y1="342.477" x2="190.396" y2="342.477"/>
	
		<line display="inline" fill="none" stroke="#615F59" stroke-width="4" stroke-miterlimit="10" x1="155.027" y1="352.477" x2="191" y2="352.477"/>
	<polygon display="inline" fill="#BBB7A5" points="188,354 168.856,354 173.791,261.075 188,261.075 	"/>
	<g display="inline">
		<g>
			<rect x="227.5" y="96.5" fill="#E0D7B3" width="38" height="7"/>
			<path fill="#7A7A7A" d="M264,98v4h-35v-4H264 M267,95h-41v10h41V95L267,95z"/>
		</g>
		<g>
			<rect x="227.5" y="111.011" fill="#E0D7B3" width="38" height="7"/>
			<path fill="#7A7A7A" d="M264,112.511v4h-35v-4H264 M267,109.511h-41v10h41V109.511L267,109.511z"/>
		</g>
		<g>
			<rect x="227.5" y="125.522" fill="#E0D7B3" width="38" height="7"/>
			<path fill="#7A7A7A" d="M264,127.022v4h-35v-4H264 M267,124.022h-41v10h41V124.022L267,124.022z"/>
		</g>
		<g>
			<rect x="227.5" y="140.034" fill="#E0D7B3" width="38" height="7"/>
			<path fill="#7A7A7A" d="M264,141.534v4h-35v-4H264 M267,138.534h-41v10h41V138.534L267,138.534z"/>
		</g>
		<g>
			<rect x="227.5" y="154.545" fill="#E0D7B3" width="38" height="7"/>
			<path fill="#7A7A7A" d="M264,156.045v4h-35v-4H264 M267,153.045h-41v10h41V153.045L267,153.045z"/>
		</g>
		<g>
			<rect x="227.5" y="169.056" fill="#E0D7B3" width="38" height="7"/>
			<path fill="#7A7A7A" d="M264,170.556v4h-35v-4H264 M267,167.556h-41v10h41V167.556L267,167.556z"/>
		</g>
		<g>
			<rect x="227.5" y="183.567" fill="#E0D7B3" width="38" height="7"/>
			<path fill="#7A7A7A" d="M264,185.067v4h-35v-4H264 M267,182.067h-41v10h41V182.067L267,182.067z"/>
		</g>
		<g>
			<rect x="227.5" y="198.078" fill="#E0D7B3" width="38" height="7"/>
			<path fill="#7A7A7A" d="M264,199.578v4h-35v-4H264 M267,196.578h-41v10h41V196.578L267,196.578z"/>
		</g>
		<g>
			<rect x="227.5" y="212.59" fill="#E0D7B3" width="38" height="7"/>
			<path fill="#7A7A7A" d="M264,214.09v4h-35v-4H264 M267,211.09h-41v10h41V211.09L267,211.09z"/>
		</g>
	</g>
	<rect x="222.65" y="216.09" display="inline" fill="#BBB7A5" width="41.35" height="9.72"/>
	
		<line display="inline" fill="#E0D7B3" stroke="#7A7A7A" stroke-width="4" stroke-miterlimit="10" x1="832.333" y1="279.81" x2="917" y2="279.81"/>
	
		<line display="inline" fill="#E0D7B3" stroke="#7A7A7A" stroke-width="4" stroke-miterlimit="10" x1="832.333" y1="289.81" x2="917" y2="289.81"/>
	
		<line display="inline" fill="#E0D7B3" stroke="#7A7A7A" stroke-width="4" stroke-miterlimit="10" x1="832.333" y1="299.81" x2="917" y2="299.81"/>
	<rect x="840.483" y="302.144" display="inline" fill="#BBB7A5" width="66.517" height="4.859"/>
	<rect x="804" y="269.977" display="inline" fill="#BBB7A5" width="5.717" height="37.026"/>
	<g display="inline">
		<line fill="#E0D7B3" stroke="#7A7A7A" stroke-width="4" stroke-miterlimit="10" x1="364" y1="85.96" x2="410.5" y2="85.96"/>
		<line fill="#E0D7B3" stroke="#7A7A7A" stroke-width="4" stroke-miterlimit="10" x1="364" y1="98.129" x2="410.5" y2="98.129"/>
		<line fill="#E0D7B3" stroke="#7A7A7A" stroke-width="4" stroke-miterlimit="10" x1="364" y1="110.297" x2="410.5" y2="110.297"/>
		<line fill="#E0D7B3" stroke="#7A7A7A" stroke-width="4" stroke-miterlimit="10" x1="364" y1="122.466" x2="410.5" y2="122.466"/>
		<line fill="#E0D7B3" stroke="#7A7A7A" stroke-width="4" stroke-miterlimit="10" x1="364" y1="134.634" x2="410.5" y2="134.634"/>
		<line fill="#E0D7B3" stroke="#7A7A7A" stroke-width="4" stroke-miterlimit="10" x1="364" y1="146.803" x2="410.5" y2="146.803"/>
		<line fill="#E0D7B3" stroke="#7A7A7A" stroke-width="4" stroke-miterlimit="10" x1="364" y1="158.971" x2="410.5" y2="158.971"/>
		<line fill="#E0D7B3" stroke="#7A7A7A" stroke-width="4" stroke-miterlimit="10" x1="364" y1="171.14" x2="410.5" y2="171.14"/>
		<line fill="#E0D7B3" stroke="#7A7A7A" stroke-width="4" stroke-miterlimit="10" x1="364" y1="183.309" x2="410.5" y2="183.309"/>
		<line fill="#E0D7B3" stroke="#7A7A7A" stroke-width="4" stroke-miterlimit="10" x1="364" y1="195.477" x2="410.5" y2="195.477"/>
		<line fill="#E0D7B3" stroke="#7A7A7A" stroke-width="4" stroke-miterlimit="10" x1="364" y1="207.646" x2="410.5" y2="207.646"/>
		<line fill="#E0D7B3" stroke="#7A7A7A" stroke-width="4" stroke-miterlimit="10" x1="364" y1="219.813" x2="410.5" y2="219.813"/>
		<line fill="#E0D7B3" stroke="#7A7A7A" stroke-width="4" stroke-miterlimit="10" x1="364" y1="231.982" x2="410.5" y2="231.982"/>
		<line fill="#E0D7B3" stroke="#7A7A7A" stroke-width="4" stroke-miterlimit="10" x1="364" y1="244.15" x2="410.5" y2="244.15"/>
		<line fill="#E0D7B3" stroke="#7A7A7A" stroke-width="4" stroke-miterlimit="10" x1="364" y1="256.319" x2="410.5" y2="256.319"/>
		<line fill="#E0D7B3" stroke="#7A7A7A" stroke-width="4" stroke-miterlimit="10" x1="364" y1="268.488" x2="410.5" y2="268.488"/>
		<line fill="#E0D7B3" stroke="#7A7A7A" stroke-width="4" stroke-miterlimit="10" x1="364" y1="280.656" x2="410.5" y2="280.656"/>
		<line fill="#E0D7B3" stroke="#7A7A7A" stroke-width="4" stroke-miterlimit="10" x1="364" y1="292.825" x2="410.5" y2="292.825"/>
		<line fill="#E0D7B3" stroke="#7A7A7A" stroke-width="4" stroke-miterlimit="10" x1="364" y1="304.993" x2="410.5" y2="304.993"/>
		<line fill="#E0D7B3" stroke="#7A7A7A" stroke-width="4" stroke-miterlimit="10" x1="364" y1="317.162" x2="410.5" y2="317.162"/>
		<line fill="#E0D7B3" stroke="#7A7A7A" stroke-width="4" stroke-miterlimit="10" x1="364" y1="329.33" x2="410.5" y2="329.33"/>
		<line fill="#E0D7B3" stroke="#7A7A7A" stroke-width="4" stroke-miterlimit="10" x1="364" y1="341.499" x2="410.5" y2="341.499"/>
	</g>
	<g display="inline">
		<g>
			<g>
				<rect x="206.5" y="240.643" fill="#E0D7B3" width="7.5" height="15.5"/>
				<path fill="#7A7A7A" d="M212,242.643v11.5h-3.5v-11.5H212 M216,238.643h-11.5v19.5H216V238.643L216,238.643z"/>
			</g>
			
				<line fill="none" stroke="#7A7A7A" stroke-width="2" stroke-miterlimit="10" x1="201.739" y1="250.725" x2="219.333" y2="250.725"/>
		</g>
		<g>
			<g>
				<rect x="229.964" y="240.643" fill="#E0D7B3" width="7.5" height="15.5"/>
				<path fill="#7A7A7A" d="M235.464,242.643v11.5h-3.5v-11.5H235.464 M239.464,238.643h-11.5v19.5h11.5V238.643L239.464,238.643z"
					/>
			</g>
			
				<line fill="none" stroke="#7A7A7A" stroke-width="2" stroke-miterlimit="10" x1="225.203" y1="250.725" x2="242.797" y2="250.725"/>
		</g>
		<g>
			<g>
				<rect x="251.729" y="240.643" fill="#E0D7B3" width="7.5" height="15.5"/>
				<path fill="#7A7A7A" d="M257.229,242.643v11.5h-3.5v-11.5H257.229 M261.229,238.643h-11.5v19.5h11.5V238.643L261.229,238.643z"
					/>
			</g>
			
				<line fill="none" stroke="#7A7A7A" stroke-width="2" stroke-miterlimit="10" x1="246.969" y1="250.725" x2="264.563" y2="250.725"/>
		</g>
		<g>
			<g>
				<rect x="206.5" y="271.862" fill="#E0D7B3" width="7.5" height="15.5"/>
				<path fill="#7A7A7A" d="M212,273.862v11.5h-3.5v-11.5H212 M216,269.862h-11.5v19.5H216V269.862L216,269.862z"/>
			</g>
			
				<line fill="none" stroke="#7A7A7A" stroke-width="2" stroke-miterlimit="10" x1="201.739" y1="281.944" x2="219.333" y2="281.944"/>
		</g>
		<g>
			<g>
				<rect x="229.964" y="271.862" fill="#E0D7B3" width="7.5" height="15.5"/>
				<path fill="#7A7A7A" d="M235.464,273.862v11.5h-3.5v-11.5H235.464 M239.464,269.862h-11.5v19.5h11.5V269.862L239.464,269.862z"
					/>
			</g>
			
				<line fill="none" stroke="#7A7A7A" stroke-width="2" stroke-miterlimit="10" x1="225.203" y1="281.944" x2="242.797" y2="281.944"/>
		</g>
		<g>
			<g>
				<rect x="251.729" y="271.862" fill="#E0D7B3" width="7.5" height="15.5"/>
				<path fill="#7A7A7A" d="M257.229,273.862v11.5h-3.5v-11.5H257.229 M261.229,269.862h-11.5v19.5h11.5V269.862L261.229,269.862z"
					/>
			</g>
			
				<line fill="none" stroke="#7A7A7A" stroke-width="2" stroke-miterlimit="10" x1="246.969" y1="281.944" x2="264.563" y2="281.944"/>
		</g>
		<g>
			<g>
				<rect x="206.5" y="299.787" fill="#E0D7B3" width="7.5" height="15.5"/>
				<path fill="#7A7A7A" d="M212,301.787v11.5h-3.5v-11.5H212 M216,297.787h-11.5v19.5H216V297.787L216,297.787z"/>
			</g>
			
				<line fill="none" stroke="#7A7A7A" stroke-width="2" stroke-miterlimit="10" x1="201.739" y1="309.869" x2="219.333" y2="309.869"/>
		</g>
		<g>
			<g>
				<rect x="229.964" y="299.787" fill="#E0D7B3" width="7.5" height="15.5"/>
				<path fill="#7A7A7A" d="M235.464,301.787v11.5h-3.5v-11.5H235.464 M239.464,297.787h-11.5v19.5h11.5V297.787L239.464,297.787z"
					/>
			</g>
			
				<line fill="none" stroke="#7A7A7A" stroke-width="2" stroke-miterlimit="10" x1="225.203" y1="309.869" x2="242.797" y2="309.869"/>
		</g>
		<g>
			<g>
				<rect x="251.729" y="299.787" fill="#E0D7B3" width="7.5" height="15.5"/>
				<path fill="#7A7A7A" d="M257.229,301.787v11.5h-3.5v-11.5H257.229 M261.229,297.787h-11.5v19.5h11.5V297.787L261.229,297.787z"
					/>
			</g>
			
				<line fill="none" stroke="#7A7A7A" stroke-width="2" stroke-miterlimit="10" x1="246.969" y1="309.869" x2="264.563" y2="309.869"/>
		</g>
		<g>
			<g>
				<rect x="206.5" y="328.06" fill="#E0D7B3" width="7.5" height="15.5"/>
				<path fill="#7A7A7A" d="M212,330.06v11.5h-3.5v-11.5H212 M216,326.06h-11.5v19.5H216V326.06L216,326.06z"/>
			</g>
			
				<line fill="none" stroke="#7A7A7A" stroke-width="2" stroke-miterlimit="10" x1="201.739" y1="338.142" x2="219.333" y2="338.142"/>
		</g>
		<g>
			<g>
				<rect x="229.964" y="328.06" fill="#E0D7B3" width="7.5" height="15.5"/>
				<path fill="#7A7A7A" d="M235.464,330.06v11.5h-3.5v-11.5H235.464 M239.464,326.06h-11.5v19.5h11.5V326.06L239.464,326.06z"/>
			</g>
			
				<line fill="none" stroke="#7A7A7A" stroke-width="2" stroke-miterlimit="10" x1="225.203" y1="338.142" x2="242.797" y2="338.142"/>
		</g>
		<g>
			<g>
				<rect x="251.729" y="328.06" fill="#E0D7B3" width="7.5" height="15.5"/>
				<path fill="#7A7A7A" d="M257.229,330.06v11.5h-3.5v-11.5H257.229 M261.229,326.06h-11.5v19.5h11.5V326.06L261.229,326.06z"/>
			</g>
			
				<line fill="none" stroke="#7A7A7A" stroke-width="2" stroke-miterlimit="10" x1="246.969" y1="338.142" x2="264.563" y2="338.142"/>
		</g>
	</g>
	
		<line display="inline" fill="#E0D7B3" stroke="#615F59" stroke-width="4" stroke-miterlimit="10" x1="297.93" y1="307.003" x2="361.772" y2="307.003"/>
	
		<line display="inline" fill="#E0D7B3" stroke="#7A7A7A" stroke-width="4" stroke-miterlimit="10" x1="297.93" y1="318.003" x2="361.772" y2="318.003"/>
	
		<line display="inline" fill="#E0D7B3" stroke="#7A7A7A" stroke-width="4" stroke-miterlimit="10" x1="297.93" y1="329.003" x2="361.772" y2="329.003"/>
	<g display="inline">
		<g>
			<rect x="426.543" y="309.537" fill="#E0D7B3" width="7.5" height="15.501"/>
			<path fill="#7A7A7A" d="M432.043,311.537v11.501h-3.5v-11.501H432.043 M436.043,307.537h-11.5v19.501h11.5V307.537
				L436.043,307.537z"/>
		</g>
		
			<line fill="none" stroke="#7A7A7A" stroke-width="2" stroke-miterlimit="10" x1="421.782" y1="319.619" x2="439.376" y2="319.619"/>
	</g>
	<g display="inline">
		<g>
			<rect x="458.187" y="309.537" fill="#E0D7B3" width="7.5" height="15.501"/>
			<path fill="#7A7A7A" d="M463.687,311.537v11.501h-3.5v-11.501H463.687 M467.687,307.537h-11.5v19.501h11.5V307.537
				L467.687,307.537z"/>
		</g>
		
			<line fill="none" stroke="#7A7A7A" stroke-width="2" stroke-miterlimit="10" x1="453.426" y1="319.619" x2="471.02" y2="319.619"/>
	</g>
	<g display="inline">
		<rect x="762.5" y="237.643" fill="#E0D7B3" width="17.857" height="10.152"/>
		<path fill="#7A7A7A" d="M778.357,239.643v6.152H764.5v-6.152H778.357 M782.357,235.643H760.5v14.152h21.857V235.643
			L782.357,235.643z"/>
	</g>
	<g display="inline">
		<rect x="762.5" y="256.643" fill="#E0D7B3" width="17.857" height="10.152"/>
		<path fill="#7A7A7A" d="M778.357,258.643v6.152H764.5v-6.152H778.357 M782.357,254.643H760.5v14.152h21.857V254.643
			L782.357,254.643z"/>
	</g>
	<g display="inline">
		<rect x="762.5" y="275.643" fill="#E0D7B3" width="17.857" height="10.152"/>
		<path fill="#7A7A7A" d="M778.357,277.643v6.152H764.5v-6.152H778.357 M782.357,273.643H760.5v14.152h21.857V273.643
			L782.357,273.643z"/>
	</g>
	<g display="inline">
		<rect x="762.5" y="294.643" fill="#E0D7B3" width="17.857" height="10.152"/>
		<path fill="#7A7A7A" d="M778.357,296.643v6.152H764.5v-6.152H778.357 M782.357,292.643H760.5v14.152h21.857V292.643
			L782.357,292.643z"/>
	</g>
	<g display="inline">
		<rect x="539.632" y="308.537" fill="#E0D7B3" width="64.53" height="10.463"/>
		<path fill="#7C7A74" d="M602.162,310.537V317h-60.53v-6.463H602.162 M606.162,306.537h-4h-60.53h-4v4V317v4h4h60.53h4v-4v-6.463
			V306.537L606.162,306.537z"/>
	</g>
	<g display="inline">
		<rect x="539.632" y="330.538" fill="#E0D7B3" width="64.53" height="10.462"/>
		<path fill="#7C7A74" d="M602.162,332.538V339h-60.53v-6.462H602.162 M606.162,328.538h-4h-60.53h-4v4V339v4h4h60.53h4v-4v-6.462
			V328.538L606.162,328.538z"/>
	</g>
	
		<line display="inline" fill="none" stroke="#7A7A7A" stroke-width="4" stroke-miterlimit="10" x1="645.5" y1="300.5" x2="645.5" y2="352"/>
	
		<line display="inline" fill="none" stroke="#7A7A7A" stroke-width="4" stroke-miterlimit="10" x1="661" y1="300.5" x2="661" y2="352"/>
	
		<line display="inline" fill="none" stroke="#7A7A7A" stroke-width="4" stroke-miterlimit="10" x1="675.947" y1="300.5" x2="675.947" y2="352"/>
	<g display="inline">
		<g>
			<path fill="#7A7A7A" d="M753.969,303.477v3.166H703v-3.166H753.969 M757.969,299.477H699v11.166h58.969V299.477L757.969,299.477z
				"/>
		</g>
	</g>
	<g display="inline">
		<path fill="#7A7A7A" d="M753.969,321.477v3.166H703v-3.166H753.969 M757.969,317.477H699v11.166h58.969V317.477L757.969,317.477z"
			/>
	</g>
	<g display="inline">
		<rect x="777" y="322.25" fill="#E0D7B3" width="153.5" height="6.359"/>
		<path fill="#7A7A7A" d="M928.5,324.25v2.359H779v-2.359H928.5 M932.5,320.25H775v10.359h157.5V320.25L932.5,320.25z"/>
	</g>
	<g display="inline">
		<rect x="777" y="335.82" fill="#E0D7B3" width="153.5" height="6.359"/>
		<path fill="#7A7A7A" d="M928.5,337.82v2.359H779v-2.359H928.5 M932.5,333.82H775v10.359h157.5V333.82L932.5,333.82z"/>
	</g>
	
		<line display="inline" fill="#E0D7B3" stroke="#7A7A7A" stroke-width="4" stroke-miterlimit="10" x1="54.896" y1="335.81" x2="154.424" y2="335.81"/>
	<polygon display="inline" fill="#BBB7A5" points="740.5,302.503 498,302.503 498,290.43 489.642,290.43 489.642,302.503 
		361.772,302.503 342.884,302.503 279.358,302.503 271,302.503 271,310.643 271,349.643 279.358,349.643 279.358,310.643 
		342.884,310.643 342.884,349.643 361.772,349.643 361.772,310.643 389.384,310.643 389.384,350.07 408.272,350.07 408.272,310.643 
		489.642,310.643 489.642,350.07 498,350.07 498,310.643 740.5,310.643 	"/>
</g>
<g id="city_2">
	<g>
		<rect x="784.857" y="267.711" fill="#F0EDDC" width="44.643" height="52.432"/>
		<g>
			<path fill="#DCD4C7" d="M828,269.211v49.432h-41.643v-49.432H828 M831,266.211h-47.643v55.432H831V266.211L831,266.211z"/>
		</g>
	</g>
	<g>
		<polygon fill="#F0EDDC" points="812.217,317.546 812.217,211.258 862.635,233.618 862.635,317.546 		"/>
		<g>
			<path fill="#DCD4C7" d="M813.717,213.564l47.418,21.029v81.452h-47.418V213.564 M810.717,208.952v110.094h53.418v-86.403
				L810.717,208.952L810.717,208.952z"/>
		</g>
	</g>
	<g>
		<rect x="838.926" y="268.891" fill="#F0EDDC" width="71.649" height="60.219"/>
		<g>
			<path fill="#DCD4C7" d="M909.075,270.391v57.219h-68.649v-57.219H909.075 M912.075,267.391h-74.649v63.219h74.649V267.391
				L912.075,267.391z"/>
		</g>
	</g>
	
		<line fill="#F0EDDC" stroke="#DCD4C7" stroke-width="3" stroke-miterlimit="10" x1="828.968" y1="219.143" x2="828.968" y2="310.477"/>
	
		<line fill="#F0EDDC" stroke="#DCD4C7" stroke-width="3" stroke-miterlimit="10" x1="848.514" y1="228.393" x2="848.514" y2="267.391"/>
	<line fill="#F0EDDC" stroke="#DCD4C7" stroke-width="3" stroke-miterlimit="10" x1="788.25" y1="279.81" x2="813.5" y2="279.81"/>
	<line fill="#F0EDDC" stroke="#DCD4C7" stroke-width="3" stroke-miterlimit="10" x1="788.25" y1="288.81" x2="813.5" y2="288.81"/>
	<line fill="#F0EDDC" stroke="#DCD4C7" stroke-width="3" stroke-miterlimit="10" x1="788.25" y1="297.81" x2="813.5" y2="297.81"/>
	<g>
		<rect x="93.153" y="286.021" fill="#F0EDDC" width="98.499" height="64.955"/>
		<g>
			<path fill="#DCD4C7" d="M190.152,287.521v61.955H94.653v-61.955H190.152 M193.152,284.521H91.653v67.955h101.499V284.521
				L193.152,284.521z"/>
		</g>
	</g>
	<line fill="#F0EDDC" stroke="#DCD4C7" stroke-width="3" stroke-miterlimit="10" x1="112.979" y1="251.725" x2="112.979" y2="288"/>
	<g>
		<rect x="103.5" y="296.5" fill="#F0EDDC" width="7" height="8"/>
		<path fill="#DCD4C7" d="M109,298v5h-4v-5H109 M112,295h-10v11h10V295L112,295z"/>
	</g>
	<g>
		<rect x="117.833" y="296.5" fill="#F0EDDC" width="6.334" height="7.971"/>
		<path fill="#DCD4C7" d="M122.667,298v4.971h-3.334V298H122.667 M125.667,295h-9.334v10.971h9.334V295L125.667,295z"/>
	</g>
	<g>
		<rect x="130.833" y="296.5" fill="#F0EDDC" width="6.334" height="7.971"/>
		<path fill="#DCD4C7" d="M135.667,298v4.971h-3.334V298H135.667 M138.667,295h-9.334v10.971h9.334V295L138.667,295z"/>
	</g>
	<g>
		<rect x="102.833" y="314.514" fill="#F0EDDC" width="6.334" height="7.971"/>
		<g>
			<path fill="#DCD4C7" d="M107.667,316.014v4.971h-3.334v-4.971H107.667 M110.667,313.014h-9.334v10.971h9.334V313.014
				L110.667,313.014z"/>
		</g>
	</g>
	<g>
		<rect x="117.833" y="314.514" fill="#F0EDDC" width="6.334" height="7.971"/>
		<path fill="#DCD4C7" d="M122.667,316.014v4.971h-3.334v-4.971H122.667 M125.667,313.014h-9.334v10.971h9.334V313.014
			L125.667,313.014z"/>
	</g>
	<g>
		<rect x="130.833" y="314.514" fill="#F0EDDC" width="6.334" height="7.971"/>
		<path fill="#DCD4C7" d="M135.667,316.014v4.971h-3.334v-4.971H135.667 M138.667,313.014h-9.334v10.971h9.334V313.014
			L138.667,313.014z"/>
	</g>
	
		<rect x="273.585" y="238.643" fill="#F0EDDC" stroke="#DCD4C7" stroke-width="3" stroke-miterlimit="10" width="453.481" height="127.582"/>
	<g>
		<rect x="760.469" y="212.602" fill="#F0EDDC" width="28.423" height="152.123"/>
		<g>
			<path fill="#DCD4C7" d="M787.392,214.102v149.123h-25.423V214.102H787.392 M790.392,211.102h-31.423v155.123h31.423V211.102
				L790.392,211.102z"/>
		</g>
	</g>
	<g>
		<rect x="763" y="227.143" fill="#F0EDDC" width="18.857" height="11.152"/>
		<path fill="#DCD4C7" d="M780.357,228.643v8.152H764.5v-8.152H780.357 M783.357,225.643H761.5v14.152h21.857V225.643
			L783.357,225.643z"/>
	</g>
	<g>
		<rect x="763" y="246.143" fill="#F0EDDC" width="18.857" height="11.152"/>
		<path fill="#DCD4C7" d="M780.357,247.643v8.152H764.5v-8.152H780.357 M783.357,244.643H761.5v14.152h21.857V244.643
			L783.357,244.643z"/>
	</g>
	<g>
		<rect x="763" y="265.143" fill="#F0EDDC" width="18.857" height="11.152"/>
		<path fill="#DCD4C7" d="M780.357,266.643v8.152H764.5v-8.152H780.357 M783.357,263.643H761.5v14.152h21.857V263.643
			L783.357,263.643z"/>
	</g>
	<g>
		<rect x="763" y="284.143" fill="#F0EDDC" width="18.857" height="11.152"/>
		<path fill="#DCD4C7" d="M780.357,285.643v8.152H764.5v-8.152H780.357 M783.357,282.643H761.5v14.152h21.857V282.643
			L783.357,282.643z"/>
	</g>
	<g>
		<rect x="220.12" y="87.46" fill="#F0EDDC" width="51.965" height="182.736"/>
		<g>
			<path fill="#DCD4C7" d="M270.585,88.96v179.736H221.62V88.96H270.585 M273.585,85.96H218.62v185.736h54.965V85.96L273.585,85.96z
				"/>
		</g>
	</g>
	<g>
		<rect x="140.469" y="262.575" fill="#F0EDDC" width="59.771" height="89.925"/>
		<g>
			<path fill="#DCD4C7" d="M198.739,264.075V351h-56.771v-86.925H198.739 M201.739,261.075h-62.771V354h62.771V261.075
				L201.739,261.075z"/>
		</g>
	</g>
	<g>
		<rect x="56.396" y="321.984" fill="#F0EDDC" width="98.5" height="30.516"/>
		<g>
			<path fill="#DCD4C7" d="M153.396,323.484V351h-95.5v-27.516H153.396 M156.396,320.484h-101.5V354h101.5V320.484L156.396,320.484z
				"/>
		</g>
	</g>
	<g>
		<rect x="189.5" y="227.31" fill="#F0EDDC" width="106.93" height="125.19"/>
		<g>
			<path fill="#DCD4C7" d="M294.93,228.81V351H191V228.81H294.93 M297.93,225.81H188V354h109.93V225.81L297.93,225.81z"/>
		</g>
	</g>
	<g>
		<rect x="482.34" y="64.826" fill="#F0EDDC" width="50.313" height="299.899"/>
		<g>
			<path fill="#DCD4C7" d="M531.153,66.326v296.899H483.84V66.326H531.153 M534.153,63.326H480.84v302.899h53.313V63.326
				L534.153,63.326z"/>
		</g>
	</g>
	<g>
		<rect x="778.469" y="308.503" fill="#F0EDDC" width="175.031" height="60.22"/>
		<g>
			<path fill="#DCD4C7" d="M952,310.003v57.22H779.969v-57.22H952 M955,307.003H776.969v63.22H955V307.003L955,307.003z"/>
		</g>
	</g>
	<g>
		<rect x="691.241" y="161.459" fill="#F0EDDC" width="71.649" height="194.393"/>
		<g>
			<path fill="#DCD4C7" d="M761.391,162.959v191.393h-68.649V162.959H761.391 M764.391,159.959h-74.649v197.393h74.649V159.959
				L764.391,159.959z"/>
		</g>
	</g>
	<g>
		<polygon fill="#F0EDDC" points="386.021,374.318 363.272,374.318 363.272,82.759 387.668,58.364 411.95,82.88 410.552,374.437 		
			"/>
		<g>
			<path fill="#DCD4C7" d="M387.663,60.49l22.785,23.004l-1.388,289.435l-23.046-0.11h-21.241V83.38L387.663,60.49 M387.673,56.237
				l-25.9,25.9v293.681h24.241l26.031,0.125l1.408-293.677L387.673,56.237L387.673,56.237z"/>
		</g>
	</g>
	<line fill="#F0EDDC" stroke="#DCD4C7" stroke-width="3" stroke-miterlimit="10" x1="568.141" y1="67.32" x2="568.141" y2="91"/>
	<g>
		<rect x="610.31" y="79.472" fill="#F0EDDC" width="23.657" height="299.899"/>
		<g>
			<path fill="#DCD4C7" d="M632.467,80.972v296.899H611.81V80.972H632.467 M635.467,77.972H608.81v302.899h26.657V77.972
				L635.467,77.972z"/>
		</g>
	</g>
	<line fill="#F0EDDC" stroke="#DCD4C7" stroke-width="3" stroke-miterlimit="10" x1="141.333" y1="272.977" x2="191" y2="272.977"/>
	<line fill="#F0EDDC" stroke="#DCD4C7" stroke-width="3" stroke-miterlimit="10" x1="141.333" y1="282.977" x2="191" y2="282.977"/>
	<line fill="#F0EDDC" stroke="#DCD4C7" stroke-width="3" stroke-miterlimit="10" x1="141.333" y1="292.977" x2="191" y2="292.977"/>
	<line fill="#F0EDDC" stroke="#DCD4C7" stroke-width="3" stroke-miterlimit="10" x1="141.333" y1="302.977" x2="191" y2="302.977"/>
	
		<line fill="#F0EDDC" stroke="#DCD4C7" stroke-width="3" stroke-miterlimit="10" x1="140.5" y1="313.014" x2="190.167" y2="313.014"/>
	<line fill="#F0EDDC" stroke="#DCD4C7" stroke-width="3" stroke-miterlimit="10" x1="154.424" y1="323.014" x2="191" y2="323.014"/>
	<line fill="#F0EDDC" stroke="#DCD4C7" stroke-width="3" stroke-miterlimit="10" x1="155.027" y1="332.439" x2="191" y2="332.439"/>
	
		<line fill="#F0EDDC" stroke="#DCD4C7" stroke-width="3" stroke-miterlimit="10" x1="154.424" y1="342.477" x2="190.396" y2="342.477"/>
	<line fill="#F0EDDC" stroke="#DCD4C7" stroke-width="3" stroke-miterlimit="10" x1="155.027" y1="352.477" x2="191" y2="352.477"/>
	<g>
		<g>
			<rect x="227.5" y="96.5" fill="#F0EDDC" width="38" height="7"/>
			<path fill="#DCD4C7" d="M264,98v4h-35v-4H264 M267,95h-41v10h41V95L267,95z"/>
		</g>
		<g>
			<rect x="227.5" y="111.011" fill="#F0EDDC" width="38" height="7"/>
			<path fill="#DCD4C7" d="M264,112.511v4h-35v-4H264 M267,109.511h-41v10h41V109.511L267,109.511z"/>
		</g>
		<g>
			<rect x="227.5" y="125.522" fill="#F0EDDC" width="38" height="7"/>
			<path fill="#DCD4C7" d="M264,127.022v4h-35v-4H264 M267,124.022h-41v10h41V124.022L267,124.022z"/>
		</g>
		<g>
			<rect x="227.5" y="140.034" fill="#F0EDDC" width="38" height="7"/>
			<path fill="#DCD4C7" d="M264,141.534v4h-35v-4H264 M267,138.534h-41v10h41V138.534L267,138.534z"/>
		</g>
		<g>
			<rect x="227.5" y="154.545" fill="#F0EDDC" width="38" height="7"/>
			<path fill="#DCD4C7" d="M264,156.045v4h-35v-4H264 M267,153.045h-41v10h41V153.045L267,153.045z"/>
		</g>
		<g>
			<rect x="227.5" y="169.056" fill="#F0EDDC" width="38" height="7"/>
			<path fill="#DCD4C7" d="M264,170.556v4h-35v-4H264 M267,167.556h-41v10h41V167.556L267,167.556z"/>
		</g>
		<g>
			<rect x="227.5" y="183.567" fill="#F0EDDC" width="38" height="7"/>
			<path fill="#DCD4C7" d="M264,185.067v4h-35v-4H264 M267,182.067h-41v10h41V182.067L267,182.067z"/>
		</g>
		<g>
			<rect x="227.5" y="198.078" fill="#F0EDDC" width="38" height="7"/>
			<path fill="#DCD4C7" d="M264,199.578v4h-35v-4H264 M267,196.578h-41v10h41V196.578L267,196.578z"/>
		</g>
		<g>
			<rect x="227.5" y="212.59" fill="#F0EDDC" width="38" height="7"/>
			<path fill="#DCD4C7" d="M264,214.09v4h-35v-4H264 M267,211.09h-41v10h41V211.09L267,211.09z"/>
		</g>
	</g>
	<line fill="#F0EDDC" stroke="#DCD4C7" stroke-width="3" stroke-miterlimit="10" x1="833.333" y1="279.81" x2="918" y2="279.81"/>
	<line fill="#F0EDDC" stroke="#DCD4C7" stroke-width="3" stroke-miterlimit="10" x1="833.333" y1="289.81" x2="918" y2="289.81"/>
	<line fill="#F0EDDC" stroke="#DCD4C7" stroke-width="3" stroke-miterlimit="10" x1="833.333" y1="299.81" x2="918" y2="299.81"/>
	<g>
		<line fill="#F0EDDC" stroke="#DCD4C7" stroke-width="3" stroke-miterlimit="10" x1="364" y1="85.96" x2="410.5" y2="85.96"/>
		<line fill="#F0EDDC" stroke="#DCD4C7" stroke-width="3" stroke-miterlimit="10" x1="364" y1="98.128" x2="410.5" y2="98.128"/>
		<line fill="#F0EDDC" stroke="#DCD4C7" stroke-width="3" stroke-miterlimit="10" x1="364" y1="110.297" x2="410.5" y2="110.297"/>
		<line fill="#F0EDDC" stroke="#DCD4C7" stroke-width="3" stroke-miterlimit="10" x1="364" y1="122.465" x2="410.5" y2="122.465"/>
		<line fill="#F0EDDC" stroke="#DCD4C7" stroke-width="3" stroke-miterlimit="10" x1="364" y1="134.634" x2="410.5" y2="134.634"/>
		<line fill="#F0EDDC" stroke="#DCD4C7" stroke-width="3" stroke-miterlimit="10" x1="364" y1="146.803" x2="410.5" y2="146.803"/>
		<line fill="#F0EDDC" stroke="#DCD4C7" stroke-width="3" stroke-miterlimit="10" x1="364" y1="158.971" x2="410.5" y2="158.971"/>
		<line fill="#F0EDDC" stroke="#DCD4C7" stroke-width="3" stroke-miterlimit="10" x1="364" y1="171.14" x2="410.5" y2="171.14"/>
		<line fill="#F0EDDC" stroke="#DCD4C7" stroke-width="3" stroke-miterlimit="10" x1="364" y1="183.309" x2="410.5" y2="183.309"/>
		<line fill="#F0EDDC" stroke="#DCD4C7" stroke-width="3" stroke-miterlimit="10" x1="364" y1="195.477" x2="410.5" y2="195.477"/>
		<line fill="#F0EDDC" stroke="#DCD4C7" stroke-width="3" stroke-miterlimit="10" x1="364" y1="207.645" x2="410.5" y2="207.645"/>
		<line fill="#F0EDDC" stroke="#DCD4C7" stroke-width="3" stroke-miterlimit="10" x1="364" y1="219.813" x2="410.5" y2="219.813"/>
		<line fill="#F0EDDC" stroke="#DCD4C7" stroke-width="3" stroke-miterlimit="10" x1="364" y1="231.982" x2="410.5" y2="231.982"/>
		<line fill="#F0EDDC" stroke="#DCD4C7" stroke-width="3" stroke-miterlimit="10" x1="364" y1="244.15" x2="410.5" y2="244.15"/>
		<line fill="#F0EDDC" stroke="#DCD4C7" stroke-width="3" stroke-miterlimit="10" x1="364" y1="256.319" x2="410.5" y2="256.319"/>
		<line fill="#F0EDDC" stroke="#DCD4C7" stroke-width="3" stroke-miterlimit="10" x1="364" y1="268.487" x2="410.5" y2="268.487"/>
		<line fill="#F0EDDC" stroke="#DCD4C7" stroke-width="3" stroke-miterlimit="10" x1="364" y1="280.656" x2="410.5" y2="280.656"/>
		<line fill="#F0EDDC" stroke="#DCD4C7" stroke-width="3" stroke-miterlimit="10" x1="364" y1="292.825" x2="410.5" y2="292.825"/>
		<line fill="#F0EDDC" stroke="#DCD4C7" stroke-width="3" stroke-miterlimit="10" x1="364" y1="304.993" x2="410.5" y2="304.993"/>
		<line fill="#F0EDDC" stroke="#DCD4C7" stroke-width="3" stroke-miterlimit="10" x1="364" y1="317.162" x2="410.5" y2="317.162"/>
		<line fill="#F0EDDC" stroke="#DCD4C7" stroke-width="3" stroke-miterlimit="10" x1="364" y1="329.33" x2="410.5" y2="329.33"/>
		<line fill="#F0EDDC" stroke="#DCD4C7" stroke-width="3" stroke-miterlimit="10" x1="364" y1="341.499" x2="410.5" y2="341.499"/>
	</g>
	<g>
		<g>
			<g>
				<rect x="206" y="240.143" fill="#F0EDDC" width="8.5" height="16.5"/>
				<path fill="#DCD4C7" d="M213,241.643v13.5h-5.5v-13.5H213 M216,238.643h-11.5v19.5H216V238.643L216,238.643z"/>
			</g>
			
				<line fill="#F0EDDC" stroke="#DCD4C7" stroke-width="3" stroke-miterlimit="10" x1="201.739" y1="250.725" x2="219.333" y2="250.725"/>
		</g>
		<g>
			<g>
				<rect x="229.464" y="240.143" fill="#F0EDDC" width="8.5" height="16.5"/>
				<path fill="#DCD4C7" d="M236.464,241.643v13.5h-5.5v-13.5H236.464 M239.464,238.643h-11.5v19.5h11.5V238.643L239.464,238.643z"
					/>
			</g>
			
				<line fill="#F0EDDC" stroke="#DCD4C7" stroke-width="3" stroke-miterlimit="10" x1="225.203" y1="250.725" x2="242.797" y2="250.725"/>
		</g>
		<g>
			<g>
				<rect x="251.229" y="240.143" fill="#F0EDDC" width="8.5" height="16.5"/>
				<path fill="#DCD4C7" d="M258.229,241.643v13.5h-5.5v-13.5H258.229 M261.229,238.643h-11.5v19.5h11.5V238.643L261.229,238.643z"
					/>
			</g>
			
				<line fill="#F0EDDC" stroke="#DCD4C7" stroke-width="3" stroke-miterlimit="10" x1="246.969" y1="250.725" x2="264.563" y2="250.725"/>
		</g>
		<g>
			<g>
				<rect x="206" y="271.362" fill="#F0EDDC" width="8.5" height="16.5"/>
				<path fill="#DCD4C7" d="M213,272.862v13.5h-5.5v-13.5H213 M216,269.862h-11.5v19.5H216V269.862L216,269.862z"/>
			</g>
			
				<line fill="#F0EDDC" stroke="#DCD4C7" stroke-width="3" stroke-miterlimit="10" x1="201.739" y1="281.944" x2="219.333" y2="281.944"/>
		</g>
		<g>
			<g>
				<rect x="229.464" y="271.362" fill="#F0EDDC" width="8.5" height="16.5"/>
				<path fill="#DCD4C7" d="M236.464,272.862v13.5h-5.5v-13.5H236.464 M239.464,269.862h-11.5v19.5h11.5V269.862L239.464,269.862z"
					/>
			</g>
			
				<line fill="#F0EDDC" stroke="#DCD4C7" stroke-width="3" stroke-miterlimit="10" x1="225.203" y1="281.944" x2="242.797" y2="281.944"/>
		</g>
		<g>
			<g>
				<rect x="251.229" y="271.362" fill="#F0EDDC" width="8.5" height="16.5"/>
				<path fill="#DCD4C7" d="M258.229,272.862v13.5h-5.5v-13.5H258.229 M261.229,269.862h-11.5v19.5h11.5V269.862L261.229,269.862z"
					/>
			</g>
			
				<line fill="#F0EDDC" stroke="#DCD4C7" stroke-width="3" stroke-miterlimit="10" x1="246.969" y1="281.944" x2="264.563" y2="281.944"/>
		</g>
		<g>
			<g>
				<rect x="206" y="299.287" fill="#F0EDDC" width="8.5" height="16.5"/>
				<path fill="#DCD4C7" d="M213,300.787v13.5h-5.5v-13.5H213 M216,297.787h-11.5v19.5H216V297.787L216,297.787z"/>
			</g>
			
				<line fill="#F0EDDC" stroke="#DCD4C7" stroke-width="3" stroke-miterlimit="10" x1="201.739" y1="309.869" x2="219.333" y2="309.869"/>
		</g>
		<g>
			<g>
				<rect x="229.464" y="299.287" fill="#F0EDDC" width="8.5" height="16.5"/>
				<path fill="#DCD4C7" d="M236.464,300.787v13.5h-5.5v-13.5H236.464 M239.464,297.787h-11.5v19.5h11.5V297.787L239.464,297.787z"
					/>
			</g>
			
				<line fill="#F0EDDC" stroke="#DCD4C7" stroke-width="3" stroke-miterlimit="10" x1="225.203" y1="309.869" x2="242.797" y2="309.869"/>
		</g>
		<g>
			<g>
				<rect x="251.229" y="299.287" fill="#F0EDDC" width="8.5" height="16.5"/>
				<path fill="#DCD4C7" d="M258.229,300.787v13.5h-5.5v-13.5H258.229 M261.229,297.787h-11.5v19.5h11.5V297.787L261.229,297.787z"
					/>
			</g>
			
				<line fill="#F0EDDC" stroke="#DCD4C7" stroke-width="3" stroke-miterlimit="10" x1="246.969" y1="309.869" x2="264.563" y2="309.869"/>
		</g>
		<g>
			<g>
				<rect x="206" y="327.56" fill="#F0EDDC" width="8.5" height="16.5"/>
				<path fill="#DCD4C7" d="M213,329.06v13.5h-5.5v-13.5H213 M216,326.06h-11.5v19.5H216V326.06L216,326.06z"/>
			</g>
			
				<line fill="#F0EDDC" stroke="#DCD4C7" stroke-width="3" stroke-miterlimit="10" x1="201.739" y1="338.142" x2="219.333" y2="338.142"/>
		</g>
		<g>
			<g>
				<rect x="229.464" y="327.56" fill="#F0EDDC" width="8.5" height="16.5"/>
				<path fill="#DCD4C7" d="M236.464,329.06v13.5h-5.5v-13.5H236.464 M239.464,326.06h-11.5v19.5h11.5V326.06L239.464,326.06z"/>
			</g>
			
				<line fill="#F0EDDC" stroke="#DCD4C7" stroke-width="3" stroke-miterlimit="10" x1="225.203" y1="338.142" x2="242.797" y2="338.142"/>
		</g>
		<g>
			<g>
				<rect x="251.229" y="327.56" fill="#F0EDDC" width="8.5" height="16.5"/>
				<path fill="#DCD4C7" d="M258.229,329.06v13.5h-5.5v-13.5H258.229 M261.229,326.06h-11.5v19.5h11.5V326.06L261.229,326.06z"/>
			</g>
			
				<line fill="#F0EDDC" stroke="#DCD4C7" stroke-width="3" stroke-miterlimit="10" x1="246.969" y1="338.142" x2="264.563" y2="338.142"/>
		</g>
	</g>
	
		<line fill="#F0EDDC" stroke="#DCD4C7" stroke-width="3" stroke-miterlimit="10" x1="297.93" y1="307.003" x2="361.772" y2="307.003"/>
	
		<line fill="#F0EDDC" stroke="#DCD4C7" stroke-width="3" stroke-miterlimit="10" x1="297.93" y1="318.003" x2="361.772" y2="318.003"/>
	
		<line fill="#F0EDDC" stroke="#DCD4C7" stroke-width="3" stroke-miterlimit="10" x1="297.93" y1="329.003" x2="361.772" y2="329.003"/>
	<g>
		<g>
			<rect x="426.043" y="309.037" fill="#F0EDDC" width="8.5" height="16.501"/>
			<path fill="#DCD4C7" d="M433.043,310.537v13.501h-5.5v-13.501H433.043 M436.043,307.537h-11.5v19.501h11.5V307.537
				L436.043,307.537z"/>
		</g>
		
			<line fill="#F0EDDC" stroke="#DCD4C7" stroke-width="3" stroke-miterlimit="10" x1="421.782" y1="319.619" x2="439.376" y2="319.619"/>
	</g>
	<g>
		<g>
			<rect x="457.687" y="309.037" fill="#F0EDDC" width="8.5" height="16.501"/>
			<path fill="#DCD4C7" d="M464.687,310.537v13.501h-5.5v-13.501H464.687 M467.687,307.537h-11.5v19.501h11.5V307.537
				L467.687,307.537z"/>
		</g>
		
			<line fill="#F0EDDC" stroke="#DCD4C7" stroke-width="3" stroke-miterlimit="10" x1="453.426" y1="319.619" x2="471.02" y2="319.619"/>
	</g>
	<g>
		<rect x="540.132" y="309.037" fill="#F0EDDC" width="63.53" height="9.463"/>
		<path fill="#DCD4C7" d="M602.162,310.537V317h-60.53v-6.463H602.162 M605.162,307.537h-3h-60.53h-3v3V317v3h3h60.53h3v-3v-6.463
			V307.537L605.162,307.537z"/>
	</g>
	<g>
		<rect x="540.132" y="331.038" fill="#F0EDDC" width="63.53" height="9.462"/>
		<path fill="#DCD4C7" d="M602.162,332.538V339h-60.53v-6.462H602.162 M605.162,329.538h-3h-60.53h-3v3V339v3h3h60.53h3v-3v-6.462
			V329.538L605.162,329.538z"/>
	</g>
	<line fill="#F0EDDC" stroke="#DCD4C7" stroke-width="3" stroke-miterlimit="10" x1="645.5" y1="300.5" x2="645.5" y2="352"/>
	<line fill="#F0EDDC" stroke="#DCD4C7" stroke-width="3" stroke-miterlimit="10" x1="661" y1="300.5" x2="661" y2="352"/>
	<line fill="#F0EDDC" stroke="#DCD4C7" stroke-width="3" stroke-miterlimit="10" x1="675.947" y1="300.5" x2="675.947" y2="352"/>
	<g>
		<rect x="700.5" y="300.977" fill="#F0EDDC" width="55.969" height="8.166"/>
		<g>
			<path fill="#DCD4C7" d="M754.969,302.477v5.166H702v-5.166H754.969 M757.969,299.477H699v11.166h58.969V299.477L757.969,299.477z
				"/>
		</g>
	</g>
	<g>
		<rect x="700.5" y="318.977" fill="#F0EDDC" width="55.969" height="8.166"/>
		<path fill="#DCD4C7" d="M754.969,320.477v5.166H702v-5.166H754.969 M757.969,317.477H699v11.166h58.969V317.477L757.969,317.477z"
			/>
	</g>
	<g>
		<rect x="787.5" y="321.75" fill="#F0EDDC" width="154.5" height="7.359"/>
		<path fill="#DCD4C7" d="M940.5,323.25v4.359H789v-4.359H940.5 M943.5,320.25H786v10.359h157.5V320.25L943.5,320.25z"/>
	</g>
	<g>
		<rect x="787.5" y="335.32" fill="#F0EDDC" width="154.5" height="7.359"/>
		<path fill="#DCD4C7" d="M940.5,336.82v4.359H789v-4.359H940.5 M943.5,333.82H786v10.359h157.5V333.82L943.5,333.82z"/>
	</g>
	
		<line fill="#F0EDDC" stroke="#DCD4C7" stroke-width="3" stroke-miterlimit="10" x1="54.896" y1="335.81" x2="154.424" y2="335.81"/>
</g>
<g id="shadows" display="none">
	<polygon display="inline" fill="#F0EDDC" stroke="#817E75" stroke-miterlimit="10" points="129,284.521 148,284.521 148,320.484 
		123.038,320.484 	"/>
	<polygon display="inline" fill="#F0EDDC" stroke="#817E75" stroke-miterlimit="10" points="188,354 168.856,354 173.791,261.075 
		188,261.075 	"/>
	
		<rect x="222.65" y="216.09" display="inline" fill="#F0EDDC" stroke="#817E75" stroke-miterlimit="10" width="41.35" height="9.72"/>
	<polygon display="inline" fill="#F0EDDC" stroke="#817E75" stroke-miterlimit="10" points="740.5,302.503 498,302.503 498,290.43 
		489.642,290.43 489.642,302.503 361.772,302.503 342.884,302.503 279.358,302.503 271,302.503 271,310.643 271,349.643 
		279.358,349.643 279.358,310.643 342.884,310.643 342.884,349.643 361.772,349.643 361.772,310.643 389.384,310.643 
		389.384,350.07 408.272,350.07 408.272,310.643 489.642,310.643 489.642,350.07 498,350.07 498,310.643 740.5,310.643 	"/>
	<polygon display="inline" fill="#F0EDDC" stroke="#817E75" stroke-miterlimit="10" points="859.167,267.391 836.426,267.391 
		836.426,307.003 817.833,307.003 830,262.31 859.167,262.31 	"/>
	
		<rect x="804" y="269.977" display="inline" fill="#F0EDDC" stroke="#817E75" stroke-miterlimit="10" width="5.717" height="37.026"/>
	
		<rect x="840.483" y="302.144" display="inline" fill="#F0EDDC" stroke="#817E75" stroke-miterlimit="10" width="66.517" height="4.859"/>
</g>
<g id="board">
	<g>
		<rect x="726.021" y="302.869" fill="#D3D0BB" width="11" height="52.721"/>
		<path fill="#615F59" d="M735.521,304.369v49.721h-8v-49.721H735.521 M738.521,301.369h-14v55.721h14V301.369L738.521,301.369z"/>
	</g>
	<g>
		<rect x="261" y="302.887" fill="#D3D0BB" width="11" height="52.703"/>
		<path fill="#615F59" d="M270.5,304.387v49.703h-8v-49.703H270.5 M273.5,301.387h-14v55.703h14V301.387L273.5,301.387z"/>
	</g>
	<g>
		<rect x="251.543" y="93.589" fill="#D3D0BB" width="495.957" height="209.28"/>
		<path fill="#615F59" d="M746,95.089v206.28H253.043V95.089H746 M749,92.089H250.043v212.28H749V92.089L749,92.089z"/>
	</g>
	<g>
		<rect x="260.021" y="101.729" fill="#FAF7EE" width="479" height="193"/>
		<path fill="#615F59" d="M737.521,103.229v190h-476v-190H737.521 M740.521,100.229h-482v196h482V100.229L740.521,100.229z"/>
	</g>
	<g>
		<rect x="494" y="302.869" fill="#D3D0BB" width="11" height="52.721"/>
		<path fill="#615F59" d="M503.5,304.369v49.721h-8v-49.721H503.5 M506.5,301.369h-14v55.721h14V301.369L506.5,301.369z"/>
	</g>
	<g>
		<g>
			<g>
				<path fill="#D3D0BB" d="M287.018,120.856v-3.5c0-1.93,1.57-3.5,3.5-3.5h31.269c1.93,0,3.5,1.57,3.5,3.5v3.5H287.018z"/>
				<path fill="#615F59" d="M321.786,115.356c1.103,0,2,0.897,2,2v2h-35.269v-2c0-1.103,0.897-2,2-2H321.786 M321.786,112.356
					h-31.269c-2.762,0-5,2.238-5,5v5h41.269v-5C326.786,114.594,324.548,112.356,321.786,112.356L321.786,112.356z"/>
			</g>
			<path fill="#D3D0BB" stroke="#615F59" stroke-width="3" stroke-miterlimit="10" d="M312.577,113.726h-13.122l0,0
				c0-1.599,1.296-2.896,2.896-2.896h7.331C311.28,110.83,312.577,112.127,312.577,113.726L312.577,113.726z"/>
			
				<line fill="#D3D0BB" stroke="#615F59" stroke-width="3" stroke-miterlimit="10" x1="306.016" y1="112.278" x2="306.016" y2="92.911"/>
			<rect x="289.464" y="117.356" fill="#D3D0BB" width="33.375" height="0.939"/>
		</g>
		<g>
			<g>
				<path fill="#D3D0BB" d="M480.387,120.856v-3.5c0-1.93,1.57-3.5,3.5-3.5h31.269c1.93,0,3.5,1.57,3.5,3.5v3.5H480.387z"/>
				<path fill="#615F59" d="M515.155,115.356c1.103,0,2,0.897,2,2v2h-35.269v-2c0-1.103,0.897-2,2-2H515.155 M515.155,112.356
					h-31.269c-2.762,0-5,2.238-5,5v5h41.269v-5C520.155,114.594,517.917,112.356,515.155,112.356L515.155,112.356z"/>
			</g>
			<path fill="#D3D0BB" stroke="#615F59" stroke-width="3" stroke-miterlimit="10" d="M505.946,113.726h-13.122l0,0
				c0-1.599,1.296-2.896,2.896-2.896h7.331C504.65,110.83,505.946,112.127,505.946,113.726L505.946,113.726z"/>
			
				<line fill="#D3D0BB" stroke="#615F59" stroke-width="3" stroke-miterlimit="10" x1="499.385" y1="112.278" x2="499.385" y2="92.911"/>
			<rect x="482.834" y="117.356" fill="#D3D0BB" width="33.375" height="0.938"/>
		</g>
		<g>
			<g>
				<path fill="#D3D0BB" d="M673.756,120.856v-3.5c0-1.93,1.57-3.5,3.5-3.5h31.269c1.93,0,3.5,1.57,3.5,3.5v3.5H673.756z"/>
				<path fill="#615F59" d="M708.524,115.356c1.103,0,2,0.897,2,2v2h-35.269v-2c0-1.103,0.897-2,2-2H708.524 M708.524,112.356
					h-31.269c-2.762,0-5,2.238-5,5v5h41.269v-5C713.524,114.594,711.286,112.356,708.524,112.356L708.524,112.356z"/>
			</g>
			<path fill="#D3D0BB" stroke="#615F59" stroke-width="3" stroke-miterlimit="10" d="M699.316,113.726h-13.123l0,0
				c0-1.599,1.297-2.896,2.896-2.896h7.331C698.02,110.83,699.316,112.127,699.316,113.726L699.316,113.726z"/>
			
				<line fill="#D3D0BB" stroke="#615F59" stroke-width="3" stroke-miterlimit="10" x1="692.755" y1="112.278" x2="692.755" y2="92.911"/>
			<rect x="676.203" y="117.356" fill="#D3D0BB" width="33.375" height="0.938"/>
		</g>
	</g>
</g>
<g id="barrier" display="none">
	<g display="inline">
		<line fill="#F0EDDC" stroke="#615F59" stroke-width="3" stroke-miterlimit="10" x1="230.5" y1="302.59" x2="769.5" y2="302.59"/>
		<line fill="#F0EDDC" stroke="#615F59" stroke-width="3" stroke-miterlimit="10" x1="230.5" y1="277.59" x2="769.5" y2="277.59"/>
		<g>
			<line fill="#F0EDDC" stroke="#615F59" stroke-width="3" stroke-miterlimit="10" x1="241.5" y1="277.59" x2="241.5" y2="302.59"/>
			
				<line fill="#F0EDDC" stroke="#615F59" stroke-width="3" stroke-miterlimit="10" x1="268.763" y1="277.59" x2="268.763" y2="302.59"/>
			
				<line fill="#F0EDDC" stroke="#615F59" stroke-width="3" stroke-miterlimit="10" x1="296.026" y1="277.59" x2="296.026" y2="302.59"/>
			
				<line fill="#F0EDDC" stroke="#615F59" stroke-width="3" stroke-miterlimit="10" x1="323.29" y1="277.59" x2="323.29" y2="302.59"/>
			
				<line fill="#F0EDDC" stroke="#615F59" stroke-width="3" stroke-miterlimit="10" x1="350.553" y1="277.59" x2="350.553" y2="302.59"/>
			
				<line fill="#F0EDDC" stroke="#615F59" stroke-width="3" stroke-miterlimit="10" x1="377.815" y1="277.59" x2="377.815" y2="302.59"/>
			
				<line fill="#F0EDDC" stroke="#615F59" stroke-width="3" stroke-miterlimit="10" x1="405.079" y1="277.59" x2="405.079" y2="302.59"/>
			
				<line fill="#F0EDDC" stroke="#615F59" stroke-width="3" stroke-miterlimit="10" x1="432.343" y1="277.59" x2="432.343" y2="302.59"/>
			
				<line fill="#F0EDDC" stroke="#615F59" stroke-width="3" stroke-miterlimit="10" x1="459.605" y1="277.59" x2="459.605" y2="302.59"/>
			
				<line fill="#F0EDDC" stroke="#615F59" stroke-width="3" stroke-miterlimit="10" x1="486.868" y1="277.59" x2="486.868" y2="302.59"/>
			
				<line fill="#F0EDDC" stroke="#615F59" stroke-width="3" stroke-miterlimit="10" x1="514.132" y1="277.59" x2="514.132" y2="302.59"/>
			
				<line fill="#F0EDDC" stroke="#615F59" stroke-width="3" stroke-miterlimit="10" x1="541.395" y1="277.59" x2="541.395" y2="302.59"/>
			
				<line fill="#F0EDDC" stroke="#615F59" stroke-width="3" stroke-miterlimit="10" x1="568.658" y1="277.59" x2="568.658" y2="302.59"/>
			
				<line fill="#F0EDDC" stroke="#615F59" stroke-width="3" stroke-miterlimit="10" x1="595.922" y1="277.59" x2="595.922" y2="302.59"/>
			
				<line fill="#F0EDDC" stroke="#615F59" stroke-width="3" stroke-miterlimit="10" x1="623.184" y1="277.59" x2="623.184" y2="302.59"/>
			
				<line fill="#F0EDDC" stroke="#615F59" stroke-width="3" stroke-miterlimit="10" x1="650.447" y1="277.59" x2="650.447" y2="302.59"/>
			
				<line fill="#F0EDDC" stroke="#615F59" stroke-width="3" stroke-miterlimit="10" x1="677.711" y1="277.59" x2="677.711" y2="302.59"/>
			
				<line fill="#F0EDDC" stroke="#615F59" stroke-width="3" stroke-miterlimit="10" x1="704.974" y1="277.59" x2="704.974" y2="302.59"/>
			
				<line fill="#F0EDDC" stroke="#615F59" stroke-width="3" stroke-miterlimit="10" x1="732.236" y1="277.59" x2="732.236" y2="302.59"/>
			<line fill="#F0EDDC" stroke="#615F59" stroke-width="3" stroke-miterlimit="10" x1="759.5" y1="277.59" x2="759.5" y2="302.59"/>
		</g>
	</g>
</g>
<g id="barrier_copy">
	<g>
		<g>
			<line fill="#F0EDDC" x1="230.5" y1="302.869" x2="769.5" y2="302.869"/>
			<rect x="230.5" y="301.369" fill="#615F59" width="539" height="3"/>
		</g>
		<g>
			<line fill="#F0EDDC" x1="230.5" y1="277.869" x2="769.5" y2="277.869"/>
			<rect x="230.5" y="276.369" fill="#615F59" width="539" height="3"/>
		</g>
		<g>
			
				<line fill="#F0EDDC" stroke="#615F59" stroke-width="3" stroke-miterlimit="10" x1="241.5" y1="277.869" x2="241.5" y2="302.869"/>
			
				<line fill="#F0EDDC" stroke="#615F59" stroke-width="3" stroke-miterlimit="10" x1="268.763" y1="277.869" x2="268.763" y2="302.869"/>
			
				<line fill="#F0EDDC" stroke="#615F59" stroke-width="3" stroke-miterlimit="10" x1="296.026" y1="277.869" x2="296.026" y2="302.869"/>
			
				<line fill="#F0EDDC" stroke="#615F59" stroke-width="3" stroke-miterlimit="10" x1="323.29" y1="277.869" x2="323.29" y2="302.869"/>
			
				<line fill="#F0EDDC" stroke="#615F59" stroke-width="3" stroke-miterlimit="10" x1="350.553" y1="277.869" x2="350.553" y2="302.869"/>
			
				<line fill="#F0EDDC" stroke="#615F59" stroke-width="3" stroke-miterlimit="10" x1="377.815" y1="277.869" x2="377.815" y2="302.869"/>
			
				<line fill="#F0EDDC" stroke="#615F59" stroke-width="3" stroke-miterlimit="10" x1="405.079" y1="277.869" x2="405.079" y2="302.869"/>
			
				<line fill="#F0EDDC" stroke="#615F59" stroke-width="3" stroke-miterlimit="10" x1="432.343" y1="277.869" x2="432.343" y2="302.869"/>
			
				<line fill="#F0EDDC" stroke="#615F59" stroke-width="3" stroke-miterlimit="10" x1="459.605" y1="277.869" x2="459.605" y2="302.869"/>
			
				<line fill="#F0EDDC" stroke="#615F59" stroke-width="3" stroke-miterlimit="10" x1="486.868" y1="277.869" x2="486.868" y2="302.869"/>
			
				<line fill="#F0EDDC" stroke="#615F59" stroke-width="3" stroke-miterlimit="10" x1="514.132" y1="277.869" x2="514.132" y2="302.869"/>
			
				<line fill="#F0EDDC" stroke="#615F59" stroke-width="3" stroke-miterlimit="10" x1="541.395" y1="277.869" x2="541.395" y2="302.869"/>
			
				<line fill="#F0EDDC" stroke="#615F59" stroke-width="3" stroke-miterlimit="10" x1="568.658" y1="277.869" x2="568.658" y2="302.869"/>
			
				<line fill="#F0EDDC" stroke="#615F59" stroke-width="3" stroke-miterlimit="10" x1="595.922" y1="277.869" x2="595.922" y2="302.869"/>
			
				<line fill="#F0EDDC" stroke="#615F59" stroke-width="3" stroke-miterlimit="10" x1="623.184" y1="277.869" x2="623.184" y2="302.869"/>
			
				<line fill="#F0EDDC" stroke="#615F59" stroke-width="3" stroke-miterlimit="10" x1="650.447" y1="277.869" x2="650.447" y2="302.869"/>
			
				<line fill="#F0EDDC" stroke="#615F59" stroke-width="3" stroke-miterlimit="10" x1="677.711" y1="277.869" x2="677.711" y2="302.869"/>
			
				<line fill="#F0EDDC" stroke="#615F59" stroke-width="3" stroke-miterlimit="10" x1="704.974" y1="277.869" x2="704.974" y2="302.869"/>
			
				<line fill="#F0EDDC" stroke="#615F59" stroke-width="3" stroke-miterlimit="10" x1="732.236" y1="277.869" x2="732.236" y2="302.869"/>
			
				<line fill="#F0EDDC" stroke="#615F59" stroke-width="3" stroke-miterlimit="10" x1="759.5" y1="277.869" x2="759.5" y2="302.869"/>
		</g>
	</g>
</g>
<g id="board_shadows" display="none">
	<g display="inline">
		
			<line fill="#F0EDDC" stroke="#BBB7A5" stroke-width="3" stroke-miterlimit="10" x1="261.5" y1="279.922" x2="261.5" y2="301.311"/>
		
			<line fill="#F0EDDC" stroke="#BBB7A5" stroke-width="3" stroke-miterlimit="10" x1="288.764" y1="279.922" x2="288.764" y2="301.311"/>
		
			<line fill="#F0EDDC" stroke="#BBB7A5" stroke-width="3" stroke-miterlimit="10" x1="316.026" y1="279.922" x2="316.026" y2="301.311"/>
		
			<line fill="#F0EDDC" stroke="#BBB7A5" stroke-width="3" stroke-miterlimit="10" x1="343.289" y1="279.922" x2="343.289" y2="301.311"/>
		
			<line fill="#F0EDDC" stroke="#BBB7A5" stroke-width="3" stroke-miterlimit="10" x1="370.553" y1="279.922" x2="370.553" y2="301.311"/>
		
			<line fill="#F0EDDC" stroke="#BBB7A5" stroke-width="3" stroke-miterlimit="10" x1="397.815" y1="279.922" x2="397.815" y2="301.311"/>
		
			<line fill="#F0EDDC" stroke="#BBB7A5" stroke-width="3" stroke-miterlimit="10" x1="425.079" y1="279.922" x2="425.079" y2="301.311"/>
		
			<line fill="#F0EDDC" stroke="#BBB7A5" stroke-width="3" stroke-miterlimit="10" x1="452.342" y1="279.922" x2="452.342" y2="301.311"/>
		
			<line fill="#F0EDDC" stroke="#BBB7A5" stroke-width="3" stroke-miterlimit="10" x1="479.605" y1="279.922" x2="479.605" y2="301.311"/>
		
			<line fill="#F0EDDC" stroke="#BBB7A5" stroke-width="3" stroke-miterlimit="10" x1="506.868" y1="279.922" x2="506.868" y2="301.311"/>
		
			<line fill="#F0EDDC" stroke="#BBB7A5" stroke-width="3" stroke-miterlimit="10" x1="534.132" y1="279.922" x2="534.132" y2="301.311"/>
		
			<line fill="#F0EDDC" stroke="#BBB7A5" stroke-width="3" stroke-miterlimit="10" x1="561.395" y1="279.922" x2="561.395" y2="301.311"/>
		
			<line fill="#F0EDDC" stroke="#BBB7A5" stroke-width="3" stroke-miterlimit="10" x1="588.658" y1="279.922" x2="588.658" y2="301.311"/>
		
			<line fill="#F0EDDC" stroke="#BBB7A5" stroke-width="3" stroke-miterlimit="10" x1="615.921" y1="279.922" x2="615.921" y2="301.311"/>
		
			<line fill="#F0EDDC" stroke="#BBB7A5" stroke-width="3" stroke-miterlimit="10" x1="643.185" y1="279.922" x2="643.185" y2="301.311"/>
		
			<line fill="#F0EDDC" stroke="#BBB7A5" stroke-width="3" stroke-miterlimit="10" x1="670.447" y1="279.922" x2="670.447" y2="301.311"/>
		
			<line fill="#F0EDDC" stroke="#BBB7A5" stroke-width="3" stroke-miterlimit="10" x1="697.711" y1="279.922" x2="697.711" y2="301.311"/>
		
			<line fill="#F0EDDC" stroke="#BBB7A5" stroke-width="3" stroke-miterlimit="10" x1="724.974" y1="279.922" x2="724.974" y2="301.311"/>
	</g>
	<rect x="263.5" y="306.09" display="inline" fill="#F0EDDC" width="6" height="22"/>
	<rect x="496.5" y="306.09" display="inline" fill="#F0EDDC" width="6" height="22"/>
	<rect x="728.521" y="306.09" display="inline" fill="#F0EDDC" width="6" height="22"/>
</g>
<g id="title">
	<rect x="258.067" y="228.715" fill="none" width="477.866" height="40.496"/>
	<text transform="matrix(1 0 0 1 272.2739 265.5605)" fill="#615F59" font-family="'Sullivan-Fill'" font-size="69">community building</text>
	<g>
		<rect x="287.266" y="143.536" fill="none" width="470.703" height="56.274"/>
		<text transform="matrix(1 0 0 1 331.813 191.542)"><tspan x="0" y="0" fill="#615F58" font-family="'Lavanderia-Sturdy'" font-size="61">Telescope Guide to</tspan><tspan x="381.607" y="0" fill="#615F58" font-family="'Lavanderia-Sturdy'" font-size="61"> </tspan></text>
	</g>
	<g>
		<path fill="#615F58" d="M296.049,143.936c-0.082-0.295-0.258-0.423-0.422-0.378c-0.524,0.145-0.571,1.64-0.252,7.404
			C295.806,148.939,296.509,145.606,296.049,143.936z"/>
		<path fill="#615F58" d="M309.509,152.215c-0.136-0.491-0.421-0.765-0.75-0.674c-1.344,0.37-1.854,3.508-1.497,6.336
			C309.386,155.987,309.843,153.428,309.509,152.215z"/>
		<path fill="#615F58" d="M327.927,151.712c-3.093-15.244-17.957-25.093-33.2-22c-15.244,3.093-25.094,17.958-22.001,33.201
			c3.093,15.243,17.957,25.094,33.2,22.001C321.17,181.82,331.02,166.956,327.927,151.712z M288.288,166.703
			c-0.659-2.393-1.193-5.736-1.36-9.287c-0.755,0.209-1.312,0.361-1.451,0.365l-0.195-1.604c0.229-0.063,0.795-0.185,1.483-0.374
			c-0.197-2.379-0.376-4.691-0.534-8.209l2.327-0.642c0.576,2.732,0.936,5.313,1.101,8.089c0.524-0.145,0.975-0.304,1.26-0.418
			l0.13,1.623c-0.122,0.068-0.745,0.24-1.335,0.402c0.048,1.326,0.073,2.695,0.05,4.146c0.296,2.353,0.602,4.103,0.936,5.314
			c0.38,1.377,0.808,2.035,1.233,1.918c0.877-0.242,1.306-3.611,1.594-6.391c-0.7-6.835-1.308-14.214-0.843-17.374
			c0.234-1.581,1.21-2.519,2.193-2.791c1.638-0.451,2.487,0.196,2.83,1.441c0.732,2.655-0.85,7.922-2.195,10.973
			c0.064,0.617,0.097,1.243,0.137,1.901c0.63-1.937,1.694-3.322,3.104-3.71c1.146-0.316,2.108,0.229,2.542,1.802
			c0.84,3.049-0.216,7.536,0.524,10.224c0.263,0.95,0.668,1.015,0.963,0.934c0.853-0.234,1.428-2.369,1.831-6.535
			c0.001,0,0.004,0,0.005-0.001c-0.35-3.968,0.833-8.235,3.844-9.065c1.64-0.452,2.784,0.503,3.199,2.01
			c0.642,2.327-0.458,6.016-4.154,7.704c0.045,0.164,0.091,0.327,0.136,0.491c0.542,1.967,1.532,3.386,3.04,2.971
			c1.934-0.532,2.98-3.007,3.305-6.693c0.196-0.055,0.99,0.009,1.044,0.205c-0.456,4.746-1.154,8.605-4.367,9.491
			c-2.607,0.718-4.418-1.144-5.358-3.822c-0.421,2.951-1.167,5.444-3.176,5.998c-1.147,0.316-2.481-0.305-3.032-2.303
			c-0.976-3.54,0.152-7.766-0.499-10.125c-0.099-0.361-0.344-0.61-0.704-0.511c-1.409,0.388-2.304,4.056-0.824,14.156l-2.654,0.731
			c-0.114-0.285-0.196-0.581-0.277-0.876c-0.121-0.438-0.211-0.885-0.281-1.328c-0.422,1.847-1.068,2.828-2.281,3.163
			C290.133,171.097,289.056,169.489,288.288,166.703z M316.752,170.227c-0.061,0.021-0.124,0.041-0.185,0.057l-25.325,6.582
			c-0.396,0.104-0.802-0.135-0.905-0.531c-0.097-0.373,0.11-0.754,0.464-0.885l24.576-8.984c1.038-0.379,2.188,0.154,2.567,1.193
			S317.79,169.847,316.752,170.227z"/>
	</g>
</g>
</svg>
