<?xml version="1.0" encoding="utf-8"?>
<!-- Generator: Adobe Illustrator 16.0.0, SVG Export Plug-In . SVG Version: 6.00 Build 0)  -->
<!DOCTYPE svg PUBLIC "-//W3C//DTD SVG 1.1//EN" "http://www.w3.org/Graphics/SVG/1.1/DTD/svg11.dtd">
<svg version="1.1" id="Layer_1" xmlns="http://www.w3.org/2000/svg" xmlns:xlink="http://www.w3.org/1999/xlink" x="0px" y="0px"
	 width="552.846px" height="262.74px" viewBox="0 0 552.846 262.74" enable-background="new 0 0 552.846 262.74"
	 xml:space="preserve">
<g>
	<rect x="503.176" y="215.609" fill="#D3D0BB" width="11" height="52.721"/>
	<path fill="#615F59" d="M512.676,217.109v49.721h-8v-49.721H512.676 M515.676,214.109h-14v55.721h14V214.109L515.676,214.109z"/>
</g>
<g>
	<rect x="38.155" y="215.627" fill="#D3D0BB" width="11" height="52.703"/>
	<path fill="#615F59" d="M47.655,217.127v49.703h-8v-49.703H47.655 M50.655,214.127h-14v55.703h14V214.127L50.655,214.127z"/>
</g>
<g>
	<rect x="28.698" y="6.33" fill="#D3D0BB" width="495.957" height="209.28"/>
	<path fill="#615F59" d="M523.155,7.83v206.28H30.198V7.83H523.155 M526.155,4.83H27.198v212.28h498.957V4.83L526.155,4.83z"/>
</g>
<g>
	<rect x="37.176" y="14.469" fill="#FAF7EE" width="479" height="193"/>
	<path fill="#615F59" d="M514.676,15.969v190h-476v-190H514.676 M517.676,12.969h-482v196h482V12.969L517.676,12.969z"/>
</g>
<g>
	<rect x="271.155" y="215.609" fill="#D3D0BB" width="11" height="52.721"/>
	<path fill="#615F59" d="M280.655,217.109v49.721h-8v-49.721H280.655 M283.655,214.109h-14v55.721h14V214.109L283.655,214.109z"/>
</g>
<g>
	<g>
		<g>
			<path fill="#D3D0BB" d="M64.172,33.596v-3.5c0-1.93,1.57-3.5,3.5-3.5h31.269c1.93,0,3.5,1.57,3.5,3.5v3.5H64.172z"/>
			<path fill="#615F59" d="M98.941,28.096c1.103,0,2,0.897,2,2v2H65.672v-2c0-1.103,0.897-2,2-2H98.941 M98.941,25.096H67.672
				c-2.762,0-5,2.238-5,5v5h41.269v-5C103.941,27.334,101.703,25.096,98.941,25.096L98.941,25.096z"/>
		</g>
		<path fill="#D3D0BB" stroke="#615F59" stroke-width="3" stroke-miterlimit="10" d="M89.732,26.466H76.61l0,0
			c0-1.599,1.296-2.896,2.896-2.896h7.331C88.435,23.57,89.732,24.867,89.732,26.466L89.732,26.466z"/>
		<line fill="#D3D0BB" stroke="#615F59" stroke-width="3" stroke-miterlimit="10" x1="83.17" y1="25.019" x2="83.17" y2="5.651"/>
		<rect x="66.619" y="30.096" fill="#D3D0BB" width="33.375" height="0.939"/>
	</g>
	<g>
		<g>
			<path fill="#D3D0BB" d="M257.542,33.596v-3.5c0-1.93,1.57-3.5,3.5-3.5h31.269c1.93,0,3.5,1.57,3.5,3.5v3.5H257.542z"/>
			<path fill="#615F59" d="M292.31,28.096c1.103,0,2,0.897,2,2v2h-35.269v-2c0-1.103,0.897-2,2-2H292.31 M292.31,25.096h-31.269
				c-2.762,0-5,2.238-5,5v5h41.269v-5C297.31,27.334,295.072,25.096,292.31,25.096L292.31,25.096z"/>
		</g>
		<path fill="#D3D0BB" stroke="#615F59" stroke-width="3" stroke-miterlimit="10" d="M283.101,26.466h-13.122l0,0
			c0-1.599,1.296-2.896,2.896-2.896h7.331C281.805,23.57,283.101,24.867,283.101,26.466L283.101,26.466z"/>
		<line fill="#D3D0BB" stroke="#615F59" stroke-width="3" stroke-miterlimit="10" x1="276.54" y1="25.019" x2="276.54" y2="5.651"/>
		<rect x="259.989" y="30.096" fill="#D3D0BB" width="33.375" height="0.938"/>
	</g>
	<g>
		<g>
			<path fill="#D3D0BB" d="M450.911,33.596v-3.5c0-1.93,1.57-3.5,3.5-3.5h31.269c1.93,0,3.5,1.57,3.5,3.5v3.5H450.911z"/>
			<path fill="#615F59" d="M485.679,28.096c1.103,0,2,0.897,2,2v2h-35.269v-2c0-1.103,0.897-2,2-2H485.679 M485.679,25.096h-31.269
				c-2.762,0-5,2.238-5,5v5h41.269v-5C490.679,27.334,488.441,25.096,485.679,25.096L485.679,25.096z"/>
		</g>
		<path fill="#D3D0BB" stroke="#615F59" stroke-width="3" stroke-miterlimit="10" d="M476.471,26.466h-13.123l0,0
			c0-1.599,1.297-2.896,2.896-2.896h7.331C475.174,23.57,476.471,24.867,476.471,26.466L476.471,26.466z"/>
		<line fill="#D3D0BB" stroke="#615F59" stroke-width="3" stroke-miterlimit="10" x1="469.91" y1="25.019" x2="469.91" y2="5.651"/>
		<rect x="453.358" y="30.096" fill="#D3D0BB" width="33.375" height="0.938"/>
	</g>
</g>
<g>
	<g>
		<line fill="#F0EDDC" x1="7.655" y1="215.609" x2="546.655" y2="215.609"/>
		<rect x="7.655" y="214.109" fill="#615F59" width="539" height="3"/>
	</g>
	<g>
		<line fill="#F0EDDC" x1="7.655" y1="190.609" x2="546.655" y2="190.609"/>
		<rect x="7.655" y="189.109" fill="#615F59" width="539" height="3"/>
	</g>
	<g>
		
			<line fill="#F0EDDC" stroke="#615F59" stroke-width="3" stroke-miterlimit="10" x1="18.655" y1="190.609" x2="18.655" y2="215.609"/>
		
			<line fill="#F0EDDC" stroke="#615F59" stroke-width="3" stroke-miterlimit="10" x1="45.917" y1="190.609" x2="45.917" y2="215.609"/>
		
			<line fill="#F0EDDC" stroke="#615F59" stroke-width="3" stroke-miterlimit="10" x1="73.181" y1="190.609" x2="73.181" y2="215.609"/>
		
			<line fill="#F0EDDC" stroke="#615F59" stroke-width="3" stroke-miterlimit="10" x1="100.444" y1="190.609" x2="100.444" y2="215.609"/>
		
			<line fill="#F0EDDC" stroke="#615F59" stroke-width="3" stroke-miterlimit="10" x1="127.708" y1="190.609" x2="127.708" y2="215.609"/>
		
			<line fill="#F0EDDC" stroke="#615F59" stroke-width="3" stroke-miterlimit="10" x1="154.97" y1="190.609" x2="154.97" y2="215.609"/>
		
			<line fill="#F0EDDC" stroke="#615F59" stroke-width="3" stroke-miterlimit="10" x1="182.234" y1="190.609" x2="182.234" y2="215.609"/>
		
			<line fill="#F0EDDC" stroke="#615F59" stroke-width="3" stroke-miterlimit="10" x1="209.498" y1="190.609" x2="209.498" y2="215.609"/>
		
			<line fill="#F0EDDC" stroke="#615F59" stroke-width="3" stroke-miterlimit="10" x1="236.76" y1="190.609" x2="236.76" y2="215.609"/>
		
			<line fill="#F0EDDC" stroke="#615F59" stroke-width="3" stroke-miterlimit="10" x1="264.023" y1="190.609" x2="264.023" y2="215.609"/>
		
			<line fill="#F0EDDC" stroke="#615F59" stroke-width="3" stroke-miterlimit="10" x1="291.287" y1="190.609" x2="291.287" y2="215.609"/>
		
			<line fill="#F0EDDC" stroke="#615F59" stroke-width="3" stroke-miterlimit="10" x1="318.549" y1="190.609" x2="318.549" y2="215.609"/>
		
			<line fill="#F0EDDC" stroke="#615F59" stroke-width="3" stroke-miterlimit="10" x1="345.813" y1="190.609" x2="345.813" y2="215.609"/>
		
			<line fill="#F0EDDC" stroke="#615F59" stroke-width="3" stroke-miterlimit="10" x1="373.077" y1="190.609" x2="373.077" y2="215.609"/>
		
			<line fill="#F0EDDC" stroke="#615F59" stroke-width="3" stroke-miterlimit="10" x1="400.338" y1="190.609" x2="400.338" y2="215.609"/>
		
			<line fill="#F0EDDC" stroke="#615F59" stroke-width="3" stroke-miterlimit="10" x1="427.602" y1="190.609" x2="427.602" y2="215.609"/>
		
			<line fill="#F0EDDC" stroke="#615F59" stroke-width="3" stroke-miterlimit="10" x1="454.866" y1="190.609" x2="454.866" y2="215.609"/>
		
			<line fill="#F0EDDC" stroke="#615F59" stroke-width="3" stroke-miterlimit="10" x1="482.128" y1="190.609" x2="482.128" y2="215.609"/>
		
			<line fill="#F0EDDC" stroke="#615F59" stroke-width="3" stroke-miterlimit="10" x1="509.391" y1="190.609" x2="509.391" y2="215.609"/>
		
			<line fill="#F0EDDC" stroke="#615F59" stroke-width="3" stroke-miterlimit="10" x1="536.655" y1="190.609" x2="536.655" y2="215.609"/>
	</g>
</g>
<g>
	<path fill="#615F59" d="M144.605,89.119c0,1.667-0.725,3.116-1.956,4.131c1.087,1.158,1.956,2.463,1.956,4.346v16.592
		c0,2.898-2.463,5.361-5.361,5.361h-18.402V68.834h18.402c2.898,0,5.361,2.391,5.361,5.361V89.119z M135.839,77.528h-6.303v12.244
		h6.303V77.528z M135.839,98.466h-6.303v12.315h6.303V98.466z"/>
	<path fill="#615F59" d="M165.832,119.549l-3.55-21.083h-3.333v21.083h-8.694V68.834h18.402c2.898,0,5.289,2.391,5.289,5.361v18.982
		c0,2.027-1.159,3.912-3.043,4.781l3.623,21.59H165.832z M165.252,77.528h-6.303v12.244h6.303V77.528z"/>
	<path fill="#615F59" d="M179.38,68.834h8.694v50.714h-8.694V68.834z"/>
	<path fill="#615F59" d="M208.577,100.856l8.766-2.028v15.359c0,2.898-2.463,5.361-5.361,5.361h-13.041
		c-2.97,0-5.361-2.463-5.361-5.361V74.195c0-2.97,2.391-5.361,5.361-5.361h13.041c2.898,0,5.361,2.391,5.361,5.361v10.288
		l-8.766,2.029v-8.984h-6.303v33.253h6.303V100.856z"/>
	<path fill="#615F59" d="M239.729,94.119l8.114,25.43h-8.767l-0.072-0.291l-6.521-20.792h-0.797v21.083h-8.694V68.834h8.694v20.937
		h0.652l6.665-20.937h8.839L239.729,94.119z"/>
	<path fill="#615F59" d="M326.229,89.119c0,1.667-0.725,3.116-1.955,4.131c1.086,1.158,1.955,2.463,1.955,4.346v16.592
		c0,2.898-2.463,5.361-5.361,5.361h-18.4V68.834h18.4c2.898,0,5.361,2.391,5.361,5.361V89.119z M317.463,77.528h-6.303v12.244h6.303
		V77.528z M317.463,98.466h-6.303v12.315h6.303V98.466z"/>
	<path fill="#615F59" d="M347.456,119.549l-3.549-21.083h-3.334v21.083h-8.693V68.834h18.402c2.898,0,5.289,2.391,5.289,5.361
		v18.982c0,2.027-1.16,3.912-3.043,4.781l3.621,21.59H347.456z M346.875,77.528h-6.303v12.244h6.303V77.528z"/>
	<path fill="#615F59" d="M361.004,68.834h8.693v50.714h-8.693V68.834z"/>
	<path fill="#615F59" d="M390.2,100.856l8.768-2.028v15.359c0,2.898-2.463,5.361-5.361,5.361h-13.041
		c-2.971,0-5.361-2.463-5.361-5.361V74.195c0-2.97,2.391-5.361,5.361-5.361h13.041c2.898,0,5.361,2.391,5.361,5.361v10.288
		l-8.768,2.029v-8.984h-6.303v33.253h6.303V100.856z"/>
	<path fill="#615F59" d="M421.352,94.119l8.115,25.43H420.7l-0.072-0.291l-6.52-20.792h-0.797v21.083h-8.693V68.834h8.693v20.937
		h0.652l6.664-20.937h8.84L421.352,94.119z"/>
</g>
<g>
	<path fill="#5D5E5E" d="M79.755,138.076c0.9-0.091,2.67,0.39,3.63,0.93c0.21,0.09,0.54,0.54,0.03,0.54c-0.51,0-0.78,0.06-1.41,0.96
		c-3.15,4.38-8.31,19.559-5.76,20.789c0.96,0.06,0.42,0.87-0.6,0.54c-2.07-0.72-2.04-4.35-1.59-7.59c-1.05,0.3-2.13,0.51-3.54,0.63
		c-0.99,1.53-1.95,2.729-2.85,3.63c-3.06,3.149-6.06,5.37-9.69,3.51c-2.7-1.35-2.31-3.51-1.74-2.609c1.2,1.92,3.12,2.369,4.41,1.649
		c1.92-0.99,3.99-3.24,6.15-6c-0.75,0.181-3.78,0.09-4.11-0.689c-0.51-0.78-1.23-2.7-1.02-3.48c0.03-0.119,0.45-0.539,0.48,0.36
		c0.03,0.81,1.62,1.26,6.39,1.59c3.69-4.979,7.08-10.529,8.91-12.449c-7.739,1.08-15.419,7.739-11.969,10.14
		c0.33,0.81-0.48,0.779-0.87,0.09c-6.57-6.84,2.46-10.229,8.49-11.609c1.29-0.271,4.29-0.48,5.49-0.48
		c0.27-0.18,0.51-0.27,0.84-0.42C79.456,138.076,79.576,138.076,79.755,138.076z M71.656,153.135c1.05,0,1.8-0.029,2.61-0.12
		c0.57-2.999,1.5-6.089,2.55-8.85C75.136,146.926,73.456,150.226,71.656,153.135z"/>
	<path fill="#5D5E5E" d="M92.716,152.985c0.06,0.12,0.06,0.33,0,0.45c-0.78,1.319-2.85,4.859-5.79,5.789
		c0.36,1.38,0.57,3.061,0.42,4.8c-0.15,1.86-1.2,3.42-2.88,3.42c-3.3,0-3.12-2.819-2.16-6.54c1.23-4.859,2.85-10.289,4.17-14.639
		c1.56-5.19,3.12-7.26,5.79-7.26c1.5,0,2.19,1.26,2.19,2.85c0,3.51-3.99,8.13-6.81,11.189c-0.45,1.5-0.87,2.97-1.26,4.32
		c2.52-0.061,4.979-3.24,5.64-4.47C92.176,152.595,92.566,152.686,92.716,152.985z M85.696,159.885c-0.27,1.05-0.54,1.92-0.72,2.58
		c-0.54,1.979-0.84,3.479-0.09,3.479C85.816,165.944,85.996,162.675,85.696,159.885z M88.516,150.285
		c2.28-2.67,4.62-5.97,4.62-8.069c0-0.511-0.15-0.811-0.45-0.811C91.636,141.405,90.016,145.575,88.516,150.285z"/>
	<path fill="#5D5E5E" d="M102.166,153.436c-0.6,1.109-3.48,6.029-5.939,6.029c-1.05,0-1.5-0.84-1.5-2.16
		c0-2.399,1.23-6.359,2.22-8.789c-0.21,0.09-0.51,0.12-0.9,0.12c-0.24,0-0.45-0.03-0.66-0.091c-1.11,2.521-2.34,4.65-2.82,5.46
		c-0.36,0.54-0.96-0.03-0.69-0.51c0.84-1.41,1.77-3.36,2.43-5.64c-0.63-0.72-0.87-1.771-0.87-2.43c0-2.25,1.65-4.32,2.73-4.32
		c0.57,0,0.99,0.69,0.99,1.62c0,1.29-0.3,2.189-1.17,4.35c0.63-0.06,1.41-0.39,2.34-0.899c1.08-0.631,2.7,0.239,2.31,1.26
		c-0.27,0.72-3.63,8.609-1.95,8.609c0.78,0,2.16-2.07,2.82-3.12c0.18-0.27,0.54-0.239,0.69,0.061
		C102.255,153.105,102.255,153.285,102.166,153.436z"/>
	<path fill="#5D5E5E" d="M112.396,153.465c-0.93,1.561-3.54,6-7.23,6c-2.22,0-4.26-1.47-4.26-4.56c0-5.13,3.45-9.54,6.78-9.54
		c1.56,0,3.21,1.351,3.21,3.45c0,3.45-3.48,6.21-6.63,5.13c-0.03,0.3-0.06,0.6-0.06,0.899c0,1.471,0.66,2.521,1.83,2.521
		c2.52,0,5.04-3.24,5.7-4.47c0.15-0.301,0.54-0.21,0.69,0.09C112.485,153.105,112.455,153.345,112.396,153.465z M104.505,152.535
		c1.62,0.24,3.81-2.37,3.81-4.38c0-0.39-0.24-0.72-0.57-0.72C106.875,147.436,105.196,149.806,104.505,152.535z"/>
	<path fill="#5D5E5E" d="M122.655,153.465c-0.93,1.561-3.54,6-7.23,6c-2.22,0-4.26-1.47-4.26-4.56c0-5.13,3.45-9.54,6.78-9.54
		c1.56,0,3.21,1.351,3.21,3.45c0,3.45-3.48,6.21-6.63,5.13c-0.03,0.3-0.06,0.6-0.06,0.899c0,1.471,0.66,2.521,1.83,2.521
		c2.52,0,5.04-3.24,5.7-4.47c0.15-0.301,0.54-0.21,0.69,0.09C122.745,153.105,122.715,153.345,122.655,153.465z M114.765,152.535
		c1.62,0.24,3.81-2.37,3.81-4.38c0-0.39-0.24-0.72-0.57-0.72C117.135,147.436,115.456,149.806,114.765,152.535z"/>
	<path fill="#5D5E5E" d="M141.255,153.436c-0.75,1.499-3.15,4.499-5.459,6.119c-0.18,0.69-0.39,1.38-0.57,2.01
		c-1.229,4.2-2.91,5.88-5.01,5.88c-1.77,0-2.49-1.05-2.49-2.31c0-2.49,2.79-4.35,4.86-5.43c0.15-0.57,0.3-1.11,0.45-1.68
		c-0.66,0.779-1.59,1.439-2.7,1.439c-2.1,0-3.15-2.91-1.86-7.41c1.35-4.649,3.72-6.689,5.76-6.689c1.86,0,2.25,2.04,1.74,3.42
		l-0.06,0.21c0.3-0.78,0.57-1.53,0.84-2.16c0.72-1.71,3.39-0.569,2.91,0.66c-0.99,2.43-2.22,6.45-3.3,10.2
		c1.44-1.051,2.76-2.46,4.23-4.771c0.18-0.27,0.54-0.239,0.69,0.061C141.345,153.105,141.345,153.285,141.255,153.436z
		 M131.536,163.545c0.18-0.601,0.33-1.29,0.54-1.98c-1.68,1.021-3.06,2.28-3.06,3.51c0,0.57,0.36,0.931,0.78,0.931
		C130.635,166.005,131.175,164.984,131.536,163.545z M134.385,152.985c0.93-2.73,1.14-5.22,0.51-5.55
		c-0.66-0.3-1.95,1.649-2.85,4.38c-0.93,2.729-1.17,5.189-0.51,5.52C132.166,157.665,133.456,155.715,134.385,152.985z"/>
	<path fill="#5D5E5E" d="M152.895,153.436c-0.63,1.109-3.48,6.029-5.97,6.029c-1.05,0-1.5-0.84-1.5-2.16
		c0-0.359,0.03-0.779,0.09-1.229c-1.2,1.739-2.88,3.39-4.47,3.39c-1.05,0-1.5-0.84-1.5-2.16c0-3.149,2.13-8.909,3.03-10.529
		c0.9-1.59,3.36-0.57,2.88,0.66c-0.27,0.72-3.63,8.609-1.95,8.609c0.78,0,2.25-1.71,2.73-3.33c0.69-2.489,1.68-4.979,2.22-5.939
		c0.9-1.59,3.39-0.57,2.91,0.66c-0.3,0.72-3.66,8.609-1.95,8.609c0.78,0,2.16-2.07,2.82-3.12c0.15-0.27,0.54-0.239,0.66,0.061
		C152.955,153.105,152.955,153.285,152.895,153.436z"/>
	<path fill="#5D5E5E" d="M157.245,147.436c-0.27,0.72-3.63,8.609-1.95,8.609c0.78,0,2.16-2.07,2.82-3.12
		c0.18-0.27,0.54-0.239,0.69,0.061c0.06,0.12,0.06,0.3-0.03,0.45c-0.6,1.109-3.45,6.029-5.939,6.029c-1.05,0-1.5-0.84-1.5-2.16
		c0-3.149,2.13-8.909,3.03-10.529C155.265,145.186,157.725,146.205,157.245,147.436z M156.585,144.945c-1.02,0-1.38-1.26-0.84-2.79
		c0.51-1.56,1.8-2.79,2.82-2.79s1.41,1.23,0.87,2.79C158.895,143.686,157.635,144.945,156.585,144.945z"/>
	<path fill="#5D5E5E" d="M166.994,153.285c-0.42,1.77-0.51,2.76,0.06,2.76c0.78,0,2.16-2.07,2.82-3.12
		c0.18-0.27,0.54-0.239,0.66,0.061c0.09,0.12,0.06,0.3,0,0.45c-0.63,1.109-3.48,6.029-5.94,6.029c-1.05,0-1.53-0.84-1.53-2.13
		c0-0.09,0-0.18,0.03-0.3c-0.72,1.17-1.86,2.43-3.45,2.43c-2.07,0-3.12-2.91-1.83-7.41c1.35-4.649,3.69-6.689,5.76-6.689
		c1.23,0,1.83,0.93,1.92,1.95c0.84-2.61,1.8-5.31,2.76-7.59c0.72-1.71,3.39-0.57,2.91,0.66
		C169.484,144.525,168.224,148.275,166.994,153.285z M163.694,152.985c0.93-2.73,1.17-5.22,0.51-5.55
		c-0.63-0.3-1.92,1.649-2.85,4.38c-0.93,2.729-1.14,5.189-0.51,5.52C161.504,157.665,162.765,155.715,163.694,152.985z"/>
	<path fill="#5D5E5E" d="M180.764,153.465c-0.93,1.561-3.54,6-7.23,6c-2.22,0-4.26-1.47-4.26-4.56c0-5.13,3.45-9.54,6.78-9.54
		c1.56,0,3.21,1.351,3.21,3.45c0,3.45-3.48,6.21-6.63,5.13c-0.03,0.3-0.06,0.6-0.06,0.899c0,1.471,0.66,2.521,1.83,2.521
		c2.52,0,5.04-3.24,5.7-4.47c0.15-0.301,0.54-0.21,0.69,0.09C180.854,153.105,180.824,153.345,180.764,153.465z M172.875,152.535
		c1.62,0.24,3.81-2.37,3.81-4.38c0-0.39-0.24-0.72-0.57-0.72C175.244,147.436,173.564,149.806,172.875,152.535z"/>
	<path fill="#5D5E5E" d="M194.204,140.386c-0.21,0.689-1.08,2.939-2.1,6c0.63-0.091,1.11-0.15,1.29-0.181
		c0.66-0.09-0.06,2.16-0.81,2.521c-0.24,0.09-0.69,0.149-1.29,0.18c-0.24,0.81-0.51,1.65-0.75,2.49
		c-0.66,2.31-1.29,4.649-0.21,4.649c1.11,0,2.43-2.07,3.09-3.12c0.18-0.27,0.54-0.239,0.66,0.061c0.09,0.12,0.06,0.3,0,0.45
		c-0.63,1.109-3.36,6.029-6.209,6.029c-1.2,0-1.77-0.84-1.77-2.16c0-1.8,0.9-4.529,1.59-6.779c0.15-0.51,0.33-1.05,0.51-1.62
		c-0.57-0.03-1.02-0.03-1.23-0.06c-0.78-0.03,0.06-1.591,0.84-1.74c0.18-0.061,0.54-0.12,1.02-0.18c1.05-3.21,2.13-6.391,2.46-7.2
		C192.044,138.016,194.594,139.126,194.204,140.386z"/>
	<path fill="#5D5E5E" d="M206.323,150.045c-0.63,0.48-2.1,1.561-3.84,2.07c-0.06,0.21-0.12,0.45-0.21,0.689
		c-1.56,4.65-4.05,6.66-6.12,6.66c-2.13,0-3.33-1.439-3.33-4.229c0-3.96,2.1-8.37,3.96-9.21c0.54-0.21,1.11,0.18,1.44,0.75
		c0.6-0.81,1.47-1.41,2.58-1.41c1.8,0,2.73,2.13,1.98,5.58c1.32-0.45,2.46-1.26,3.03-1.74c0.21-0.18,0.54-0.09,0.66,0.21
		C206.563,149.625,206.503,149.896,206.323,150.045z M199.483,152.146c-1.2-0.48-1.86-1.53-2.01-2.61c-0.3,0.57-0.63,1.32-0.93,2.1
		c-0.93,2.34-1.29,5.22-0.51,5.61c0.87,0.42,2.25-1.74,3.24-4.53C199.363,152.535,199.423,152.325,199.483,152.146z
		 M198.494,148.575c0,1.05,0.42,1.98,1.26,2.43c0.39-1.8,0.24-3.27-0.24-3.51C198.943,147.195,198.494,147.825,198.494,148.575z"/>
	<path fill="#5D5E5E" d="M223.933,150.045c-0.6,0.48-2.1,1.561-3.81,2.07c-0.06,0.21-0.15,0.45-0.21,0.689
		c-1.59,4.65-4.05,6.66-6.09,6.66c-3.45,0-3.9-4.35-3.03-7.739c1.26-4.891,2.55-7.98,4.229-12c0.72-1.71,3.48-0.54,2.88,0.66
		c-1.53,3.06-6.87,17.009-4.109,17.009c0.63,0,1.74-1.649,2.82-4.38c0.12-0.3,0.24-0.63,0.33-0.96c-1.26-0.539-1.86-1.8-1.86-2.999
		c0-1.65,1.29-3.69,3.36-3.69c1.77,0,2.7,2.13,1.98,5.58c1.32-0.45,2.43-1.26,3-1.74c0.24-0.18,0.54-0.09,0.66,0.21
		C224.173,149.625,224.113,149.896,223.933,150.045z M217.243,150.945c0.42-1.83,0.36-3.21-0.12-3.45c-0.54-0.3-0.99,0.33-0.99,1.08
		C216.133,149.596,216.493,150.465,217.243,150.945z"/>
	<path fill="#5D5E5E" d="M233.922,153.436c-0.63,1.109-3.48,6.029-5.97,6.029c-1.05,0-1.5-0.84-1.5-2.16
		c0-0.359,0.03-0.779,0.09-1.229c-1.2,1.739-2.88,3.39-4.47,3.39c-1.05,0-1.5-0.84-1.5-2.16c0-3.149,2.13-8.909,3.03-10.529
		c0.9-1.59,3.36-0.57,2.88,0.66c-0.27,0.72-3.63,8.609-1.95,8.609c0.78,0,2.25-1.71,2.73-3.33c0.69-2.489,1.68-4.979,2.22-5.939
		c0.9-1.59,3.39-0.57,2.91,0.66c-0.3,0.72-3.66,8.609-1.95,8.609c0.78,0,2.16-2.07,2.82-3.12c0.15-0.27,0.54-0.239,0.66,0.061
		C233.982,153.105,233.982,153.285,233.922,153.436z"/>
	<path fill="#5D5E5E" d="M238.272,147.436c-0.27,0.72-3.63,8.609-1.95,8.609c0.78,0,2.16-2.07,2.82-3.12
		c0.18-0.27,0.54-0.239,0.69,0.061c0.06,0.12,0.06,0.3-0.03,0.45c-0.6,1.109-3.45,6.029-5.939,6.029c-1.05,0-1.5-0.84-1.5-2.16
		c0-3.149,2.13-8.909,3.03-10.529C236.292,145.186,238.752,146.205,238.272,147.436z M237.612,144.945c-1.02,0-1.38-1.26-0.84-2.79
		c0.51-1.56,1.8-2.79,2.82-2.79s1.41,1.23,0.87,2.79C239.922,143.686,238.663,144.945,237.612,144.945z"/>
	<path fill="#5D5E5E" d="M242.712,151.396c-0.66,2.31-1.29,4.649-0.21,4.649c1.11,0,2.43-2.1,3.06-3.149
		c0.18-0.301,0.57-0.21,0.69,0.09c0.09,0.12,0.09,0.27,0.03,0.42c-0.63,1.109-3.39,6.06-6.24,6.06c-1.2,0-1.77-0.84-1.77-2.16
		c0-1.8,0.9-4.529,1.59-6.779c1.2-3.96,3.15-9.66,3.6-10.8c0.75-1.71,3.3-0.6,2.91,0.66
		C246.072,141.405,244.302,145.905,242.712,151.396z"/>
	<path fill="#5D5E5E" d="M254.262,153.285c-0.42,1.77-0.51,2.76,0.06,2.76c0.78,0,2.16-2.07,2.82-3.12
		c0.18-0.27,0.54-0.239,0.66,0.061c0.09,0.12,0.06,0.3,0,0.45c-0.63,1.109-3.48,6.029-5.94,6.029c-1.05,0-1.53-0.84-1.53-2.13
		c0-0.09,0-0.18,0.03-0.3c-0.72,1.17-1.86,2.43-3.45,2.43c-2.07,0-3.12-2.91-1.83-7.41c1.35-4.649,3.69-6.689,5.76-6.689
		c1.23,0,1.83,0.93,1.92,1.95c0.84-2.61,1.8-5.31,2.76-7.59c0.72-1.71,3.39-0.57,2.91,0.66
		C256.752,144.525,255.492,148.275,254.262,153.285z M250.962,152.985c0.93-2.73,1.17-5.22,0.51-5.55
		c-0.63-0.3-1.92,1.649-2.85,4.38c-0.93,2.729-1.14,5.189-0.51,5.52C248.772,157.665,250.032,155.715,250.962,152.985z"/>
	<path fill="#5D5E5E" d="M262.152,147.436c-0.27,0.72-3.63,8.609-1.95,8.609c0.78,0,2.16-2.07,2.82-3.12
		c0.18-0.27,0.54-0.239,0.69,0.061c0.06,0.12,0.06,0.3-0.03,0.45c-0.6,1.109-3.45,6.029-5.94,6.029c-1.05,0-1.5-0.84-1.5-2.16
		c0-3.149,2.13-8.909,3.03-10.529C260.172,145.186,262.632,146.205,262.152,147.436z M261.492,144.945c-1.02,0-1.38-1.26-0.84-2.79
		c0.51-1.56,1.8-2.79,2.82-2.79s1.41,1.23,0.87,2.79C263.802,143.686,262.542,144.945,261.492,144.945z"/>
	<path fill="#5D5E5E" d="M275.231,153.436c-0.63,1.109-3.48,6.029-5.97,6.029c-1.05,0-1.5-0.84-1.5-2.16c0-1.8,0.9-4.529,1.59-6.779
		c0.18-0.63,0.48-1.89,0.09-1.89c-0.75,0-2.58,2.669-3.36,4.89c-0.57,2.13-1.08,4.229-1.26,5.279c-0.21,1.32-2.7,0.57-2.7-1.35
		c0-1.65,2.01-8.85,2.91-10.68c0.81-1.65,3.36-0.57,2.88,0.66c-0.12,0.3-0.24,0.689-0.39,1.14c1.08-1.8,2.46-3.21,3.78-3.21
		c1.83,0,2.16,2.311,1.62,3.96c-0.87,2.58-2.37,6.72-1.17,6.72c0.78,0,2.16-2.07,2.82-3.12c0.15-0.27,0.54-0.239,0.66,0.061
		C275.291,153.105,275.291,153.285,275.231,153.436z"/>
	<path fill="#5D5E5E" d="M287.231,153.436c-0.75,1.499-3.15,4.499-5.459,6.119c-0.181,0.69-0.391,1.38-0.57,2.01
		c-1.23,4.2-2.91,5.88-5.01,5.88c-1.77,0-2.49-1.05-2.49-2.31c0-2.49,2.79-4.35,4.859-5.43c0.15-0.57,0.301-1.11,0.45-1.68
		c-0.659,0.779-1.59,1.439-2.7,1.439c-2.1,0-3.15-2.91-1.86-7.41c1.35-4.649,3.72-6.689,5.76-6.689c1.859,0,2.25,2.04,1.74,3.42
		l-0.061,0.21c0.301-0.78,0.57-1.53,0.84-2.16c0.721-1.71,3.391-0.569,2.91,0.66c-0.99,2.43-2.22,6.45-3.3,10.2
		c1.44-1.051,2.76-2.46,4.229-4.771c0.18-0.27,0.541-0.239,0.69,0.061C287.321,153.105,287.321,153.285,287.231,153.436z
		 M277.512,163.545c0.18-0.601,0.33-1.29,0.54-1.98c-1.68,1.021-3.06,2.28-3.06,3.51c0,0.57,0.36,0.931,0.78,0.931
		C276.612,166.005,277.151,164.984,277.512,163.545z M280.362,152.985c0.93-2.73,1.14-5.22,0.51-5.55
		c-0.66-0.3-1.95,1.649-2.85,4.38c-0.93,2.729-1.17,5.189-0.51,5.52C278.142,157.665,279.432,155.715,280.362,152.985z"/>
	<path fill="#5D5E5E" d="M305.591,153.436c-0.63,1.109-3.48,6.029-5.94,6.029c-1.05,0-1.5-0.84-1.5-2.16c0-0.09,0-0.21,0-0.33
		c-0.72,1.2-1.859,2.49-3.479,2.49c-2.07,0-3.12-2.91-1.83-7.41c1.351-4.649,3.69-6.689,5.76-6.689c1.65,0,2.13,1.62,1.86,2.97
		c0.27-0.659,0.51-1.199,0.72-1.56c0.87-1.59,3.359-0.57,2.88,0.66c-0.27,0.72-3.63,8.609-1.95,8.609c0.78,0,2.16-2.07,2.82-3.12
		c0.18-0.27,0.54-0.239,0.689,0.061C305.681,153.105,305.681,153.285,305.591,153.436z M298.721,152.985
		c0.93-2.73,1.17-5.22,0.51-5.55c-0.63-0.3-1.92,1.649-2.85,4.38c-0.93,2.729-1.14,5.189-0.51,5.52
		C296.532,157.665,297.792,155.715,298.721,152.985z"/>
	<path fill="#5D5E5E" d="M323.261,150.045c-0.99,0.99-2.641,2.07-3.99,2.431c-1.5,3.569-3.9,6.989-6.24,6.989
		c-1.949,0-2.609-1.59-2.55-3.81c-0.87,2.34-2.46,3.81-4.199,3.81c-1.05,0-1.98-0.69-1.98-2.49c0-3.869,2.04-8.579,2.94-10.199
		c0.899-1.59,3.359-0.57,2.88,0.66c-0.271,0.72-3.87,9.539-2.19,9.539c2.16,0,3.93-8.31,4.74-10.199c0.689-1.68,3.72-0.57,3.3,0.66
		c-1.65,4.739-3.3,9.51-2.37,9.51c0.87,0,2.28-2.34,3.51-5.16c-0.149-0.3-0.24-0.69-0.24-1.17c0-1.68,0.9-5.25,2.91-5.25
		c0.57,0,0.99,0.42,0.99,1.11c0,1.2-0.36,2.88-0.96,4.59c0.81-0.36,1.83-1.021,2.939-1.86c0.21-0.149,0.54-0.09,0.66,0.21
		C323.5,149.625,323.411,149.896,323.261,150.045z"/>
	<path fill="#5D5E5E" d="M332.291,153.465c-0.93,1.561-3.54,6-7.229,6c-2.22,0-4.26-1.47-4.26-4.56c0-5.13,3.45-9.54,6.779-9.54
		c1.561,0,3.21,1.351,3.21,3.45c0,3.45-3.479,6.21-6.629,5.13c-0.03,0.3-0.061,0.6-0.061,0.899c0,1.471,0.66,2.521,1.83,2.521
		c2.52,0,5.04-3.24,5.699-4.47c0.15-0.301,0.54-0.21,0.69,0.09C332.38,153.105,332.351,153.345,332.291,153.465z M324.401,152.535
		c1.62,0.24,3.811-2.37,3.811-4.38c0-0.39-0.24-0.72-0.57-0.72C326.771,147.436,325.091,149.806,324.401,152.535z"/>
	<path fill="#5D5E5E" d="M340.331,153.436c-0.899,1.529-3.6,6.089-7.409,6.029c-0.12,0-0.21,0-0.301,0c-1.29,0-2.01-1.02-2.43-1.8
		c-0.21-0.36,0.75-1.53,0.96-1.17c0.271,0.569,0.66,1.17,1.26,1.17c1.05,0,1.5-1.771,1.5-2.7c0-1.74,0-2.97,0-4.17
		c-0.75,1.5-1.409,2.67-1.739,3.21s-0.96-0.09-0.66-0.569c0.81-1.44,1.77-3.33,2.43-5.641c0.06-3.18,2.939-5.85,4.47-4.77
		c1.26,0.93-0.149,3.27-1.95,5.58c0.271,1.649,0.78,3.359,0.78,5.729c0,0.63-0.09,1.2-0.21,1.68c1.26-1.02,2.25-2.43,2.64-3.119
		c0.15-0.301,0.54-0.21,0.66,0.09C340.42,153.105,340.42,153.315,340.331,153.436z"/>
	<path fill="#5D5E5E" d="M352.57,150.045c-0.63,0.48-2.1,1.561-3.84,2.07c-0.06,0.21-0.119,0.45-0.21,0.689
		c-1.56,4.65-4.05,6.66-6.119,6.66c-2.13,0-3.33-1.439-3.33-4.229c0-3.96,2.1-8.37,3.96-9.21c0.54-0.21,1.109,0.18,1.439,0.75
		c0.601-0.81,1.471-1.41,2.58-1.41c1.8,0,2.73,2.13,1.98,5.58c1.319-0.45,2.46-1.26,3.029-1.74c0.21-0.18,0.54-0.09,0.66,0.21
		C352.81,149.625,352.75,149.896,352.57,150.045z M345.731,152.146c-1.2-0.48-1.86-1.53-2.011-2.61c-0.3,0.57-0.63,1.32-0.93,2.1
		c-0.93,2.34-1.29,5.22-0.51,5.61c0.87,0.42,2.25-1.74,3.24-4.53C345.611,152.535,345.67,152.325,345.731,152.146z M344.741,148.575
		c0,1.05,0.42,1.98,1.26,2.43c0.39-1.8,0.24-3.27-0.24-3.51C345.191,147.195,344.741,147.825,344.741,148.575z"/>
	<path fill="#5D5E5E" d="M368.139,153.436c-0.63,1.109-3.48,6.029-5.97,6.029c-1.05,0-1.5-0.84-1.5-2.16
		c0-1.8,0.899-4.529,1.59-6.779c0.18-0.63,0.479-1.89,0.09-1.89c-0.81,0-2.85,3.06-3.54,5.369c-0.51,1.95-0.96,3.84-1.109,4.8
		c-0.21,1.32-2.7,0.57-2.7-1.35c0-1.021,0.78-4.23,1.59-6.93c0.18-0.63,0.48-1.89,0.09-1.89c-0.779,0-2.67,2.85-3.42,5.1
		c-0.569,2.069-1.02,4.05-1.199,5.069c-0.211,1.32-2.7,0.57-2.7-1.35c0-1.65,2.01-8.85,2.91-10.68c0.81-1.65,3.359-0.57,2.88,0.66
		c-0.12,0.3-0.24,0.689-0.391,1.14c1.08-1.8,2.46-3.21,3.78-3.21c1.649,0,2.04,1.89,1.739,3.45c1.11-1.89,2.521-3.45,3.931-3.45
		c1.829,0,2.159,2.311,1.619,3.96c-0.869,2.58-2.369,6.72-1.17,6.72c0.78,0,2.16-2.07,2.82-3.12c0.15-0.27,0.54-0.239,0.66,0.061
		C368.199,153.105,368.199,153.285,368.139,153.436z"/>
	<path fill="#5D5E5E" d="M378.37,153.465c-0.93,1.561-3.54,6-7.229,6c-2.22,0-4.26-1.47-4.26-4.56c0-5.13,3.45-9.54,6.779-9.54
		c1.561,0,3.21,1.351,3.21,3.45c0,3.45-3.479,6.21-6.63,5.13c-0.029,0.3-0.06,0.6-0.06,0.899c0,1.471,0.66,2.521,1.83,2.521
		c2.52,0,5.04-3.24,5.699-4.47c0.15-0.301,0.54-0.21,0.69,0.09C378.459,153.105,378.43,153.345,378.37,153.465z M370.48,152.535
		c1.62,0.24,3.811-2.37,3.811-4.38c0-0.39-0.24-0.72-0.57-0.72C372.85,147.436,371.17,149.806,370.48,152.535z"/>
	<path fill="#5D5E5E" d="M395.229,152.985c0.06,0.12,0.03,0.359-0.03,0.479c-0.93,1.561-3.54,6-7.229,6c-2.22,0-4.26-1.47-4.26-4.56
		c0-5.13,3.45-9.54,6.779-9.54c1.561,0,3.21,1.351,3.21,3.45c0,1.59-0.72,3-1.8,3.989c-0.45,0.42-1.229,0.54-1.83-0.18
		c-0.479-0.6-0.479-1.5-0.06-2.069c0.54-0.75,1.11-1.561,1.11-2.4c0-0.39-0.24-0.72-0.57-0.72c-1.11,0-3.54,3.869-3.54,7.409
		c0,1.471,0.66,2.521,1.83,2.521c2.52,0,5.04-3.24,5.699-4.47C394.689,152.595,395.079,152.686,395.229,152.985z"/>
	<path fill="#5D5E5E" d="M407.469,150.045c-0.63,0.48-2.1,1.561-3.84,2.07c-0.06,0.21-0.119,0.45-0.21,0.689
		c-1.56,4.65-4.05,6.66-6.119,6.66c-2.13,0-3.33-1.439-3.33-4.229c0-3.96,2.1-8.37,3.96-9.21c0.54-0.21,1.109,0.18,1.439,0.75
		c0.601-0.81,1.471-1.41,2.58-1.41c1.8,0,2.73,2.13,1.98,5.58c1.319-0.45,2.46-1.26,3.029-1.74c0.21-0.18,0.54-0.09,0.66,0.21
		C407.709,149.625,407.65,149.896,407.469,150.045z M400.63,152.146c-1.2-0.48-1.86-1.53-2.011-2.61c-0.3,0.57-0.63,1.32-0.93,2.1
		c-0.93,2.34-1.29,5.22-0.51,5.61c0.87,0.42,2.25-1.74,3.24-4.53C400.51,152.535,400.57,152.325,400.63,152.146z M399.64,148.575
		c0,1.05,0.42,1.98,1.26,2.43c0.39-1.8,0.24-3.27-0.24-3.51C400.09,147.195,399.64,147.825,399.64,148.575z"/>
	<path fill="#5D5E5E" d="M423.039,153.436c-0.63,1.109-3.48,6.029-5.97,6.029c-1.05,0-1.5-0.84-1.5-2.16
		c0-1.8,0.899-4.529,1.59-6.779c0.18-0.63,0.479-1.89,0.09-1.89c-0.81,0-2.85,3.06-3.54,5.369c-0.51,1.95-0.96,3.84-1.109,4.8
		c-0.21,1.32-2.7,0.57-2.7-1.35c0-1.021,0.78-4.23,1.59-6.93c0.18-0.63,0.48-1.89,0.09-1.89c-0.78,0-2.67,2.85-3.42,5.1
		c-0.569,2.069-1.02,4.05-1.2,5.069c-0.21,1.32-2.699,0.57-2.699-1.35c0-1.65,2.01-8.85,2.91-10.68c0.81-1.65,3.359-0.57,2.88,0.66
		c-0.12,0.3-0.24,0.689-0.391,1.14c1.08-1.8,2.46-3.21,3.78-3.21c1.649,0,2.04,1.89,1.739,3.45c1.11-1.89,2.521-3.45,3.931-3.45
		c1.829,0,2.159,2.311,1.619,3.96c-0.869,2.58-2.369,6.72-1.17,6.72c0.78,0,2.16-2.07,2.82-3.12c0.15-0.27,0.54-0.239,0.66,0.061
		C423.098,153.105,423.098,153.285,423.039,153.436z"/>
	<path fill="#5D5E5E" d="M440.258,153.436c-0.63,1.109-3.48,6.029-5.97,6.029c-1.05,0-1.5-0.84-1.5-2.16
		c0-1.8,0.899-4.529,1.59-6.779c0.18-0.63,0.479-1.89,0.09-1.89c-0.81,0-2.85,3.06-3.54,5.369c-0.51,1.95-0.96,3.84-1.109,4.8
		c-0.21,1.32-2.7,0.57-2.7-1.35c0-1.021,0.78-4.23,1.59-6.93c0.18-0.63,0.48-1.89,0.09-1.89c-0.779,0-2.67,2.85-3.42,5.1
		c-0.569,2.069-1.02,4.05-1.199,5.069c-0.211,1.32-2.7,0.57-2.7-1.35c0-1.65,2.01-8.85,2.91-10.68c0.81-1.65,3.359-0.57,2.88,0.66
		c-0.12,0.3-0.24,0.689-0.391,1.14c1.08-1.8,2.46-3.21,3.78-3.21c1.649,0,2.04,1.89,1.739,3.45c1.11-1.89,2.521-3.45,3.931-3.45
		c1.829,0,2.159,2.311,1.619,3.96c-0.869,2.58-2.369,6.72-1.17,6.72c0.78,0,2.16-2.07,2.82-3.12c0.15-0.27,0.54-0.239,0.66,0.061
		C440.318,153.105,440.318,153.285,440.258,153.436z"/>
	<path fill="#5D5E5E" d="M451.898,153.436c-0.63,1.109-3.479,6.029-5.97,6.029c-1.05,0-1.5-0.84-1.5-2.16
		c0-0.359,0.03-0.779,0.09-1.229c-1.2,1.739-2.88,3.39-4.47,3.39c-1.05,0-1.5-0.84-1.5-2.16c0-3.149,2.13-8.909,3.03-10.529
		c0.899-1.59,3.359-0.57,2.88,0.66c-0.271,0.72-3.63,8.609-1.95,8.609c0.78,0,2.25-1.71,2.729-3.33
		c0.69-2.489,1.681-4.979,2.221-5.939c0.899-1.59,3.39-0.57,2.909,0.66c-0.3,0.72-3.659,8.609-1.949,8.609
		c0.779,0,2.159-2.07,2.819-3.12c0.15-0.27,0.54-0.239,0.66,0.061C451.958,153.105,451.958,153.285,451.898,153.436z"/>
	<path fill="#5D5E5E" d="M463.448,153.436c-0.63,1.109-3.479,6.029-5.97,6.029c-1.05,0-1.5-0.84-1.5-2.16
		c0-1.8,0.9-4.529,1.59-6.779c0.18-0.63,0.48-1.89,0.09-1.89c-0.75,0-2.58,2.669-3.359,4.89c-0.57,2.13-1.08,4.229-1.26,5.279
		c-0.211,1.32-2.7,0.57-2.7-1.35c0-1.65,2.01-8.85,2.91-10.68c0.81-1.65,3.359-0.57,2.88,0.66c-0.12,0.3-0.24,0.689-0.391,1.14
		c1.08-1.8,2.46-3.21,3.78-3.21c1.83,0,2.159,2.311,1.62,3.96c-0.87,2.58-2.37,6.72-1.17,6.72c0.779,0,2.159-2.07,2.819-3.12
		c0.15-0.27,0.54-0.239,0.66,0.061C463.507,153.105,463.507,153.285,463.448,153.436z"/>
	<path fill="#5D5E5E" d="M467.798,147.436c-0.27,0.72-3.63,8.609-1.949,8.609c0.779,0,2.159-2.07,2.819-3.12
		c0.181-0.27,0.54-0.239,0.69,0.061c0.06,0.12,0.06,0.3-0.03,0.45c-0.6,1.109-3.45,6.029-5.939,6.029c-1.05,0-1.5-0.84-1.5-2.16
		c0-3.149,2.13-8.909,3.029-10.529C465.819,145.186,468.279,146.205,467.798,147.436z M467.139,144.945
		c-1.021,0-1.38-1.26-0.841-2.79c0.511-1.56,1.801-2.79,2.82-2.79s1.41,1.23,0.87,2.79
		C469.449,143.686,468.189,144.945,467.139,144.945z"/>
	<path fill="#5D5E5E" d="M476.167,140.386c-0.21,0.689-1.08,2.939-2.1,6c0.63-0.091,1.109-0.15,1.29-0.181
		c0.659-0.09-0.061,2.16-0.811,2.521c-0.239,0.09-0.689,0.149-1.29,0.18c-0.239,0.81-0.51,1.65-0.75,2.49
		c-0.659,2.31-1.29,4.649-0.21,4.649c1.11,0,2.431-2.07,3.09-3.12c0.181-0.27,0.54-0.239,0.66,0.061c0.09,0.12,0.061,0.3,0,0.45
		c-0.63,1.109-3.359,6.029-6.21,6.029c-1.199,0-1.77-0.84-1.77-2.16c0-1.8,0.9-4.529,1.59-6.779c0.15-0.51,0.33-1.05,0.51-1.62
		c-0.569-0.03-1.02-0.03-1.229-0.06c-0.78-0.03,0.06-1.591,0.84-1.74c0.18-0.061,0.54-0.12,1.02-0.18
		c1.051-3.21,2.13-6.391,2.46-7.2C474.007,138.016,476.557,139.126,476.167,140.386z"/>
	<path fill="#5D5E5E" d="M480.397,147.436c-0.27,0.72-3.63,8.609-1.949,8.609c0.779,0,2.159-2.07,2.819-3.12
		c0.181-0.27,0.54-0.239,0.69,0.061c0.06,0.12,0.06,0.3-0.03,0.45c-0.6,1.109-3.45,6.029-5.939,6.029c-1.05,0-1.5-0.84-1.5-2.16
		c0-3.149,2.13-8.909,3.029-10.529C478.417,145.186,480.877,146.205,480.397,147.436z M479.738,144.945
		c-1.021,0-1.38-1.26-0.841-2.79c0.511-1.56,1.801-2.79,2.82-2.79s1.41,1.23,0.87,2.79
		C482.047,143.686,480.788,144.945,479.738,144.945z"/>
	<path fill="#5D5E5E" d="M492.157,153.465c-0.93,1.561-3.54,6-7.229,6c-2.22,0-4.26-1.47-4.26-4.56c0-5.13,3.45-9.54,6.779-9.54
		c1.561,0,3.21,1.351,3.21,3.45c0,3.45-3.479,6.21-6.63,5.13c-0.029,0.3-0.06,0.6-0.06,0.899c0,1.471,0.66,2.521,1.83,2.521
		c2.52,0,5.04-3.24,5.699-4.47c0.15-0.301,0.54-0.21,0.69,0.09C492.247,153.105,492.217,153.345,492.157,153.465z M484.267,152.535
		c1.62,0.24,3.811-2.37,3.811-4.38c0-0.39-0.24-0.72-0.57-0.72C486.637,147.436,484.958,149.806,484.267,152.535z"/>
	<path fill="#5D5E5E" d="M500.197,153.436c-0.899,1.529-3.6,6.089-7.409,6.029c-0.12,0-0.21,0-0.301,0c-1.29,0-2.01-1.02-2.43-1.8
		c-0.21-0.36,0.75-1.53,0.96-1.17c0.271,0.569,0.66,1.17,1.26,1.17c1.051,0,1.5-1.771,1.5-2.7c0-1.74,0-2.97,0-4.17
		c-0.75,1.5-1.41,2.67-1.739,3.21c-0.33,0.54-0.96-0.09-0.66-0.569c0.81-1.44,1.77-3.33,2.43-5.641c0.06-3.18,2.939-5.85,4.47-4.77
		c1.26,0.93-0.15,3.27-1.95,5.58c0.271,1.649,0.78,3.359,0.78,5.729c0,0.63-0.09,1.2-0.21,1.68c1.26-1.02,2.25-2.43,2.64-3.119
		c0.15-0.301,0.54-0.21,0.66,0.09C500.287,153.105,500.287,153.315,500.197,153.436z"/>
</g>
<g>
	<g>
		<path fill="#615F59" d="M288.401,67.689c1.084,0.153,2.029,0.465,2.744,0.914c0.952,0.598,1.396,1.353,1.396,2.378v2.7
			c0,1.875-1.525,3.401-3.401,3.401h-2.652L288.401,67.689 M286.79,65.58l-2.751,13.503h5.101c2.983,0,5.401-2.418,5.401-5.401v-2.7
			C294.541,67.323,290.905,65.58,286.79,65.58L286.79,65.58z"/>
	</g>
	<g>
		<path fill="#615F59" d="M262.086,111.338l-1.91,9.375c-2.593-0.441-4.144-1.996-4.144-4.273v-1.699
			c0-1.876,1.526-3.402,3.401-3.402H262.086 M264.535,109.338h-5.101c-2.983,0-5.401,2.419-5.401,5.402v1.699
			c0,3.717,2.956,6.402,7.751,6.402L264.535,109.338L264.535,109.338z"/>
	</g>
	<g>
		<g>
			<path fill="#615F59" d="M270.417,89.911c-0.389-0.216-0.712,0.237-0.712,0.776c0,0.732,0.259,1.357,0.798,1.703
				C270.804,91.075,270.761,90.084,270.417,89.911z"/>
		</g>
		<g>
			<path fill="#615F59" d="M273.695,102.545c0,0.41,0.259,0.669,0.561,0.669c0.604,0,0.992-0.733,1.251-1.769
				c0.129-0.431,0.237-0.926,0.388-1.422C274.687,100.756,273.695,101.662,273.695,102.545z"/>
		</g>
		<g>
			<path fill="#615F59" d="M287.79,77.332h-23.006c-6.295,0-10.751,6.25-10.751,10.751v29.756c0-6.751,3.769-6.751,6.751-6.751
				h23.006c6.532,0,10.751-5.501,10.751-10.751V70.581C294.541,77.332,290.772,77.332,287.79,77.332z M282.492,94.18
				c-0.539,1.078-2.264,3.234-3.924,4.398c-0.13,0.496-0.28,0.992-0.41,1.445c-0.884,3.018-2.091,4.226-3.601,4.226
				c-1.271,0-1.789-0.755-1.789-1.66c0-1.79,2.005-3.126,3.492-3.903c0.173-0.668,0.389-1.379,0.583-2.069
				c-0.819,1.035-1.833,1.897-2.825,1.897c-0.754,0-1.078-0.604-1.078-1.553c0-1.143,0.391-2.764,0.86-4.238
				c-0.376,0.196-0.792,0.379-1.229,0.509c-0.043,0.151-0.107,0.323-0.15,0.495c-1.143,3.343-2.911,4.787-4.377,4.787
				c-2.479,0-2.803-3.127-2.178-5.562c0.905-3.515,1.833-5.735,3.04-8.625c0.518-1.229,2.501-0.388,2.07,0.475
				c-1.1,2.199-4.938,12.224-2.954,12.224c0.453,0,1.25-1.186,2.026-3.147c0.087-0.216,0.173-0.452,0.237-0.69
				c-0.905-0.387-1.337-1.293-1.337-2.155c0-1.187,0.928-2.652,2.415-2.652c1.272,0,1.94,1.531,1.423,4.01
				c0.507-0.173,0.964-0.419,1.349-0.663c0.366-1.028,0.737-1.894,0.981-2.334c0.647-1.143,2.437-0.409,2.092,0.474
				c-0.216,0.518-2.631,6.188-1.423,6.188c0.539,0,1.487-1.078,1.897-2.155c0.539-1.704,1.078-3.277,1.573-4.464
				c0.518-1.229,2.437-0.409,2.092,0.475c-0.712,1.746-1.596,4.636-2.372,7.331c1.035-0.756,1.984-1.769,3.04-3.429
				c0.13-0.194,0.389-0.173,0.496,0.043C282.556,93.943,282.556,94.072,282.492,94.18z"/>
		</g>
	</g>
</g>
</svg>
