<?xml version="1.0" encoding="utf-8"?>
<!-- Generator: Adobe Illustrator 16.0.0, SVG Export Plug-In . SVG Version: 6.00 Build 0)  -->
<!DOCTYPE svg PUBLIC "-//W3C//DTD SVG 1.1//EN" "http://www.w3.org/Graphics/SVG/1.1/DTD/svg11.dtd">
<svg version="1.1" id="Layer_1" xmlns="http://www.w3.org/2000/svg" xmlns:xlink="http://www.w3.org/1999/xlink" x="0px" y="0px"
	 width="40px" height="40px" viewBox="0 0 40 40" enable-background="new 0 0 40 40" xml:space="preserve">
<polyline fill="none" stroke="#010101" stroke-linejoin="round" stroke-miterlimit="10" points="14.105,23.447 4.5,23.447 4.5,36.5 
	35.5,36.5 35.5,23.447 25.895,23.447 "/>
<polyline fill="none" stroke="#010101" stroke-linejoin="round" stroke-miterlimit="10" points="13.474,23.447 1.237,23.447 
	6.131,12.026 15.921,12.026 "/>
<polyline fill="none" stroke="#010101" stroke-linejoin="round" stroke-miterlimit="10" points="23.908,12.026 33.868,12.026 
	38.763,23.447 26.526,23.447 "/>
<rect x="7.763" y="5.5" fill="none" stroke="#010101" stroke-linejoin="round" stroke-miterlimit="10" width="3.263" height="6.526"/>
<line fill="none" stroke="#010101" stroke-linecap="round" stroke-linejoin="round" stroke-miterlimit="10" x1="6.157" y1="5.5" x2="12.658" y2="5.5"/>
<rect x="28.974" y="5.5" fill="none" stroke="#010101" stroke-linejoin="round" stroke-miterlimit="10" width="3.264" height="6.526"/>
<line fill="none" stroke="#010101" stroke-linecap="round" stroke-linejoin="round" stroke-miterlimit="10" x1="27.368" y1="5.5" x2="33.868" y2="5.5"/>
<rect x="14.29" y="18.553" fill="none" stroke="#010101" stroke-linecap="round" stroke-linejoin="round" stroke-miterlimit="10" width="11.421" height="17.947"/>
<polygon fill="none" stroke="#010101" stroke-linecap="round" stroke-linejoin="round" stroke-miterlimit="10" points="20,7.165 
	28.974,18.553 11.026,18.553 "/>
<rect x="28.974" y="26.711" fill="none" stroke="#010101" stroke-linejoin="round" stroke-miterlimit="10" width="3.264" height="3.263"/>
<rect x="7.763" y="26.711" fill="none" stroke="#010101" stroke-linejoin="round" stroke-miterlimit="10" width="3.263" height="3.263"/>
<rect x="17.553" y="26.711" fill="none" stroke="#010101" stroke-linejoin="round" stroke-miterlimit="10" width="4.895" height="9.789"/>
</svg>
