<?xml version="1.0" encoding="utf-8"?>
<!-- Generator: Adobe Illustrator 16.0.0, SVG Export Plug-In . SVG Version: 6.00 Build 0)  -->
<!DOCTYPE svg PUBLIC "-//W3C//DTD SVG 1.1//EN" "http://www.w3.org/Graphics/SVG/1.1/DTD/svg11.dtd">
<svg version="1.1" id="Layer_1" xmlns="http://www.w3.org/2000/svg" xmlns:xlink="http://www.w3.org/1999/xlink" x="0px" y="0px"
	 width="40px" height="40px" viewBox="0 0 40 40" enable-background="new 0 0 40 40" xml:space="preserve">
<path fill="none" stroke="#231F20" stroke-miterlimit="10" d="M29.071,19.355c0,4.732-3.839,8.571-8.571,8.571
	c-4.734,0-8.571-3.839-8.571-8.571v-8.571c0-4.733,3.837-8.571,8.571-8.571c4.732,0,8.571,3.838,8.571,8.571V19.355z"/>
<line fill="none" stroke="#231F20" stroke-miterlimit="10" x1="20.5" y1="31.355" x2="20.5" y2="37.355"/>
<line fill="none" stroke="#231F20" stroke-linecap="round" stroke-miterlimit="10" x1="22.214" y1="3.07" x2="22.214" y2="7.355"/>
<line fill="none" stroke="#231F20" stroke-linecap="round" stroke-miterlimit="10" x1="18.786" y1="3.07" x2="18.786" y2="7.355"/>
<line fill="none" stroke="#231F20" stroke-miterlimit="10" x1="8.999" y1="22.726" x2="32.001" y2="22.726"/>
<line fill="none" stroke="#231F20" stroke-linecap="round" stroke-miterlimit="10" x1="11.929" y1="12.44" x2="17.071" y2="12.44"/>
<line fill="none" stroke="#231F20" stroke-linecap="round" stroke-miterlimit="10" x1="11.929" y1="15.869" x2="17.071" y2="15.869"/>
<line fill="none" stroke="#231F20" stroke-linecap="round" stroke-miterlimit="10" x1="23.929" y1="12.44" x2="29.071" y2="12.44"/>
<line fill="none" stroke="#231F20" stroke-linecap="round" stroke-miterlimit="10" x1="23.929" y1="15.869" x2="29.071" y2="15.869"/>
<path fill="none" stroke="#231F20" stroke-linecap="round" stroke-miterlimit="10" d="M8.5,16.726v2.571c0,6.628,5.372,12,12,12
	s12-5.372,12-12v-2.571"/>
</svg>
