<?xml version="1.0" encoding="utf-8"?>
<!-- Generator: Adobe Illustrator 16.0.0, SVG Export Plug-In . SVG Version: 6.00 Build 0)  -->
<!DOCTYPE svg PUBLIC "-//W3C//DTD SVG 1.1//EN" "http://www.w3.org/Graphics/SVG/1.1/DTD/svg11.dtd">
<svg version="1.1" id="Layer_1" xmlns="http://www.w3.org/2000/svg" xmlns:xlink="http://www.w3.org/1999/xlink" x="0px" y="0px"
	 width="40px" height="40px" viewBox="0 0 40 40" enable-background="new 0 0 40 40" xml:space="preserve">
<g>
	<polyline fill="none" stroke="#010101" stroke-linejoin="round" stroke-miterlimit="10" points="8.508,25.947 1.75,15.734 
		33.479,15.734 19.201,30.013 16.028,30.013 	"/>
	<circle fill="none" stroke="#010101" stroke-linejoin="round" stroke-miterlimit="10" cx="11.269" cy="30.013" r="4.759"/>
	
		<line fill="none" stroke="#010101" stroke-linecap="round" stroke-linejoin="round" stroke-miterlimit="10" x1="33.479" y1="15.734" x2="38.271" y2="10.975"/>
	<path fill="none" stroke="#010101" stroke-linecap="round" stroke-linejoin="round" stroke-miterlimit="10" d="M33.479,15.868
		v14.917c0,0.536-0.27,1.034-0.719,1.327c-0.447,0.293-1.013,0.34-1.504,0.126l-7.687-6.594"/>
	<path fill="none" stroke="#010101" stroke-linejoin="round" stroke-miterlimit="10" d="M29.858,15.734c0-2.885-1.828-4.8-4.081-4.8
		c-0.68,0-1.316,0.167-1.881,0.462C23.3,8.459,20.713,6.25,17.614,6.25c-3.102,0-5.687,2.209-6.284,5.146
		c-0.564-0.294-1.201-0.462-1.877-0.462c-2.256,0-4.083,1.872-4.083,4.8"/>
</g>
</svg>
