<?xml version="1.0" encoding="utf-8"?>
<!-- Generator: Adobe Illustrator 18.1.1, SVG Export Plug-In . SVG Version: 6.00 Build 0)  -->
<svg version="1.1" id="Layer_1" xmlns="http://www.w3.org/2000/svg" xmlns:xlink="http://www.w3.org/1999/xlink" x="0px" y="0px"
	 viewBox="0 0 608.6 140" enable-background="new 0 0 608.6 140" xml:space="preserve">
<g id="Calque_7">
	<path fill="none" d="M375.9,137.3c-0.8-0.1-1.7-0.3-2.6-0.4v0.4c0.9,0.1,1.7,0.3,2.6,0.3V137.3z"/>
	<polygon fill="#FFF1B7" points="478.3,141.5 492.7,141.5 478.3,141 	"/>
	<path fill="#FFF1B7" d="M230.2,141.5h11.3c0.1-0.1,0.2-0.1,0.2-0.2L230.2,141.5L230.2,141.5z"/>
	<path fill="#FFF1B7" d="M287.6,141c0.1,0.2,0.2,0.4,0.4,0.5h2.4V141H287.6z"/>
	<path fill="#F15730" d="M252.3,132.7v-0.4c-0.1,0.1-0.3,0.3-0.4,0.4H252.3z"/>
	<rect x="396.5" y="141.5" fill="#F15730" width="22.1" height="0.5"/>
	<path fill="#FFF1B7" d="M531.9,107.4v0.6h-10.3v-2.1c-3.6,0.1-6.8,0.6-9.9,1.5c-6.1-18.3-23.3-31.5-43.6-31.8
		C462.6,63.5,450.3,55,436,55c-7.5,0-14.4,2.3-20,6.2c-7.7-9.1-18.9-15.2-31.5-16.3c-3.4-12-11.6-22-22.3-27.9
		c0.4-0.9,0.6-2,0.6-3.1c0-4.6-3.7-8.3-8.3-8.3c-3.8,0-7,2.6-8,6.1c-2.2-0.3-4.5-0.5-6.8-0.5c-15.7,0-29.6,7.8-38,19.6
		c-2-0.5-4.1-0.8-6.2-0.8c-5.5,0-10.6,1.8-14.7,4.8c-0.5-0.2-0.9-0.3-1.4-0.4c-1.6-9.3-9.8-16.5-19.7-16.5c-9.8,0-18,7.1-19.6,16.4
		c-1.8-1-3.9-1.5-6.1-1.5c-5.3,0-9.8,3.2-11.9,7.7c-3.4-0.7-7-1-10.6-1c-26,0-47.8,17.9-53.8,42.1c-3.2-0.8-6.6-1.2-10.1-1.2
		c-1.2,0-2.4,0.1-3.4,0.2v47.5l0.1,1l8,3l5.8-2.5V141l0.5,0.5V105l20.6-9.8v41.1l0.3,0.5h9l3.2-1.7l0.9-40.4H208v-5.1l5.8-0.4
		l1.4,1.4v4.1h14.9v42.1c2.1-0.2,7.9-0.4,11.6-2.1c1.7-0.8-0.3-1.9-0.3-1.9V77.7h17v5.7h31.9v20.6h5.7v37.5h12.4v-33.9h9.3V58.2
		h23.2l0.5,33.4h3.1v-4.1h8.2v4.1h4.1v25.7h1h3.1l-0.5-9.3h3.1H382v-6.2l19.6-0.5l0.3-6.7l4.1-0.2l-0.3-4.7l10.9-0.1l3,3.1v3.1v30.9
		h4.6V141h-5.1v-10.8h-8.2h-5.7v-3.6h-0.5v3.6h-11.3h-2.1V141h-4.6v-0.5h-5.1v-21.1H381v22.1h10.8v-10.8h26.8v10.8h5.7l0.3-17.5
		l1.8,0.1V81.9h16v29.3h2.6v-7.7v-5.8l2.6,0.6h17v-4.6l13.9,4.6l0.3,31.5l2.3-2.1l2.8,3.5c0,0,3,1,3.5,1.3c0.5,0.4,4.8,0.3,4.8,0.3
		l0.3-19l25.2,0.5v-4.1h14.4v19.5h3.6V141h-11.8v-11.3h-0.5v11.8h18V124h11.6C548.4,116.1,541.1,110.1,531.9,107.4z M304.3,141h-7.2
		v-27.8l7.2,2.1V141z M373.8,104.5h-13.4v-6.2h13.4V104.5z M440.2,78.7h-11.8v-2.6h11.8V78.7z M536.3,141l-0.5-6.3l4.7-1.1l0.4,7.7
		L536.3,141z"/>
	<path fill="#FFF1B7" d="M436,13.9c0-3.8-3.3-7.5-7.5-7.5c-4.1,0-7.5,3.8-7.5,7.5H436z"/>
	<path fill="#FFF1B7" d="M447.6,13.9c0-4.8-4.7-10.4-10.5-10.4s-10.5,5.7-10.5,10.4H447.6z"/>
	<path fill="#FFF1B7" d="M82.4,27.8c0-3.9,3.6-7.9,7.9-7.9s7.9,4,7.9,7.9H82.4z"/>
	<path fill="#FFF1B7" d="M64.6,27.8c0-5,4.9-11.1,11.1-11.1c6.2,0,11.1,6,11.1,11.1H64.6z"/>
	<g>
		<path fill="#FFF1B7" d="M535.4,42.2c0-5.7-4.5-10-10-10c-5.6,0-10,4.4-10,10H535.4z"/>
		<path fill="#FFF1B7" d="M555.7,42.2c0-6.7-6.3-14-14.1-14c-7.8,0-14.1,7.4-14.1,14H555.7z"/>
	</g>
	<path fill="#FFF1B7" d="M57.8,27.8c0-2.9,2.6-5.9,5.9-5.9s5.9,3,5.9,5.9H57.8z"/>
</g>
<g id="Calque_5">
	<rect x="59" y="109.5" fill="#F15730" width="11.8" height="31.8"/>
	<path fill="#F15730" d="M102.1,61.7l-6.3,3.4c-1.9,1-3,3-3,5.1v71.2h9.3L102.1,61.7z"/>
	<polygon fill="#F15730" points="106.1,52.5 106.1,57.7 123.1,57.7 123.1,66.9 106.1,66.9 106.1,141.5 132.3,141.5 132.3,56.6 
		132.3,54.6 130,53.3 	"/>
	<polygon fill="#F15730" points="135.4,60.2 135.4,141.5 144.2,141.5 144.2,69.5 143.8,65.5 142.8,64.3 	"/>
	<polygon fill="#F15730" points="161.7,103.4 161.7,141.5 179.2,141.5 179.2,95.2 	"/>
	<rect x="195.1" y="94.7" fill="#F15730" width="35" height="46.8"/>
	<polygon fill="#F15730" points="208,89.5 208,94.7 215.2,94.7 215.2,90.6 213.8,89.1 	"/>
	<rect x="255.4" y="83.4" fill="#F15730" width="35" height="57.6"/>
	<polygon fill="#F15730" points="244.6,77.7 244.6,132.7 252.3,132.7 252.3,83.9 258.5,83.9 258.5,77.7 	"/>
	<rect x="290.4" y="107" fill="#F15730" width="5.7" height="34.5"/>
	<polygon fill="#F15730" points="299.2,113.2 299.2,141 304.3,141 304.3,115.3 	"/>
	<polygon fill="#F15730" points="311,107.5 311,141.5 325.9,141.5 325.9,119.4 329,119.4 329,141.5 346,141.5 346,118.9 
		340.9,118.9 340.9,58.2 320.3,58.2 320.3,107.5 	"/>
	<polygon fill="#F15730" points="343.9,91.6 343.9,141.5 353.7,141.5 353.7,117.3 356.8,117.3 356.8,91.6 352.7,91.6 352.7,87.5 
		346,87.5 346,91.6 	"/>
	<rect x="357.9" y="117.3" fill="#F15730" width="15.4" height="24.2"/>
	<polygon fill="#F15730" points="363,108.1 363,117.3 373.3,117.3 373.3,119.4 381.5,119.4 381.5,140.5 386.7,140.5 386.7,108.1 
		363.5,108.1 	"/>
	<polygon fill="#F15730" points="375.9,118.9 375.9,141.5 381,141.5 381,119.4 	"/>
	<polygon fill="#F15730" points="384.6,101.9 384.6,108.1 386.7,108.1 386.7,141 391.3,141 391.3,109.1 394.9,109.1 394.9,130.2 
		397,130.2 404.7,130.2 404.7,126.6 408.3,126.6 408.3,130.2 410.9,130.2 419.1,130.2 419.1,141 424.3,141 424.3,126.6 419.6,126.6 
		419.6,95.7 419.6,92.6 416.6,89.5 408.8,89.5 408.8,101.4 	"/>
	<polygon fill="#F15730" points="428.4,81.8 428.4,124 428.4,141.5 448.5,141.5 448.5,124 442.3,124 442.3,81.8 	"/>
	<polygon fill="#F15730" points="444.9,103.4 444.9,124 447.4,124 447.4,141.5 457.7,141.5 457.7,108.1 	"/>
	<polygon fill="#F15730" points="447.4,98.3 447.4,104.5 447.4,141.5 464.4,141.5 464.4,98.3 	"/>
	<polygon fill="#F15730" points="467.5,94.7 467.5,141.5 478.3,141.5 478.3,98.3 	"/>
	<rect x="495.8" y="114.2" fill="#F15730" width="24.7" height="27.3"/>
	<polygon fill="#F15730" points="519.5,110.1 519.5,141.5 523.1,141.5 523.1,129.7 531.9,129.7 531.9,110.1 	"/>
	<rect x="525.7" y="129.7" fill="#F15730" width="9.8" height="11.3"/>
	<rect x="543.2" y="124" fill="#F15730" width="15.4" height="17.5"/>
	<polygon fill="#F15730" points="564.3,128.1 564.3,141.5 576.7,141.5 576.7,127.1 	"/>
	<polyline fill="#F15730" points="396.5,130.7 396.5,142 418.6,142 418.6,130.7 396.5,130.7 	"/>
	<polygon fill="#F15730" points="15.9,141.3 39,132.2 43,131.8 56.1,134.3 56.1,141.5 31.9,141.2 	"/>
	<path fill="#F15730" d="M70.8,130.3l5.3-1.2c0,0,0.9,2.6,1.3,2.7c0.4,0.2,2.4,1.2,2.9,1.4c0.5,0.3,9.1-0.8,9.1-0.8l0.4,8.7
		l-19.4-0.4L70.8,130.3z"/>
	<polygon fill="#F15730" points="144.3,134.3 152.3,135.8 158.1,133.3 158.1,141 144.2,141.5 	"/>
	<polygon fill="#F15730" points="179.4,139.5 188.5,139 192.1,138 191.5,141.2 179.2,141.5 	"/>
	<path fill="#F15730" d="M229.5,138.9c0,0,13.3-1.6,13.5-1.6c0.3,0,1.5-0.7,1.5-0.7v-1.3l1.4-0.5h5.2l0.6,6.4l-22.7,0.3L229.5,138.9
		z"/>
	<path fill="#F15730" d="M478.7,132.6l2.2-0.6l1.2,1.7c0,0,2,0.7,2.5,1c0.5,0.4,8.1,0.3,8.1,0.3v6.4l-14.4-0.5L478.7,132.6z"/>
	<polygon fill="#F15730" points="535.7,137.2 540.5,135.6 540.9,141.2 536.3,141 	"/>
	<polygon fill="#F15730" points="558.7,135.8 560.7,135.8 561.2,141.2 558.7,141.5 	"/>
	<path fill="#F15730" d="M576.9,136.3l0.3,4.6l25.7,0.5l-4.2-1.4l-4.3-1.7c0,0-2.4-0.9-2.8-0.9s-3.2,1-3.9,0.9c-0.6-0.1-4.8,0-4.8,0
		s-0.7-1.2-1-1.2C581.6,137.2,576.9,136.3,576.9,136.3z"/>
</g>
<g id="Calque_3">
	<path fill="#6B1514" d="M605.7,140.5c-4.2-2.2-8.8-4.6-9.3-5.1c-0.9-1.2-5.7-1.5-5.8-1.5c-0.7-0.1-4.8,0.6-6.2,0.8l-2.9-1.7
		l-3.8,0.8v-6.6h-17v5.5l-1.5-0.6v-8.5h-19.1v9.6l-3.6,0.6v-5.1h-3.6v-0.7v-3.6v-1.5v-3.6v-1.5V114v-4.9h-16.5v4.1h-4.6v-5.7h-1.5
		v5.7h-19.1v18.5h-4l-2.9-1.1c-0.3-0.5-1-1.5-1.8-2.8c-0.3-0.5-0.8-0.8-1.3-0.8c-0.7,0-1.5,0.5-2.2,1h-0.3v-2.6h1v-1.5h-1v-2.6h1
		v-1.5h-1v-2.6h1v-1.5h-1v-2.6h1v-1.5h-1V109h1v-1.5h-1v-2.6h1v-1.5h-1v-2.6h1v-1.5h-1v-2l-8.8-2.7v-2.9h-1.5v2.5l-4.6-1.4v4.5
		h-13.4v-0.5H449v0.5h-4.6v5l-1.5-0.5V81.3h-2.6v-1h1v-5.1h-13.9v5.1h1.5v1h-3.6V123h-1.5v2.6h-3.1V92.4l-3.3-3.4h-12.2v4.6h-4.1
		v7.2H381v6.2h-7.7v-1.5h1.5v-8.2h-14.9v8.2h2.1v1.5h-2.1v9.3h-2.1V90.6h-4.1V87h-10.3v3.6h-1.5v-2.1h1V87h-1v-3.6h1v-1.5h-1v-3.6h1
		v-1.5h-1v-3.6h1v-1.5h-1v-4.1h1v-1.5h-1v-3.6h1v-1.5h-1v-3.6h-3.6v-7.7h-1.5v7.7h-2.1v-1.5h-1.5v1.5h-16.5v3.6h-1v1.5h1v3.6h-1v1.5
		h1v4.1h-1v1.5h1v3.6h-1v1.5h1v3.6h-1v1.5h1V87h-1v1.5h1v4.1h-1v1.5h1v3.6h-1v1.5h1v3.6h-1v1.5h1v2.6h-9.3v33.4h-2.1v-25.9l-8.2-2.7
		v-8.5h-5.7V82.9h-25.7v-3.6h-1.5v3.6h-4.6v-6.2h-6.7v-4.6h-1.5v4.6h-2.6v-2.6h-1.5v2.6h-6.7v58.1l-10.3,1.1v-1.5h2.6v-1.5h-2.6
		v-2.6h2.6v-1.5h-2.6v-3.1h2.6V124h-2.6v-2.6h2.6v-1.5h-2.6v-3.1h2.6v-1.5h-2.6v-2.6h2.6v-1.5h-2.6v-3.1h2.6v-1.5h-2.6v-2.6h2.6
		v-1.5h-2.6v-2.6h2.6v-1.5h-2.6v-4.6h-13.9v-2.6c0-1.5-1.3-2.6-2.8-2.6h-5.3c-1.5,0-2.7,1-2.7,2.6v2.6h-14.4v4.6h-2.6v1.5h2.6v2.6
		h-2.6v1.5h2.6v2.6h-2.6v1.5h2.6v3.1h-2.6v1.5h2.6v2.6h-2.6v1.5h2.6v3.1h-2.6v1.5h2.6v2.6h-2.6v1.5h2.6v3.1h-2.6v1.5h2.6v2.6h-2.6
		v1.5h2.6v1l-3.8,1.6h-7.1V93.4l-22.7,11.1V128l-5.3,3l-4.9-1.5l-2.2-0.1v-0.8h2.1v-1.5h-2.1V124h2.1v-1.5h-2.1v-3.1h2.1v-1.5h-2.1
		v-3.6h2.1v-1.5h-2.1v-3.1h2.1v-1.5h-2.1V105h2.1v-1.5h-2.1v-3.1h2.1v-1.5h-2.1v-3.1h2.1v-1.5h-2.1v-3.1h2.1v-1.5h-2.1v-3.6h2.1
		v-1.5h-2.1v-3.1h2.1v-1.5h-2.1v-3.1h2.1v-1.5h-2.1v-3.1h2.1v-1.5h-2.1v-2.7c0-2-1.1-3.9-2.9-4.8l-9.4-4.8v-2.6
		c0-1.7-1.4-3.1-3.1-3.1h-25.2c-1.7,0-3.1,1.4-3.1,3.1v2.6L92,63c-1.8,0.9-2.9,2.8-2.9,4.8v2.7h-1.5v1.5h1.5v3.1h-1.5v1.5h1.5v3.1
		h-1.5v1.5h1.5v3.1h-1.5v1.5h1.5v3.6h-1.5v1.5h1.5v3.1h-1.5v1.5h1.5v3.1h-1.5v1.5h1.5v3.1h-1.5v1.5h1.5v3.1h-1.5v1.5h1.5v3.1h-1.5
		v1.5h1.5v3.6h-1.5v1.5h1.5v3.1h-1.5v1.5h1.5v3.1h-1.5v1.5h1.5v0.9l-4.1-0.1c-2.1-0.2-4.6-0.6-5-0.9l-2.8-2.8l-5.7,1v-18.2h-16v22.2
		c-2.6-0.6-9.5-2.2-11-2.4c-1.9-0.3-5.5,0.3-5.6,0.3l-37,15l0.6,1.4l36.7-14.9c0.6-0.1,3.6-0.5,5.1-0.3c1.5,0.2,9,2,11.2,2.5v8.1
		H-0.3v1.5h55.9h16h29.9h31.4h58.4h39.1h20.7h40.3h16.2H324h1.4h21.6h47h25.8h3.7h24.7h15.6h15.2h12.4h29.9h18.8h19.2h49.3v-1.5
		H605.7z M303.8,115.7v24.8h-6.7v-27L303.8,115.7z M295.6,111.1h-4.1v-1.5h4.1V111.1z M295.6,112.7v1.5h-4.1v-1.5H295.6z
		 M295.6,115.8v1.5h-4.1v-1.5H295.6z M295.6,118.9v1.5h-4.1v-1.5H295.6z M295.6,121.9v1.5h-4.1v-1.5H295.6z M295.6,125v1.5h-4.1V125
		H295.6z M295.6,128.1v1.5h-4.1v-1.5H295.6z M295.6,131.2v1.5h-4.1v-1.5H295.6z M295.6,134.3v1.5h-4.1v-1.5H295.6z M295.6,105v3.1
		h-4.1V105H295.6z M258,78.2v4.6h-6.7V132c-2.1,0-6.7,0.1-7.9,0c-0.5-0.1-1,0.2-1.3,0.5c0,0-0.1,0.1-0.1,0.1V78.2H258z M207,91.1
		c0-0.7,0.5-1,1.1-1h5.3c0.7,0,1.3,0.3,1.3,1v2.6h-7.7L207,91.1L207,91.1z M192.6,95.2h12.8h10.9h12.4v3.1h-36V95.2z M192.6,99.8h36
		v2.6h-36V99.8z M192.6,103.9h36v2.6h-36V103.9z M192.6,108.1h36v3.1h-36V108.1z M192.6,112.7h36v2.6h-36V112.7z M192.6,116.8h36
		v3.1h-36V116.8z M192.6,121.4h36v2.6h-36V121.4z M192.6,125.5h36v3.1h-36V125.5z M192.6,130.2h36v2.6h-36V130.2z M178.7,95.9v44.5
		h-19.6v-35L178.7,95.9z M147.2,130.9l5.4,1.7l5-2.9v10.7h-12.4v-7.2h2.1v-1.5h-2.1v-0.8L147.2,130.9z M143.7,131.7h-10.8v-3.1h10.8
		V131.7z M143.7,127.1h-10.8V124h10.8V127.1z M143.7,122.5h-10.8v-3.1h10.8V122.5z M143.7,117.8h-10.8v-3.6h10.8V117.8z
		 M143.7,112.7h-10.8v-3.1h10.8V112.7z M143.7,108.1h-10.8V105h10.8V108.1z M143.7,103.4h-10.8v-3.1h10.8V103.4z M143.7,98.8h-10.8
		v-3.1h10.8V98.8z M143.7,94.2h-10.8v-3.1h10.8V94.2z M143.7,89.5h-10.8v-3.6h10.8V89.5z M143.7,84.4h-10.8v-3.1h10.8V84.4z
		 M143.7,79.8h-10.8v-3.1h10.8V79.8z M143.7,75.1h-10.8v-3.1h10.8V75.1z M141.6,64.4c1.3,0.7,2.1,2,2.1,3.4v2.7h-10.8V59.9
		L141.6,64.4z M90.6,67.8c0-1.4,0.8-2.8,2.1-3.4l8.7-4.5v10.6H90.6V67.8z M90.6,72.1h10.8v3.1H90.6V72.1z M90.6,76.7h10.8v3.1H90.6
		V76.7z M90.6,81.3h10.8v3.1H90.6V81.3z M90.6,85.9h10.8v3.6H90.6V85.9z M90.6,91.1h10.8v3.1H90.6V91.1z M90.6,95.7h10.8v3.1H90.6
		V95.7z M90.6,100.3h10.8v3.1H90.6V100.3z M90.6,105h10.8v3.1H90.6V105z M90.6,109.6h10.8v3.1H90.6V109.6z M90.6,114.2h10.8v3.6
		H90.6V114.2z M90.6,119.4h10.8v3.1H90.6V119.4z M90.6,124h10.8v3.1H90.6V124z M101.4,128.6v3.1H90.6v-3.1H101.4z M57.2,140.5v-30.3
		H70v30.3H57.2z M71.6,128.3l5.1-0.9l2.2,2.2c0.8,0.8,4.1,1.2,6,1.3l4.1,0.1v0.7h-1.5v1.5h1.5v7.2H71.6V128.3z M90.6,140.5v-7.2
		h10.8v7.2H90.6z M103,140.5v-7.2v-1.5v-3.1v-1.5V124v-1.5v-3.1v-1.5v-3.6v-1.5v-3.1v-1.5V105v-1.5v-3.1v-1.5v-3.1v-1.5v-3.1v-1.5
		v-3.6v-1.5v-3.1v-1.5v-3.1v-1.5v-3.1v-1.5V55.6c0-0.9,0.7-1.5,1.5-1.5h25.2c0.9,0,1.5,0.7,1.5,1.5v84.9H103z M132.8,133.3h10.8v7.2
		h-10.8V133.3z M180.2,140.5v-2.1h7.4l3.4-1.5v3.5H180.2z M192.6,140.5v-6.2h36v6.2H192.6z M230.2,140.5v-3.1L243,136l-0.1-0.8
		c-0.1-0.7,0-1.5,0.2-1.6c0,0,0.1,0,0.2,0c1.2,0.1,5.9,0.1,8,0v6.9H230.2z M252.8,140.5V84.4h37.1v56.1H252.8z M291.4,137.4h4.1v3.1
		h-4.1V137.4z M581.2,134.6l2.9,1.6l0.3-0.1c2.7-0.4,5.7-0.9,6.2-0.9l0,0c0.8,0,3.9,0.5,4.5,0.9c0.3,0.4,1.5,1.3,7.2,4.3h-24.5v-5.1
		L581.2,134.6z M562.3,133.3h13.9v3.1h-13.9V133.3z M562.3,137.9h13.9v2.6h-13.9V137.9z M576.2,128.6v3.1h-13.9v-3.1H576.2z
		 M524.2,133.3H535v1.5h-10.8V133.3z M524.2,136.3H535v4.1h-10.8V136.3z M535,131.7h-10.8v-1.5H535V131.7z M521.1,126.1h10.3v0.5
		h-10.3V126.1z M531.4,124.5h-10.3V123h10.3V124.5z M521.1,120.9h10.3v0.5h-10.3V120.9z M531.4,119.4h-10.3v-1.5h10.3V119.4z
		 M521.1,115.8h10.3v0.5h-10.3V115.8z M518,110.6h13.4v3.6h-10.3v-1H518V110.6z M465.5,133.8h11.8v2.6h-11.8V133.8z M465.5,132.2
		v-2.6h11.8v2.6H465.5z M477.3,128.1h-11.8v-2.6h11.8V128.1z M477.3,124h-11.8v-2.6h11.8V124z M477.3,119.9h-11.8v-2.6h11.8V119.9z
		 M477.3,115.8h-11.8v-2.6h11.8V115.8z M477.3,111.7h-11.8v-2.6h11.8V111.7z M477.3,107.5h-11.8V105h11.8V107.5z M477.3,103.4h-11.8
		v-2.6h11.8V103.4z M465.5,94.8l11.8,3.7v0.8h-11.8v-2.1V94.8z M456.7,140.5h-4.6v-2.6h4.6V140.5z M452.1,136.3v-3.6h4.6v3.6H452.1z
		 M456.7,131.2h-4.6v-3.6h4.6V131.2z M448.5,127.6h2.1v3.6h-2.1V127.6z M456.7,126.1h-4.6v-3.6h4.6V126.1z M456.7,120.9h-4.6v-3.1
		h4.6V120.9z M445.9,117.8h4.6v3.1h-4.6V117.8z M456.7,116.3h-4.6v-4.1h4.6V116.3z M450.5,116.3h-4.6v-4.1h4.6V116.3z M445.9,122.5
		h4.6v3.6h-2.1V123h-2.6V122.5z M448.5,132.7h2.1v3.6h-2.1V132.7z M456.7,110.6h-4.6v-3.7l4.6,1.8V110.6z M450.5,110.6h-4.6v-6.1
		l4.6,1.8V110.6z M444.3,103.9V123h-1.5v-19.6L444.3,103.9z M428.9,76.7h10.8v2.1h-10.8V76.7z M430.4,80.3h8.2v1h-8.2V80.3z
		 M426.8,82.9h14.4V123h-14.4V82.9z M419.1,98.3h-16.5v-1h16.5V98.3z M416.8,90.6l2,2.1h-11.9v-2.1H416.8z M406.8,95.2v-1h12.4v1.5
		h-16.5v-0.5H406.8z M402.6,99.8h16.5v25.7h-1v-24.7h-15.4V99.8z M382.6,102.4h34v23.1H414v-17.5h-23.2v32.4h-3.1V107h-5.1V102.4z
		 M354.8,117.8h18v22.6h-18V117.8z M374.3,117.8h11.8v1.5h-3.6v-1h-8.2V117.8z M386.2,113.2h-24.7v-1.5h24.7V113.2z M386.2,134.3
		h-3.6v-1.5h3.6V134.3z M386.2,131.2h-3.6v-1.5h3.6V131.2z M386.2,128.1h-3.6v-1.5h3.6V128.1z M386.2,125h-3.6v-1.5h3.6V125z
		 M386.2,121.9h-3.6v-1h3.6V121.9z M374.3,119.9h6.7v20.6h-6.7V119.9z M382.6,135.8h3.6v4.6h-3.6V135.8z M361.5,98.8h11.8v5.1h-11.8
		V98.8z M363.5,105.5h8.2v1.5h-8.2V105.5z M386.2,108.6v1.5h-24.7v-1.5H386.2z M361.5,114.7h24.7v1.5h-11.8h-1h-11.8V114.7z
		 M356.3,116.3h-1V92.1h1V116.3z M345,88.5h7.2v2.1H345V88.5z M345.5,92.1v26.2h-3.6v-0.5h1v-1.5h-1v-3.1h1v-1.5h-1v-2.6h1v-1.5h-1
		v-3.1h1v-1.5h-1v-3.6h1v-1.5h-1v-3.6h1v-1.5h-1v-0.5H345.5z M345.5,119.9v1H327v-1H345.5z M327,122.5h18.5v1H327V122.5z M327,125
		h18.5v1H327V125z M327,127.6h18.5v1H327V127.6z M327,130.2h18.5v0.5H327V130.2z M327,132.2h18.5v1H327V132.2z M327,134.8h18.5v1
		H327V134.8z M327,137.4h18.5v1H327V137.4z M323.9,109.1h16.5v2.6h-16.5V109.1z M323.9,113.2h16.5v3.1h-16.5V113.2z M318.2,58.7
		h22.1v2.1h-22.1V58.7z M318.2,62.3h22.1v3.6h-22.1V62.3z M318.2,67.4h22.1v4.1h-22.1V67.4z M318.2,73.1h22.1v3.6h-22.1V73.1z
		 M318.2,78.2h22.1v3.6h-22.1V78.2z M318.2,83.4h22.1V87h-22.1V83.4z M318.2,88.5h22.1v4.1h-22.1V88.5z M318.2,94.2h22.1v3.6h-22.1
		V94.2z M318.2,99.3h22.1v3.6h-22.1V99.3z M318.2,104.5h22.1v3.1h-16.5V107h-5.7V104.5z M308.9,140.5v-31.9h13.4v31.9H308.9z
		 M323.9,140.5v-22.6h16.5v0.5h-14.9v22.1H323.9z M327,140.5v-0.5h18.5v0.5H327z M347,140.5v-21.6v-0.6V92.1h2.6v48.3H347z
		 M351.2,92.1h2.6v24.2h-0.5v24.2h-2.1V92.1z M392.3,140.5v-30.9h20.1v15.9h-8.2v4.1h-10.3v10.8H392.3z M395.4,133.8h22.7v1.5h-22.7
		V133.8z M395.4,136.9h22.7v1.5h-22.7V136.9z M418.1,132.2h-22.7v-1h22.7V132.2z M395.4,140.5v-0.5h22.7v0.5H395.4z M419.6,140.5
		v-10.8h-13.9v-2.6h18v13.4H419.6z M425.3,140.5v-15.9h17.8h3.9v15.9H425.3z M448.5,137.9h2.1v2.6h-2.1V137.9z M458.3,140.5v-32.8
		l-12.4-4.8v-4h18v41.7H458.3z M465.5,140.5v-2.6h11.8v2.6H465.5z M478.8,140.5v-2.6h1v-1.5h-1v-2.6h1v-1.5h-1v-1.8
		c0.5-0.3,0.7-0.6,0.9-0.8h0.1v-0.1c0.6-0.6,1.1-1,1.3-1c0,0,0,0,0.1,0.1c1,1.6,1.9,2.9,1.9,2.9l0.2,0.2l3.7,1.4h4.3v7.2
		L478.8,140.5L478.8,140.5z M492.7,140.5v-25.7h26.8v2.9v1.5v3.6v1.5v3.6v12.5H492.7z M521.1,128.1h10.3v0.5h-8.8v11.8h-1.5V128.1z
		 M536.5,140.5v-5.1l3.6-0.6v5.8H536.5z M541.7,140.5V125h16v15.4H541.7z M559.2,133.7l1.5,0.6v6.2h-1.5V133.7z"/>
	<path fill="#6B1514" d="M129.2,56.6H105v10.8h24.2V56.6z M127.7,65.9h-21.1v-7.7h21.1V65.9z"/>
	<rect x="105" y="70.5" fill="#6B1514" width="24.2" height="1.5"/>
	<rect x="105" y="75.1" fill="#6B1514" width="24.2" height="1.5"/>
	<rect x="105" y="79.8" fill="#6B1514" width="24.2" height="1.5"/>
	<rect x="105" y="84.4" fill="#6B1514" width="24.2" height="1.5"/>
	<rect x="105" y="89.5" fill="#6B1514" width="24.2" height="1.5"/>
	<rect x="105" y="94.2" fill="#6B1514" width="24.2" height="1.5"/>
	<rect x="105" y="98.8" fill="#6B1514" width="24.2" height="1.5"/>
	<rect x="105" y="103.4" fill="#6B1514" width="24.2" height="1.5"/>
	<rect x="105" y="108.1" fill="#6B1514" width="24.2" height="1.5"/>
	<rect x="105" y="112.7" fill="#6B1514" width="24.2" height="1.5"/>
	<rect x="105" y="117.8" fill="#6B1514" width="24.2" height="1.5"/>
	<rect x="105" y="122.5" fill="#6B1514" width="24.2" height="1.5"/>
	<rect x="105" y="127.1" fill="#6B1514" width="24.2" height="1.5"/>
	<rect x="105" y="131.7" fill="#6B1514" width="24.2" height="1.5"/>
	<rect x="58.2" y="106" fill="#6B1514" width="10.8" height="1.5"/>
	<rect x="58.2" y="113.2" fill="#6B1514" width="1.5" height="2.1"/>
	<rect x="61.3" y="113.2" fill="#6B1514" width="1.5" height="2.1"/>
	<rect x="64.4" y="113.2" fill="#6B1514" width="1.5" height="2.1"/>
	<rect x="67.5" y="113.2" fill="#6B1514" width="1.5" height="2.1"/>
	<rect x="58.2" y="116.8" fill="#6B1514" width="1.5" height="2.1"/>
	<rect x="61.3" y="116.8" fill="#6B1514" width="1.5" height="2.1"/>
	<rect x="64.4" y="116.8" fill="#6B1514" width="1.5" height="2.1"/>
	<rect x="67.5" y="116.8" fill="#6B1514" width="1.5" height="2.1"/>
	<rect x="58.2" y="119.9" fill="#6B1514" width="1.5" height="2.1"/>
	<rect x="61.3" y="119.9" fill="#6B1514" width="1.5" height="2.1"/>
	<rect x="64.4" y="119.9" fill="#6B1514" width="1.5" height="2.1"/>
	<rect x="67.5" y="119.9" fill="#6B1514" width="1.5" height="2.1"/>
	<rect x="58.2" y="123.5" fill="#6B1514" width="1.5" height="2.1"/>
	<rect x="61.3" y="123.5" fill="#6B1514" width="1.5" height="2.1"/>
	<rect x="64.4" y="123.5" fill="#6B1514" width="1.5" height="2.1"/>
	<rect x="67.5" y="123.5" fill="#6B1514" width="1.5" height="2.1"/>
	<rect x="58.2" y="126.6" fill="#6B1514" width="1.5" height="2.1"/>
	<rect x="61.3" y="126.6" fill="#6B1514" width="1.5" height="2.1"/>
	<rect x="64.4" y="126.6" fill="#6B1514" width="1.5" height="2.1"/>
	<rect x="67.5" y="126.6" fill="#6B1514" width="1.5" height="2.1"/>
	<rect x="58.2" y="130.2" fill="#6B1514" width="1.5" height="2.1"/>
	<rect x="61.3" y="130.2" fill="#6B1514" width="1.5" height="2.1"/>
	<rect x="64.4" y="130.2" fill="#6B1514" width="1.5" height="2.1"/>
	<rect x="67.5" y="130.2" fill="#6B1514" width="1.5" height="2.1"/>
	<rect x="58.2" y="133.3" fill="#6B1514" width="1.5" height="2.1"/>
	<rect x="61.3" y="133.3" fill="#6B1514" width="1.5" height="2.1"/>
	<rect x="64.4" y="133.3" fill="#6B1514" width="1.5" height="2.1"/>
	<rect x="67.5" y="133.3" fill="#6B1514" width="1.5" height="2.1"/>
	<path fill="#6B1514" d="M176.6,107h-15.4v3.6h15.4V107z M175.1,109.1h-12.4v-0.5h12.4V109.1z"/>
	<path fill="#6B1514" d="M176.6,112.7h-15.4v3.6h15.4V112.7z M175.1,114.7h-12.4v-0.5h12.4V114.7z"/>
	<path fill="#6B1514" d="M176.6,118.9h-15.4v3.6h15.4V118.9z M175.1,120.9h-12.4v-0.5h12.4V120.9z"/>
	<path fill="#6B1514" d="M176.6,125h-15.4v3.6h15.4V125z M175.1,127.1h-12.4v-0.5h12.4V127.1z"/>
	<path fill="#6B1514" d="M176.6,131.2h-15.4v3.6h15.4V131.2z M175.1,133.3h-12.4v-0.5h12.4V133.3z"/>
	<rect x="258" y="87.5" fill="#6B1514" width="1.5" height="46.3"/>
	<rect x="270.3" y="87.5" fill="#6B1514" width="1.5" height="46.3"/>
	<rect x="282.7" y="87.5" fill="#6B1514" width="1.5" height="46.3"/>
	<rect x="428.9" y="85.4" fill="#6B1514" width="1.5" height="3.6"/>
	<rect x="432" y="85.4" fill="#6B1514" width="1.5" height="3.6"/>
	<rect x="435.1" y="85.4" fill="#6B1514" width="1.5" height="3.6"/>
	<rect x="438.2" y="85.4" fill="#6B1514" width="1.5" height="3.6"/>
	<rect x="428.9" y="91.1" fill="#6B1514" width="1.5" height="3.1"/>
	<rect x="432" y="91.1" fill="#6B1514" width="1.5" height="3.1"/>
	<rect x="435.1" y="91.1" fill="#6B1514" width="1.5" height="3.1"/>
	<rect x="438.2" y="91.1" fill="#6B1514" width="1.5" height="3.1"/>
	<rect x="428.9" y="96.7" fill="#6B1514" width="1.5" height="3.1"/>
	<rect x="432" y="96.7" fill="#6B1514" width="1.5" height="3.1"/>
	<rect x="435.1" y="96.7" fill="#6B1514" width="1.5" height="3.1"/>
	<rect x="438.2" y="96.7" fill="#6B1514" width="1.5" height="3.1"/>
	<rect x="428.9" y="101.9" fill="#6B1514" width="1.5" height="3.6"/>
	<rect x="432" y="101.9" fill="#6B1514" width="1.5" height="3.6"/>
	<rect x="435.1" y="101.9" fill="#6B1514" width="1.5" height="3.6"/>
	<rect x="438.2" y="101.9" fill="#6B1514" width="1.5" height="3.6"/>
	<rect x="428.9" y="107.5" fill="#6B1514" width="1.5" height="3.6"/>
	<rect x="432" y="107.5" fill="#6B1514" width="1.5" height="3.6"/>
	<rect x="435.1" y="107.5" fill="#6B1514" width="1.5" height="3.6"/>
	<rect x="438.2" y="107.5" fill="#6B1514" width="1.5" height="3.6"/>
	<rect x="428.9" y="113.2" fill="#6B1514" width="1.5" height="3.6"/>
	<rect x="432" y="113.2" fill="#6B1514" width="1.5" height="3.6"/>
	<rect x="435.1" y="113.2" fill="#6B1514" width="1.5" height="3.6"/>
	<rect x="438.2" y="113.2" fill="#6B1514" width="1.5" height="3.6"/>
	<rect x="428.9" y="118.9" fill="#6B1514" width="1.5" height="3.1"/>
	<rect x="432" y="118.9" fill="#6B1514" width="1.5" height="3.1"/>
	<rect x="435.1" y="118.9" fill="#6B1514" width="1.5" height="3.1"/>
	<rect x="438.2" y="118.9" fill="#6B1514" width="1.5" height="3.1"/>
	<rect x="494.8" y="117.3" fill="#6B1514" width="1.5" height="2.1"/>
	<rect x="498.4" y="117.3" fill="#6B1514" width="1.5" height="2.1"/>
	<rect x="502" y="117.3" fill="#6B1514" width="1.5" height="2.1"/>
	<rect x="505.6" y="117.3" fill="#6B1514" width="1.5" height="2.1"/>
	<rect x="509.7" y="117.3" fill="#6B1514" width="1.5" height="2.1"/>
	<rect x="513.3" y="117.3" fill="#6B1514" width="1.5" height="2.1"/>
	<rect x="516.9" y="117.3" fill="#6B1514" width="1.5" height="2.1"/>
	<rect x="494.8" y="121.9" fill="#6B1514" width="1.5" height="2.1"/>
	<rect x="498.4" y="121.9" fill="#6B1514" width="1.5" height="2.1"/>
	<rect x="502" y="121.9" fill="#6B1514" width="1.5" height="2.1"/>
	<rect x="505.6" y="121.9" fill="#6B1514" width="1.5" height="2.1"/>
	<rect x="509.7" y="121.9" fill="#6B1514" width="1.5" height="2.1"/>
	<rect x="513.3" y="121.9" fill="#6B1514" width="1.5" height="2.1"/>
	<rect x="516.9" y="121.9" fill="#6B1514" width="1.5" height="2.1"/>
	<rect x="494.8" y="126.1" fill="#6B1514" width="1.5" height="2.1"/>
	<rect x="498.4" y="126.1" fill="#6B1514" width="1.5" height="2.1"/>
	<rect x="502" y="126.1" fill="#6B1514" width="1.5" height="2.1"/>
	<rect x="505.6" y="126.1" fill="#6B1514" width="1.5" height="2.1"/>
	<rect x="509.7" y="126.1" fill="#6B1514" width="1.5" height="2.1"/>
	<rect x="513.3" y="126.1" fill="#6B1514" width="1.5" height="2.1"/>
	<rect x="516.9" y="126.1" fill="#6B1514" width="1.5" height="2.1"/>
	<rect x="494.8" y="130.7" fill="#6B1514" width="1.5" height="2.1"/>
	<rect x="498.4" y="130.7" fill="#6B1514" width="1.5" height="2.1"/>
	<rect x="502" y="130.7" fill="#6B1514" width="1.5" height="2.1"/>
	<rect x="505.6" y="130.7" fill="#6B1514" width="1.5" height="2.1"/>
	<rect x="509.7" y="130.7" fill="#6B1514" width="1.5" height="2.1"/>
	<rect x="513.3" y="130.7" fill="#6B1514" width="1.5" height="2.1"/>
	<rect x="516.9" y="130.7" fill="#6B1514" width="1.5" height="2.1"/>
	<rect x="494.8" y="134.8" fill="#6B1514" width="1.5" height="2.1"/>
	<rect x="498.4" y="134.8" fill="#6B1514" width="1.5" height="2.1"/>
	<rect x="502" y="134.8" fill="#6B1514" width="1.5" height="2.1"/>
	<rect x="505.6" y="134.8" fill="#6B1514" width="1.5" height="2.1"/>
	<rect x="509.7" y="134.8" fill="#6B1514" width="1.5" height="2.1"/>
	<rect x="513.3" y="134.8" fill="#6B1514" width="1.5" height="2.1"/>
	<rect x="516.9" y="134.8" fill="#6B1514" width="1.5" height="2.1"/>
	<rect x="356.3" y="119.4" fill="#6B1514" width="14.9" height="1.5"/>
	<rect x="356.3" y="134.8" fill="#6B1514" width="14.9" height="1.5"/>
	<rect x="356.3" y="131.7" fill="#6B1514" width="14.9" height="1.5"/>
	<rect x="356.3" y="128.6" fill="#6B1514" width="14.9" height="1.5"/>
	<rect x="356.3" y="125.5" fill="#6B1514" width="14.9" height="1.5"/>
	<rect x="356.3" y="122.5" fill="#6B1514" width="14.9" height="1.5"/>
	<rect x="311" y="111.1" fill="#6B1514" width="4.1" height="1.5"/>
	<rect x="311" y="114.2" fill="#6B1514" width="4.1" height="1.5"/>
	<rect x="311" y="117.8" fill="#6B1514" width="4.1" height="1.5"/>
	<rect x="311" y="120.9" fill="#6B1514" width="4.1" height="1.5"/>
	<rect x="311" y="124" fill="#6B1514" width="4.1" height="1.5"/>
	<rect x="311" y="127.1" fill="#6B1514" width="4.1" height="1.5"/>
	<rect x="311" y="130.7" fill="#6B1514" width="4.1" height="1.5"/>
	<rect x="311" y="133.8" fill="#6B1514" width="4.1" height="1.5"/>
	<rect x="317.2" y="111.1" fill="#6B1514" width="4.1" height="1.5"/>
	<rect x="317.2" y="114.2" fill="#6B1514" width="4.1" height="1.5"/>
	<rect x="317.2" y="117.8" fill="#6B1514" width="4.1" height="1.5"/>
	<rect x="317.2" y="120.9" fill="#6B1514" width="4.1" height="1.5"/>
	<rect x="317.2" y="124" fill="#6B1514" width="4.1" height="1.5"/>
	<rect x="317.2" y="127.1" fill="#6B1514" width="4.1" height="1.5"/>
	<rect x="317.2" y="130.7" fill="#6B1514" width="4.1" height="1.5"/>
	<rect x="317.2" y="133.8" fill="#6B1514" width="4.1" height="1.5"/>
	<rect x="393.9" y="110.6" fill="#6B1514" width="2.6" height="1.5"/>
	<rect x="393.9" y="116.3" fill="#6B1514" width="2.6" height="1.5"/>
	<rect x="393.9" y="121.4" fill="#6B1514" width="2.6" height="1.5"/>
	<rect x="393.9" y="127.1" fill="#6B1514" width="2.6" height="1.5"/>
	<rect x="400.1" y="110.6" fill="#6B1514" width="2.6" height="1.5"/>
	<rect x="400.1" y="116.3" fill="#6B1514" width="2.6" height="1.5"/>
	<rect x="400.1" y="121.4" fill="#6B1514" width="2.6" height="1.5"/>
	<rect x="400.1" y="127.1" fill="#6B1514" width="2.6" height="1.5"/>
	<rect x="407.3" y="110.6" fill="#6B1514" width="2.6" height="1.5"/>
	<rect x="407.3" y="116.3" fill="#6B1514" width="2.6" height="1.5"/>
	<rect x="407.3" y="121.4" fill="#6B1514" width="2.6" height="1.5"/>
	<rect x="405.2" y="85.4" fill="#6B1514" width="12.9" height="1.5"/>
	<path fill="#6B1514" d="M426.3,129.7h19.6v-3.6h-19.6V129.7z M427.9,127.6h16.5v0.5h-16.5V127.6z"/>
	<path fill="#6B1514" d="M426.3,134.3h19.6v-3.6h-19.6V134.3z M427.9,132.2h16.5v0.5h-16.5V132.2z"/>
	<path fill="#6B1514" d="M426.3,138.9h19.6v-3.6h-19.6V138.9z M427.9,136.9h16.5v0.5h-16.5V136.9z"/>
	<path fill="#6B1514" d="M532.9,102.9h-11.8v5.7h11.8V102.9z M531.4,107h-8.8v-2.6h8.8V107z"/>
	<path fill="#6B1514" d="M543.2,131.7h4.1v-4.6h-4.1V131.7z M544.8,128.6h1v1.5h-1V128.6z"/>
	<path fill="#6B1514" d="M551.4,131.7h4.1v-4.6h-4.1V131.7z M553,128.6h1v1.5h-1V128.6z"/>
	<path fill="#6B1514" d="M543.2,137.4h4.1v-4.6h-4.1V137.4z M544.8,134.3h1v1.5h-1V134.3z"/>
	<path fill="#6B1514" d="M551.4,137.4h4.1v-4.6h-4.1V137.4z M553,134.3h1v1.5h-1V134.3z"/>
	<rect x="243.5" y="83.4" fill="#6B1514" width="1.5" height="3.6"/>
	<rect x="243.5" y="89" fill="#6B1514" width="1.5" height="3.1"/>
	<rect x="243.5" y="94.7" fill="#6B1514" width="1.5" height="3.1"/>
	<rect x="243.5" y="99.8" fill="#6B1514" width="1.5" height="3.6"/>
	<rect x="243.5" y="105.5" fill="#6B1514" width="1.5" height="3.6"/>
	<rect x="243.5" y="111.1" fill="#6B1514" width="1.5" height="3.6"/>
	<rect x="243.5" y="116.8" fill="#6B1514" width="1.5" height="3.1"/>
	<rect x="246.6" y="83.4" fill="#6B1514" width="1.5" height="3.6"/>
	<rect x="246.6" y="89" fill="#6B1514" width="1.5" height="3.1"/>
	<rect x="246.6" y="94.7" fill="#6B1514" width="1.5" height="3.1"/>
	<rect x="246.6" y="99.8" fill="#6B1514" width="1.5" height="3.6"/>
	<rect x="246.6" y="105.5" fill="#6B1514" width="1.5" height="3.6"/>
	<rect x="246.6" y="111.1" fill="#6B1514" width="1.5" height="3.6"/>
	<rect x="246.6" y="116.8" fill="#6B1514" width="1.5" height="3.1"/>
</g>
<g>
	<path fill="#FFF1B7" d="M561.1,88.6c0-4.1-3.3-7.5-7.5-7.5s-7.5,3.3-7.5,7.5H561.1z"/>
	<path fill="#FFF1B7" d="M576.2,88.6c0-5.1-4.7-10.4-10.4-10.4s-10.5,5.2-10.5,10.4H576.2z"/>
</g>
</svg>
