<?xml version="1.0" encoding="utf-8"?>
<!-- Generator: Adobe Illustrator 16.0.0, SVG Export Plug-In . SVG Version: 6.00 Build 0)  -->
<!DOCTYPE svg PUBLIC "-//W3C//DTD SVG 1.1//EN" "http://www.w3.org/Graphics/SVG/1.1/DTD/svg11.dtd">
<svg version="1.1" xmlns="http://www.w3.org/2000/svg" xmlns:xlink="http://www.w3.org/1999/xlink" x="0px" y="0px" width="800px"
	 height="200.486px" viewBox="0 293.5 800 200.486" enable-background="new 0 293.5 800 200.486" xml:space="preserve">
<g id="Layer_2" display="none">
	<g id="Calque_7" display="inline">
		<path fill="#D4D4D4" d="M494.117,488.465c-1.051-0.131-2.234-0.394-3.417-0.525v0.525c1.183,0.132,2.234,0.395,3.417,0.395
			V488.465z"/>
		<polygon fill="#D4D4D4" points="628.722,493.986 647.65,493.986 628.722,493.329 		"/>
		<path fill="#D4D4D4" d="M302.596,493.986h14.854c0.131-0.132,0.263-0.132,0.263-0.263L302.596,493.986L302.596,493.986z"/>
		<path fill="#D4D4D4" d="M378.048,493.329c0.132,0.263,0.263,0.525,0.526,0.657h3.154v-0.657H378.048z"/>
		<path fill="#D4D4D4" d="M331.646,482.419v-0.526c-0.132,0.132-0.395,0.395-0.525,0.526H331.646z"/>
		<rect x="521.196" y="493.986" fill="#D4D4D4" width="29.05" height="0.657"/>
		<path fill="#D4D4D4" d="M699.179,449.162v0.789H685.64v-2.761c-4.732,0.131-8.938,0.788-13.014,1.972
			c-8.019-24.056-30.628-41.406-57.312-41.801c-7.229-15.905-23.397-27.079-42.194-27.079c-9.859,0-18.929,3.023-26.29,8.15
			c-10.122-11.962-24.844-19.98-41.407-21.426c-4.469-15.774-15.248-28.919-29.312-36.674c0.525-1.183,0.788-2.629,0.788-4.075
			c0-6.046-4.863-10.91-10.91-10.91c-4.995,0-9.201,3.417-10.516,8.019c-2.892-0.395-5.915-0.657-8.938-0.657
			c-20.638,0-38.909,10.253-49.951,25.764c-2.629-0.657-5.389-1.051-8.149-1.051c-7.229,0-13.934,2.366-19.323,6.31
			c-0.657-0.263-1.183-0.395-1.84-0.526c-2.104-12.225-12.883-21.689-25.896-21.689c-12.883,0-23.661,9.333-25.765,21.558
			c-2.366-1.314-5.126-1.972-8.019-1.972c-6.966,0-12.882,4.206-15.642,10.122c-4.469-0.92-9.202-1.314-13.934-1.314
			c-34.177,0-62.833,23.529-70.72,55.34c-4.207-1.052-8.676-1.577-13.276-1.577c-1.578,0-3.155,0.131-4.469,0.263v62.438
			l0.131,1.314l10.516,3.943l7.624-3.286v14.985l0.657,0.657v-47.979l27.079-12.882v54.025l0.394,0.657h11.831l4.207-2.234
			l1.183-53.105h20.243v-6.704l7.624-0.525l1.84,1.84v5.39h19.586v55.34c2.76-0.263,10.385-0.525,15.248-2.76
			c2.234-1.052-0.395-2.498-0.395-2.498v-72.429h22.347v7.493h41.932v27.078h7.493v49.294h16.3v-44.562h12.225v-64.936h30.496
			l0.657,43.904h4.075v-5.389h10.778v5.389h5.39v33.783h1.314h4.075l-0.657-12.225h4.075h24.317v-8.15l25.765-0.657l0.395-8.807
			l5.389-0.264l-0.395-6.178l14.328-0.132l3.943,4.075v4.075v40.617h6.047v18.798h-6.704v-14.196h-10.778h-7.493V474.4h-0.657v4.732
			h-14.854h-2.76v14.196h-6.047v-0.657h-6.704v-27.736h-0.789v29.051h14.196V479.79h35.229v14.196h7.493l0.395-23.004l2.366,0.132
			v-55.472h21.031v38.515h3.418v-10.122v-7.624l3.418,0.789h22.346v-6.047l18.271,6.047l0.395,41.406l3.023-2.761l3.681,4.602
			c0,0,3.943,1.314,4.601,1.709c0.657,0.525,6.31,0.394,6.31,0.394l0.395-24.975l33.125,0.657v-5.39h18.929v25.633h4.732v14.854
			h-15.512v-14.854h-0.657v15.511h23.661v-23.004h15.248C720.867,460.598,711.271,452.711,699.179,449.162z M400,493.329h-9.465
			v-36.543l9.465,2.761V493.329z M491.357,445.35h-17.614V437.2h17.614V445.35z M578.64,411.437h-15.511v-3.418h15.511V411.437z
			 M704.962,493.329l-0.657-8.281l6.179-1.446l0.525,10.122L704.962,493.329z"/>
		<path fill="#D4D4D4" d="M573.119,326.257c0-4.995-4.338-9.858-9.859-9.858c-5.39,0-9.858,4.995-9.858,9.858H573.119z"/>
		<path fill="#D4D4D4" d="M588.367,326.257c0-6.31-6.179-13.67-13.803-13.67s-13.802,7.493-13.802,13.67H588.367z"/>
		<path fill="#D4D4D4" d="M108.314,344.528c0-5.126,4.732-10.384,10.385-10.384s10.384,5.258,10.384,10.384H108.314z"/>
		<path fill="#D4D4D4" d="M84.916,344.528c0-6.572,6.441-14.591,14.591-14.591c8.15,0,14.591,7.887,14.591,14.591H84.916z"/>
		<g>
			<path fill="#D4D4D4" d="M703.779,363.457c0-7.493-5.915-13.145-13.145-13.145c-7.361,0-13.146,5.784-13.146,13.145H703.779z"/>
			<path fill="#D4D4D4" d="M730.464,363.457c0-8.807-8.282-18.403-18.535-18.403s-18.534,9.727-18.534,18.403H730.464z"/>
		</g>
		<path fill="#D4D4D4" d="M75.978,344.528c0-3.812,3.418-7.755,7.756-7.755c4.337,0,7.755,3.943,7.755,7.755H75.978z"/>
	</g>
	<g display="inline">
		<path fill="#F7F7F7" d="M737.562,424.449c0-5.389-4.338-9.858-9.858-9.858c-5.521,0-9.859,4.338-9.859,9.858H737.562z"/>
		<path fill="#F7F7F7" d="M757.41,424.449c0-6.703-6.178-13.67-13.67-13.67c-7.493,0-13.803,6.835-13.803,13.67H757.41z"/>
	</g>
</g>
<g id="Layer_1">
	<g id="Calque_3">
		<path fill="#605E58" d="M796.188,492.672c-5.521-2.892-11.568-6.047-12.226-6.704c-1.183-1.577-7.492-1.972-7.624-1.972
			c-0.92-0.132-6.31,0.789-8.149,1.052l-3.812-2.234l-4.995,1.051v-8.675h-22.346v7.229l-1.972-0.789v-11.173h-25.107v12.619
			l-4.731,0.788v-6.703h-4.732v-0.921v-4.731v-1.972v-4.732v-1.972v-4.995v-6.441h-21.689v5.39h-6.047v-7.493h-1.972v7.493h-25.106
			v24.318h-5.258l-3.812-1.446c-0.394-0.657-1.314-1.972-2.366-3.681c-0.394-0.657-1.051-1.052-1.708-1.052
			c-0.921,0-1.972,0.657-2.893,1.314h-0.394v-3.417h1.314v-1.972h-1.314v-3.418h1.314v-1.972h-1.314v-3.418h1.314v-1.972h-1.314
			v-3.418h1.314v-1.972h-1.314v-3.417h1.314v-1.973h-1.314v-3.417h1.314v-1.972h-1.314v-3.418h1.314v-1.972h-1.314v-2.629
			l-11.568-3.549v-3.812h-1.972v3.286l-6.046-1.84v5.915h-17.614v-0.657h-1.841v0.657h-6.047v6.572l-1.972-0.657v-26.947h-3.418
			v-1.314h1.315v-6.704h-18.271v6.704h1.972v1.314h-4.732v54.814h-1.972v3.418h-4.075v-43.642l-4.338-4.469h-16.037v6.047h-5.389
			v9.464h-26.422v8.149H490.7v-1.972h1.972v-10.778h-19.586v10.778h2.76v1.972h-2.76v12.226h-2.761v-33.783h-5.39v-4.731h-13.539
			v4.731h-1.972v-2.76h1.314v-1.972h-1.314v-4.732h1.314v-1.972h-1.314v-4.732h1.314v-1.972h-1.314v-4.732h1.314v-1.972h-1.314
			v-5.389h1.314v-1.972h-1.314v-4.732h1.314v-1.972h-1.314v-4.732h-4.732v-10.122h-1.972v10.122h-2.76v-1.972h-1.972v1.972H416.3
			v4.732h-1.314v1.972h1.314v4.732h-1.314v1.972h1.314v5.389h-1.314v1.972h1.314v4.732h-1.314v1.972h1.314v4.732h-1.314v1.972h1.314
			v4.732h-1.314v1.972h1.314v5.389h-1.314v1.973h1.314v4.731h-1.314v1.972h1.314v4.732h-1.314v1.972h1.314v3.418h-12.225v43.904
			h-2.761v-34.046l-10.779-3.549v-11.174h-7.492v-26.684h-33.782v-4.732h-1.972v4.732h-6.047v-8.15h-8.807v-6.046h-1.973v6.046
			h-3.417v-3.417h-1.972v3.417h-8.808v76.372l-13.539,1.446v-1.972h3.418v-1.972h-3.418v-3.418h3.418v-1.972h-3.418v-4.075h3.418
			v-2.234h-3.418v-3.418h3.418v-1.972h-3.418v-4.074h3.418v-1.972h-3.418v-3.418h3.418v-1.972h-3.418v-4.075h3.418v-1.972h-3.418
			v-3.418h3.418v-1.972h-3.418v-3.417h3.418v-1.972h-3.418v-6.047h-18.271v-3.418c0-1.972-1.709-3.418-3.681-3.418h-6.967
			c-1.972,0-3.549,1.314-3.549,3.418v3.418h-18.929v6.047h-3.418v1.972h3.418v3.417h-3.418v1.972h3.418v3.418h-3.418v1.972h3.418
			v4.075h-3.418v1.972h3.418v3.418h-3.418v1.972h3.418v4.074h-3.418v1.972h3.418v3.418h-3.418v1.972h3.418v4.075h-3.418v1.972h3.418
			v3.418h-3.418v1.972h3.418v1.314l-4.995,2.104h-9.333v-57.05l-29.839,14.591v30.891l-6.967,3.943l-6.441-1.972l-2.892-0.131
			v-1.052h2.76v-1.972h-2.76v-4.075h2.76v-1.972h-2.76v-4.075h2.76v-1.972h-2.76v-4.731h2.76v-1.973h-2.76v-4.074h2.76v-1.972h-2.76
			v-4.207h2.76v-1.972h-2.76v-4.074h2.76v-1.972h-2.76v-4.075h2.76v-1.972h-2.76v-4.075h2.76v-1.972h-2.76v-4.732h2.76v-1.972h-2.76
			v-4.075h2.76v-1.972h-2.76v-4.074h2.76v-1.972h-2.76v-4.075h2.76v-1.972h-2.76v-3.549c0-2.629-1.446-5.127-3.812-6.31
			l-12.356-6.31v-3.417c0-2.235-1.84-4.075-4.075-4.075h-33.125c-2.235,0-4.075,1.84-4.075,4.075v3.417l-12.488,5.915
			c-2.366,1.183-3.812,3.681-3.812,6.31v3.549h-1.972v1.972h1.972v4.075h-1.972v1.972h1.972v4.075h-1.972v1.972h1.972v4.074h-1.972
			v1.972h1.972v4.732h-1.972v1.972h1.972v4.075h-1.972v1.972h1.972v4.075h-1.972v1.972h1.972v4.074h-1.972v1.973h1.972v4.074h-1.972
			v1.972h1.972v4.075h-1.972v1.972h1.972v4.732h-1.972v1.972h1.972v4.075h-1.972v1.972h1.972v4.074h-1.972v1.973h1.972v1.183
			l-5.389-0.132c-2.761-0.263-6.047-0.788-6.573-1.183l-3.68-3.681l-7.493,1.314v-23.924H72.954v29.182
			c-3.417-0.788-12.487-2.892-14.459-3.154c-2.498-0.395-7.23,0.395-7.361,0.395L2.498,496.221l0.789,1.841l48.242-19.586
			c0.789-0.132,4.732-0.657,6.704-0.395s11.831,2.629,14.722,3.286v10.647h-83.349v1.972h83.48h21.032h39.303h41.275h76.766h51.396
			h27.21h52.974h21.295h21.558h1.841h28.393h61.781h33.914h4.863h32.468h20.506h19.98h16.3h39.304h24.712h25.238H810v-1.972h-13.812
			V492.672z M399.343,460.072v32.6h-8.808v-35.491L399.343,460.072z M388.563,454.025h-5.389v-1.972h5.389V454.025z
			 M388.563,456.129v1.972h-5.389v-1.972H388.563z M388.563,460.204v1.972h-5.389v-1.972H388.563z M388.563,464.278v1.972h-5.389
			v-1.972H388.563z M388.563,468.223v1.972h-5.389v-1.972H388.563z M388.563,472.297v1.972h-5.389v-1.972H388.563z M388.563,476.372
			v1.972h-5.389v-1.972H388.563z M388.563,480.447v1.972h-5.389v-1.972H388.563z M388.563,484.521v1.972h-5.389v-1.972H388.563z
			 M388.563,446.007v4.075h-5.389v-4.075H388.563z M339.139,410.779v6.046h-8.807v64.673c-2.761,0-8.808,0.132-10.385,0
			c-0.657-0.131-1.314,0.264-1.709,0.658l-0.131,0.131v-71.508H339.139z M272.1,427.735c0-0.92,0.657-1.314,1.446-1.314h6.967
			c0.92,0,1.709,0.395,1.709,1.314v3.418H272.1V427.735L272.1,427.735z M253.171,433.125h16.825h14.328h16.3v4.075h-47.322v-4.075
			H253.171z M253.171,439.172h47.322v3.418h-47.322V439.172z M253.171,444.562h47.322v3.417h-47.322V444.562z M253.171,450.082
			h47.322v4.075h-47.322V450.082z M253.171,456.129h47.322v3.418h-47.322V456.129z M253.171,461.519h47.322v4.074h-47.322V461.519z
			 M253.171,467.564h47.322v3.418h-47.322V467.564z M253.171,472.954h47.322v4.075h-47.322V472.954z M253.171,479.133h47.322v3.417
			h-47.322V479.133z M234.9,434.045v58.495h-25.764v-46.007L234.9,434.045z M193.493,480.053l7.098,2.234l6.573-3.812v14.064h-16.3
			v-9.464h2.76v-1.972h-2.76v-1.052H193.493z M188.893,481.104h-14.196v-4.075h14.196V481.104z M188.893,475.058h-14.196v-4.075
			h14.196V475.058z M188.893,469.011h-14.196v-4.075h14.196V469.011z M188.893,462.833h-14.196v-4.732h14.196V462.833z
			 M188.893,456.129h-14.196v-4.075h14.196V456.129z M188.893,450.082h-14.196v-4.075h14.196V450.082z M188.893,443.904h-14.196
			v-4.075h14.196V443.904z M188.893,437.857h-14.196v-4.075h14.196V437.857z M188.893,431.811h-14.196v-4.075h14.196V431.811z
			 M188.893,425.633h-14.196V420.9h14.196V425.633z M188.893,418.929h-14.196v-4.075h14.196V418.929z M188.893,412.882h-14.196
			v-4.075h14.196V412.882z M188.893,406.704h-14.196v-4.075h14.196V406.704z M186.132,392.639c1.708,0.92,2.76,2.629,2.76,4.47
			v3.549h-14.196v-13.934L186.132,392.639z M119.093,397.108c0-1.841,1.052-3.681,2.761-4.47l11.436-5.915v13.934h-14.197V397.108z
			 M119.093,402.761h14.197v4.074h-14.197V402.761z M119.093,408.807h14.197v4.075h-14.197V408.807z M119.093,414.854h14.197v4.075
			h-14.197V414.854z M119.093,420.9h14.197v4.732h-14.197V420.9z M119.093,427.735h14.197v4.075h-14.197V427.735z M119.093,433.782
			h14.197v4.075h-14.197V433.782z M119.093,439.829h14.197v4.075h-14.197V439.829z M119.093,446.007h14.197v4.075h-14.197V446.007z
			 M119.093,452.054h14.197v4.075h-14.197V452.054z M119.093,458.101h14.197v4.732h-14.197V458.101z M119.093,464.936h14.197v4.075
			h-14.197V464.936z M119.093,470.982h14.197v4.075h-14.197V470.982z M133.29,477.029v4.075h-14.197v-4.075H133.29z M75.189,492.672
			v-39.829h16.826v39.829H75.189z M94.118,476.635l6.704-1.183l2.892,2.892c1.052,1.052,5.39,1.577,7.887,1.709l5.389,0.131v0.921
			h-1.972v1.972h1.972v9.464H94.118V476.635z M119.093,492.672v-9.465h14.197v9.465H119.093z M135.393,492.672v-9.465v-1.972v-4.074
			v-1.972v-4.207v-1.972v-4.075v-1.972v-4.731v-1.973v-4.074v-1.972v-4.207v-1.972v-4.074v-1.972v-4.075v-1.972v-4.075v-1.972
			v-4.732v-1.972v-4.075v-1.972v-4.074v-1.972v-4.075v-1.972v-19.98c0-1.183,0.92-1.972,1.972-1.972h33.125
			c1.183,0,1.972,0.92,1.972,1.972v111.601H135.393z M174.564,483.207h14.197v9.465h-14.197V483.207z M236.872,492.672v-2.761h9.727
			l4.469-1.972v4.601h-14.196V492.672z M253.171,492.672v-8.15h47.322v8.15H253.171z M302.596,492.672v-4.075l16.826-1.84
			l-0.132-1.052c-0.131-0.92,0-1.972,0.263-2.104c0,0,0.132,0,0.264,0c1.577,0.132,7.755,0.132,10.516,0v9.07H302.596z
			 M332.304,492.672v-73.743h48.768v73.743H332.304z M383.043,488.597h5.39v4.075h-5.39V488.597z M763.983,484.916l3.812,2.104
			l0.395-0.132c3.549-0.525,7.492-1.183,8.149-1.183l0,0c1.052,0,5.127,0.657,5.916,1.183c0.394,0.526,1.972,1.709,9.464,5.652
			h-32.205v-6.704L763.983,484.916z M739.139,483.207h18.271v4.075h-18.271V483.207z M739.139,489.254h18.271v3.418h-18.271V489.254
			z M757.41,477.029v4.075h-18.271v-4.075H757.41z M689.057,483.207h14.197v1.972h-14.197V483.207z M689.057,487.15h14.197v5.39
			h-14.197V487.15z M703.254,481.104h-14.197v-1.972h14.197V481.104z M684.982,473.743h13.539v0.657h-13.539V473.743z
			 M698.521,471.64h-13.539v-1.972h13.539V471.64z M684.982,466.907h13.539v0.657h-13.539V466.907z M698.521,464.936h-13.539v-1.972
			h13.539V464.936z M684.982,460.204h13.539v0.657h-13.539V460.204z M680.907,453.368h17.614v4.732h-13.539v-1.314h-4.075V453.368z
			 M611.896,483.864h15.511v3.418h-15.511V483.864z M611.896,481.762v-3.418h15.511v3.418H611.896z M627.407,476.372h-15.511v-3.418
			h15.511V476.372z M627.407,470.982h-15.511v-3.418h15.511V470.982z M627.407,465.593h-15.511v-3.417h15.511V465.593z
			 M627.407,460.204h-15.511v-3.418h15.511V460.204z M627.407,454.814h-15.511v-3.418h15.511V454.814z M627.407,449.293h-15.511
			v-3.286h15.511V449.293z M627.407,443.904h-15.511v-3.418h15.511V443.904z M611.896,432.6l15.511,4.863v1.052h-15.511v-2.761
			V432.6z M600.329,492.672h-6.047v-3.418h6.047V492.672z M594.282,487.15v-4.731h6.047v4.731H594.282z M600.329,480.447h-6.047
			v-4.732h6.047V480.447z M589.55,475.715h2.761v4.732h-2.761V475.715z M600.329,473.743h-6.047v-4.732h6.047V473.743z
			 M600.329,466.907h-6.047v-4.074h6.047V466.907z M586.132,462.833h6.047v4.074h-6.047V462.833z M600.329,460.861h-6.047v-5.39
			h6.047V460.861z M592.179,460.861h-6.047v-5.39h6.047V460.861z M586.132,469.011h6.047v4.732h-2.761v-4.075h-3.417v-0.657H586.132
			z M589.55,482.419h2.761v4.731h-2.761V482.419z M600.329,453.368h-6.047v-4.863l6.047,2.366V453.368z M592.179,453.368h-6.047
			v-8.019l6.047,2.366V453.368z M584.029,444.562v25.106h-1.972v-25.764L584.029,444.562z M563.786,408.807h14.196v2.761h-14.196
			V408.807z M565.758,413.539h10.778v1.314h-10.778V413.539z M561.025,416.957h18.929v52.711h-18.929V416.957z M550.903,437.2
			h-21.688v-1.314h21.688V437.2z M547.881,427.078l2.629,2.761h-15.643v-2.761H547.881z M534.735,433.125v-1.314h16.3v1.972h-21.689
			v-0.657H534.735z M529.215,439.172h21.688v33.782h-1.314v-32.468h-20.243v-1.314H529.215z M502.925,442.59h44.692v30.364H544.2
			v-23.003h-30.497v42.589h-4.074v-43.903h-6.704V442.59L502.925,442.59z M466.382,462.833h23.661v29.707h-23.661V462.833z
			 M492.015,462.833h15.511v1.972h-4.732v-1.314h-10.778V462.833L492.015,462.833z M507.657,456.786h-32.468v-1.972h32.468V456.786z
			 M507.657,484.521h-4.732v-1.972h4.732V484.521z M507.657,480.447h-4.732v-1.972h4.732V480.447z M507.657,476.372h-4.732V474.4
			h4.732V476.372z M507.657,472.297h-4.732v-1.972h4.732V472.297z M507.657,468.223h-4.732v-1.315h4.732V468.223z M492.015,465.593
			h8.807v27.079h-8.807V465.593z M502.925,486.493h4.732v6.047h-4.732V486.493z M475.189,437.857H490.7v6.704h-15.511V437.857z
			 M477.818,446.664h10.778v1.973h-10.778V446.664z M507.657,450.739v1.972h-32.468v-1.972H507.657z M475.189,458.758h32.468v1.972
			h-15.511h-1.315H475.32v-1.972H475.189z M468.354,460.861h-1.314v-31.811h1.314V460.861z M453.5,424.318h9.464v2.76H453.5V424.318
			z M454.157,429.051v34.439h-4.732v-0.657h1.314v-1.972h-1.314v-4.075h1.314v-1.972h-1.314v-3.418h1.314v-1.972h-1.314v-4.075
			h1.314v-1.972h-1.314v-4.731h1.314v-1.972h-1.314v-4.732h1.314v-1.972h-1.314v-0.657h4.732V429.051z M454.157,465.593v1.314
			h-24.318v-1.314H454.157z M429.839,469.011h24.318v1.314h-24.318V469.011z M429.839,472.297h24.318v1.314h-24.318V472.297z
			 M429.839,475.715h24.318v1.314h-24.318V475.715z M429.839,479.133h24.318v0.657h-24.318V479.133z M429.839,481.762h24.318v1.314
			h-24.318V481.762z M429.839,485.179h24.318v1.314h-24.318V485.179z M429.839,488.597h24.318v1.314h-24.318V488.597z
			 M425.764,451.396h21.689v3.418h-21.689V451.396z M425.764,456.786h21.689v4.075h-21.689V456.786z M418.271,385.146h29.051v2.76
			h-29.051V385.146z M418.271,389.878h29.051v4.732h-29.051V389.878z M418.271,396.582h29.051v5.39h-29.051V396.582z
			 M418.271,404.075h29.051v4.731h-29.051V404.075z M418.271,410.779h29.051v4.731h-29.051V410.779z M418.271,417.614h29.051v4.732
			h-29.051V417.614z M418.271,424.318h29.051v5.389h-29.051V424.318z M418.271,431.811h29.051v4.732h-29.051V431.811z
			 M418.271,438.515h29.051v4.732h-29.051V438.515z M418.271,445.35h29.051v4.075h-21.689v-0.788h-7.493v-3.287H418.271z
			 M406.047,492.672v-41.933h17.614v41.933H406.047z M425.764,492.672v-29.708h21.689v0.657h-19.586v29.051H425.764z
			 M429.839,492.672v-0.657h24.318v0.657H429.839z M456.129,492.672v-28.394v-0.788v-34.439h3.418v63.489h-3.418V492.672z
			 M461.649,429.051h3.418v31.811h-0.657v31.811h-2.761V429.051z M515.676,492.672v-40.618h26.421v20.9h-10.779v5.39h-13.539v14.196
			h-2.103V492.672z M519.75,483.864h29.839v1.972H519.75V483.864z M519.75,487.939h29.839v1.972H519.75V487.939z M549.589,481.762
			H519.75v-1.314h29.839V481.762z M519.75,492.672v-0.657h29.839v0.657H519.75z M551.561,492.672v-14.196h-18.271v-3.418h23.661
			v17.614H551.561z M559.054,492.672v-20.9h23.397h5.127v20.9H559.054z M589.55,489.254h2.761v3.418h-2.761V489.254z
			 M602.432,492.672v-43.115l-16.3-6.31v-5.258h23.661v54.813h-7.361V492.672z M611.896,492.672v-3.418h15.511v3.418H611.896z
			 M629.379,492.672v-3.418h1.314v-1.972h-1.314v-3.418h1.314v-1.972h-1.314v-2.366c0.657-0.394,0.92-0.788,1.183-1.051h0.132
			v-0.132c0.789-0.789,1.446-1.314,1.709-1.314c0,0,0,0,0.131,0.132c1.315,2.103,2.498,3.812,2.498,3.812l0.263,0.263l4.864,1.841
			h5.652v9.464L629.379,492.672L629.379,492.672z M647.65,492.672V458.89h35.229v3.812v1.972v4.732v1.972v4.732v16.431H647.65
			V492.672z M684.982,476.372h13.539v0.657h-11.567v15.511h-1.972V476.372z M705.226,492.672v-6.704l4.731-0.789v7.624h-4.731
			V492.672z M712.061,492.672v-20.375h21.032v20.243h-21.032V492.672z M735.064,483.733l1.972,0.788v8.15h-1.972V483.733z"/>
		<path fill="#605E58" d="M169.833,382.386h-31.811v14.196h31.811V382.386z M167.861,394.61h-27.736v-10.122h27.736V394.61z"/>
		<rect x="138.021" y="400.657" fill="#605E58" width="31.811" height="1.972"/>
		<rect x="138.021" y="406.704" fill="#605E58" width="31.811" height="1.972"/>
		<rect x="138.021" y="412.882" fill="#605E58" width="31.811" height="1.972"/>
		<rect x="138.021" y="418.929" fill="#605E58" width="31.811" height="1.972"/>
		<rect x="138.021" y="425.633" fill="#605E58" width="31.811" height="1.972"/>
		<rect x="138.021" y="431.811" fill="#605E58" width="31.811" height="1.972"/>
		<rect x="138.021" y="437.857" fill="#605E58" width="31.811" height="1.972"/>
		<rect x="138.021" y="443.904" fill="#605E58" width="31.811" height="1.972"/>
		<rect x="138.021" y="450.082" fill="#605E58" width="31.811" height="1.972"/>
		<rect x="138.021" y="456.129" fill="#605E58" width="31.811" height="1.972"/>
		<rect x="138.021" y="462.833" fill="#605E58" width="31.811" height="1.972"/>
		<rect x="138.021" y="469.011" fill="#605E58" width="31.811" height="1.972"/>
		<rect x="138.021" y="475.058" fill="#605E58" width="31.811" height="1.972"/>
		<rect x="138.021" y="481.104" fill="#605E58" width="31.811" height="1.972"/>
		<rect x="76.503" y="447.321" fill="#605E58" width="14.197" height="1.972"/>
		<rect x="76.503" y="456.786" fill="#605E58" width="1.972" height="2.761"/>
		<rect x="80.578" y="456.786" fill="#605E58" width="1.972" height="2.761"/>
		<rect x="84.653" y="456.786" fill="#605E58" width="1.972" height="2.761"/>
		<rect x="88.728" y="456.786" fill="#605E58" width="1.972" height="2.761"/>
		<rect x="76.503" y="461.519" fill="#605E58" width="1.972" height="2.76"/>
		<rect x="80.578" y="461.519" fill="#605E58" width="1.972" height="2.76"/>
		<rect x="84.653" y="461.519" fill="#605E58" width="1.972" height="2.76"/>
		<rect x="88.728" y="461.519" fill="#605E58" width="1.972" height="2.76"/>
		<rect x="76.503" y="465.593" fill="#605E58" width="1.972" height="2.761"/>
		<rect x="80.578" y="465.593" fill="#605E58" width="1.972" height="2.761"/>
		<rect x="84.653" y="465.593" fill="#605E58" width="1.972" height="2.761"/>
		<rect x="88.728" y="465.593" fill="#605E58" width="1.972" height="2.761"/>
		<rect x="76.503" y="470.325" fill="#605E58" width="1.972" height="2.761"/>
		<rect x="80.578" y="470.325" fill="#605E58" width="1.972" height="2.761"/>
		<rect x="84.653" y="470.325" fill="#605E58" width="1.972" height="2.761"/>
		<rect x="88.728" y="470.325" fill="#605E58" width="1.972" height="2.761"/>
		<rect x="76.503" y="474.4" fill="#605E58" width="1.972" height="2.761"/>
		<rect x="80.578" y="474.4" fill="#605E58" width="1.972" height="2.761"/>
		<rect x="84.653" y="474.4" fill="#605E58" width="1.972" height="2.761"/>
		<rect x="88.728" y="474.4" fill="#605E58" width="1.972" height="2.761"/>
		<rect x="76.503" y="479.133" fill="#605E58" width="1.972" height="2.76"/>
		<rect x="80.578" y="479.133" fill="#605E58" width="1.972" height="2.76"/>
		<rect x="84.653" y="479.133" fill="#605E58" width="1.972" height="2.76"/>
		<rect x="88.728" y="479.133" fill="#605E58" width="1.972" height="2.76"/>
		<rect x="76.503" y="483.207" fill="#605E58" width="1.972" height="2.761"/>
		<rect x="80.578" y="483.207" fill="#605E58" width="1.972" height="2.761"/>
		<rect x="84.653" y="483.207" fill="#605E58" width="1.972" height="2.761"/>
		<rect x="88.728" y="483.207" fill="#605E58" width="1.972" height="2.761"/>
		<path fill="#605E58" d="M232.139,448.637h-20.243v4.731h20.243V448.637z M230.167,451.396h-16.299v-0.657h16.299V451.396z"/>
		<path fill="#605E58" d="M232.139,456.129h-20.243v4.732h20.243V456.129z M230.167,458.758h-16.299v-0.657h16.299V458.758z"/>
		<path fill="#605E58" d="M232.139,464.278h-20.243v4.732h20.243V464.278z M230.167,466.907h-16.299v-0.657h16.299V466.907z"/>
		<path fill="#605E58" d="M232.139,472.297h-20.243v4.732h20.243V472.297z M230.167,475.058h-16.299V474.4h16.299V475.058z"/>
		<path fill="#605E58" d="M232.139,480.447h-20.243v4.731h20.243V480.447z M230.167,483.207h-16.299v-0.657h16.299V483.207z"/>
		<rect x="339.139" y="423.004" fill="#605E58" width="1.972" height="60.86"/>
		<rect x="355.308" y="423.004" fill="#605E58" width="1.972" height="60.86"/>
		<rect x="371.607" y="423.004" fill="#605E58" width="1.972" height="60.86"/>
		<rect x="563.786" y="420.243" fill="#605E58" width="1.972" height="4.732"/>
		<rect x="567.86" y="420.243" fill="#605E58" width="1.972" height="4.732"/>
		<rect x="571.936" y="420.243" fill="#605E58" width="1.972" height="4.732"/>
		<rect x="576.011" y="420.243" fill="#605E58" width="1.972" height="4.732"/>
		<rect x="563.786" y="427.735" fill="#605E58" width="1.972" height="4.075"/>
		<rect x="567.86" y="427.735" fill="#605E58" width="1.972" height="4.075"/>
		<rect x="571.936" y="427.735" fill="#605E58" width="1.972" height="4.075"/>
		<rect x="576.011" y="427.735" fill="#605E58" width="1.972" height="4.075"/>
		<rect x="563.786" y="435.097" fill="#605E58" width="1.972" height="4.075"/>
		<rect x="567.86" y="435.097" fill="#605E58" width="1.972" height="4.075"/>
		<rect x="571.936" y="435.097" fill="#605E58" width="1.972" height="4.075"/>
		<rect x="576.011" y="435.097" fill="#605E58" width="1.972" height="4.075"/>
		<rect x="563.786" y="441.933" fill="#605E58" width="1.972" height="4.731"/>
		<rect x="567.86" y="441.933" fill="#605E58" width="1.972" height="4.731"/>
		<rect x="571.936" y="441.933" fill="#605E58" width="1.972" height="4.731"/>
		<rect x="576.011" y="441.933" fill="#605E58" width="1.972" height="4.731"/>
		<rect x="563.786" y="449.293" fill="#605E58" width="1.972" height="4.732"/>
		<rect x="567.86" y="449.293" fill="#605E58" width="1.972" height="4.732"/>
		<rect x="571.936" y="449.293" fill="#605E58" width="1.972" height="4.732"/>
		<rect x="576.011" y="449.293" fill="#605E58" width="1.972" height="4.732"/>
		<rect x="563.786" y="456.786" fill="#605E58" width="1.972" height="4.732"/>
		<rect x="567.86" y="456.786" fill="#605E58" width="1.972" height="4.732"/>
		<rect x="571.936" y="456.786" fill="#605E58" width="1.972" height="4.732"/>
		<rect x="576.011" y="456.786" fill="#605E58" width="1.972" height="4.732"/>
		<rect x="563.786" y="464.278" fill="#605E58" width="1.972" height="4.075"/>
		<rect x="567.86" y="464.278" fill="#605E58" width="1.972" height="4.075"/>
		<rect x="571.936" y="464.278" fill="#605E58" width="1.972" height="4.075"/>
		<rect x="576.011" y="464.278" fill="#605E58" width="1.972" height="4.075"/>
		<rect x="650.411" y="462.176" fill="#605E58" width="1.972" height="2.76"/>
		<rect x="655.143" y="462.176" fill="#605E58" width="1.972" height="2.76"/>
		<rect x="659.875" y="462.176" fill="#605E58" width="1.972" height="2.76"/>
		<rect x="664.607" y="462.176" fill="#605E58" width="1.972" height="2.76"/>
		<rect x="669.997" y="462.176" fill="#605E58" width="1.972" height="2.76"/>
		<rect x="674.729" y="462.176" fill="#605E58" width="1.972" height="2.76"/>
		<rect x="679.461" y="462.176" fill="#605E58" width="1.972" height="2.76"/>
		<rect x="650.411" y="468.223" fill="#605E58" width="1.972" height="2.76"/>
		<rect x="655.143" y="468.223" fill="#605E58" width="1.972" height="2.76"/>
		<rect x="659.875" y="468.223" fill="#605E58" width="1.972" height="2.76"/>
		<rect x="664.607" y="468.223" fill="#605E58" width="1.972" height="2.76"/>
		<rect x="669.997" y="468.223" fill="#605E58" width="1.972" height="2.76"/>
		<rect x="674.729" y="468.223" fill="#605E58" width="1.972" height="2.76"/>
		<rect x="679.461" y="468.223" fill="#605E58" width="1.972" height="2.76"/>
		<rect x="650.411" y="473.743" fill="#605E58" width="1.972" height="2.761"/>
		<rect x="655.143" y="473.743" fill="#605E58" width="1.972" height="2.761"/>
		<rect x="659.875" y="473.743" fill="#605E58" width="1.972" height="2.761"/>
		<rect x="664.607" y="473.743" fill="#605E58" width="1.972" height="2.761"/>
		<rect x="669.997" y="473.743" fill="#605E58" width="1.972" height="2.761"/>
		<rect x="674.729" y="473.743" fill="#605E58" width="1.972" height="2.761"/>
		<rect x="679.461" y="473.743" fill="#605E58" width="1.972" height="2.761"/>
		<rect x="650.411" y="479.79" fill="#605E58" width="1.972" height="2.76"/>
		<rect x="655.143" y="479.79" fill="#605E58" width="1.972" height="2.76"/>
		<rect x="659.875" y="479.79" fill="#605E58" width="1.972" height="2.76"/>
		<rect x="664.607" y="479.79" fill="#605E58" width="1.972" height="2.76"/>
		<rect x="669.997" y="479.79" fill="#605E58" width="1.972" height="2.76"/>
		<rect x="674.729" y="479.79" fill="#605E58" width="1.972" height="2.76"/>
		<rect x="679.461" y="479.79" fill="#605E58" width="1.972" height="2.76"/>
		<rect x="650.411" y="485.179" fill="#605E58" width="1.972" height="2.761"/>
		<rect x="655.143" y="485.179" fill="#605E58" width="1.972" height="2.761"/>
		<rect x="659.875" y="485.179" fill="#605E58" width="1.972" height="2.761"/>
		<rect x="664.607" y="485.179" fill="#605E58" width="1.972" height="2.761"/>
		<rect x="669.997" y="485.179" fill="#605E58" width="1.972" height="2.761"/>
		<rect x="674.729" y="485.179" fill="#605E58" width="1.972" height="2.761"/>
		<rect x="679.461" y="485.179" fill="#605E58" width="1.972" height="2.761"/>
		<rect x="468.354" y="464.936" fill="#605E58" width="19.586" height="1.972"/>
		<rect x="468.354" y="485.179" fill="#605E58" width="19.586" height="1.972"/>
		<rect x="468.354" y="481.104" fill="#605E58" width="19.586" height="1.972"/>
		<rect x="468.354" y="477.029" fill="#605E58" width="19.586" height="1.972"/>
		<rect x="468.354" y="472.954" fill="#605E58" width="19.586" height="1.972"/>
		<rect x="468.354" y="469.011" fill="#605E58" width="19.586" height="1.972"/>
		<rect x="408.807" y="454.025" fill="#605E58" width="5.39" height="1.972"/>
		<rect x="408.807" y="458.101" fill="#605E58" width="5.39" height="1.972"/>
		<rect x="408.807" y="462.833" fill="#605E58" width="5.39" height="1.972"/>
		<rect x="408.807" y="466.907" fill="#605E58" width="5.39" height="1.972"/>
		<rect x="408.807" y="470.982" fill="#605E58" width="5.39" height="1.972"/>
		<rect x="408.807" y="475.058" fill="#605E58" width="5.39" height="1.972"/>
		<rect x="408.807" y="479.79" fill="#605E58" width="5.39" height="1.972"/>
		<rect x="408.807" y="483.864" fill="#605E58" width="5.39" height="1.972"/>
		<rect x="416.957" y="454.025" fill="#605E58" width="5.39" height="1.972"/>
		<rect x="416.957" y="458.101" fill="#605E58" width="5.39" height="1.972"/>
		<rect x="416.957" y="462.833" fill="#605E58" width="5.39" height="1.972"/>
		<rect x="416.957" y="466.907" fill="#605E58" width="5.39" height="1.972"/>
		<rect x="416.957" y="470.982" fill="#605E58" width="5.39" height="1.972"/>
		<rect x="416.957" y="475.058" fill="#605E58" width="5.39" height="1.972"/>
		<rect x="416.957" y="479.79" fill="#605E58" width="5.39" height="1.972"/>
		<rect x="416.957" y="483.864" fill="#605E58" width="5.39" height="1.972"/>
		<rect x="517.778" y="453.368" fill="#605E58" width="3.418" height="1.972"/>
		<rect x="517.778" y="460.861" fill="#605E58" width="3.418" height="1.972"/>
		<rect x="517.778" y="467.564" fill="#605E58" width="3.418" height="1.973"/>
		<rect x="517.778" y="475.058" fill="#605E58" width="3.418" height="1.972"/>
		<rect x="525.929" y="453.368" fill="#605E58" width="3.417" height="1.972"/>
		<rect x="525.929" y="460.861" fill="#605E58" width="3.417" height="1.972"/>
		<rect x="525.929" y="467.564" fill="#605E58" width="3.417" height="1.973"/>
		<rect x="525.929" y="475.058" fill="#605E58" width="3.417" height="1.972"/>
		<rect x="535.393" y="453.368" fill="#605E58" width="3.418" height="1.972"/>
		<rect x="535.393" y="460.861" fill="#605E58" width="3.418" height="1.972"/>
		<rect x="535.393" y="467.564" fill="#605E58" width="3.418" height="1.973"/>
		<rect x="532.633" y="420.243" fill="#605E58" width="16.956" height="1.972"/>
		<path fill="#605E58" d="M560.368,478.476h25.764v-4.732h-25.764V478.476z M562.472,475.715h21.688v0.657h-21.688V475.715z"/>
		<path fill="#605E58" d="M560.368,484.521h25.764v-4.731h-25.764V484.521z M562.472,481.762h21.688v0.657h-21.688V481.762z"/>
		<path fill="#605E58" d="M560.368,490.568h25.764v-4.732h-25.764V490.568z M562.472,487.939h21.688v0.657h-21.688V487.939z"/>
		<path fill="#605E58" d="M700.493,443.247h-15.511v7.492h15.511V443.247z M698.521,448.637h-11.567v-3.418h11.567V448.637z"/>
		<path fill="#605E58" d="M714.032,481.104h5.39v-6.047h-5.39V481.104z M716.136,477.029h1.314v1.972h-1.314V477.029z"/>
		<path fill="#605E58" d="M724.812,481.104h5.389v-6.047h-5.389V481.104z M726.914,477.029h1.314v1.972h-1.314V477.029z"/>
		<path fill="#605E58" d="M714.032,488.597h5.39v-6.047h-5.39V488.597z M716.136,484.521h1.314v1.972h-1.314V484.521z"/>
		<path fill="#605E58" d="M724.812,488.597h5.389v-6.047h-5.389V488.597z M726.914,484.521h1.314v1.972h-1.314V484.521z"/>
		<rect x="320.079" y="417.614" fill="#605E58" width="1.972" height="4.732"/>
		<rect x="320.079" y="424.976" fill="#605E58" width="1.972" height="4.075"/>
		<rect x="320.079" y="432.468" fill="#605E58" width="1.972" height="4.075"/>
		<rect x="320.079" y="439.172" fill="#605E58" width="1.972" height="4.732"/>
		<rect x="320.079" y="446.664" fill="#605E58" width="1.972" height="4.732"/>
		<rect x="320.079" y="454.025" fill="#605E58" width="1.972" height="4.732"/>
		<rect x="320.079" y="461.519" fill="#605E58" width="1.972" height="4.074"/>
		<rect x="324.154" y="417.614" fill="#605E58" width="1.972" height="4.732"/>
		<rect x="324.154" y="424.976" fill="#605E58" width="1.972" height="4.075"/>
		<rect x="324.154" y="432.468" fill="#605E58" width="1.972" height="4.075"/>
		<rect x="324.154" y="439.172" fill="#605E58" width="1.972" height="4.732"/>
		<rect x="324.154" y="446.664" fill="#605E58" width="1.972" height="4.732"/>
		<rect x="324.154" y="454.025" fill="#605E58" width="1.972" height="4.732"/>
		<rect x="324.154" y="461.519" fill="#605E58" width="1.972" height="4.074"/>
	</g>
</g>
</svg>
