<?xml version="1.0" encoding="utf-8"?>
<!-- Generator: Adobe Illustrator 16.0.0, SVG Export Plug-In . SVG Version: 6.00 Build 0)  -->
<!DOCTYPE svg PUBLIC "-//W3C//DTD SVG 1.1//EN" "http://www.w3.org/Graphics/SVG/1.1/DTD/svg11.dtd">
<svg version="1.1" id="Layer_1" xmlns="http://www.w3.org/2000/svg" xmlns:xlink="http://www.w3.org/1999/xlink" x="0px" y="0px"
	 width="40px" height="40px" viewBox="0 0 40 40" enable-background="new 0 0 40 40" xml:space="preserve">
<line fill="none" stroke="#231F20" stroke-linecap="round" stroke-linejoin="round" stroke-miterlimit="10" x1="29.75" y1="8.75" x2="10.25" y2="8.75"/>
<polygon fill="none" stroke="#231F20" stroke-linecap="round" stroke-linejoin="round" stroke-miterlimit="10" points="20,20.002 
	10.25,8.75 14.75,2.75 25.25,2.75 29.75,8.75 "/>
<rect x="23.75" y="32.75" fill="none" stroke="#231F20" stroke-linejoin="round" stroke-miterlimit="10" width="9" height="4.5"/>
<path fill="none" stroke="#231F20" stroke-linecap="round" stroke-linejoin="round" stroke-miterlimit="10" d="M31.25,32v-1.547
	c0,0,4.779-4.732,6-5.953c0-2.062,0-12.094,0-12.094S33.5,11.047,33.5,21.5l-4.453,4.453l1.031-4.5
	c0.516-2.156-1.456-3.078-2.531-1.406c-0.99,1.539-2.297,5.941-2.297,5.941V32"/>
<rect x="7.25" y="32.75" fill="none" stroke="#231F20" stroke-linejoin="round" stroke-miterlimit="10" width="9" height="4.5"/>
<path fill="none" stroke="#231F20" stroke-linecap="round" stroke-linejoin="round" stroke-miterlimit="10" d="M8.75,32v-1.547
	c0,0-4.5-4.732-6-5.953c0-2.062,0-12.094,0-12.094S6.5,11.047,6.5,21.5l4.453,4.453l-1.031-4.5
	c-0.516-2.156,1.456-3.078,2.531-1.406c0.99,1.539,2.297,5.941,2.297,5.941V32"/>
<polyline fill="none" stroke="#231F20" stroke-linecap="round" stroke-linejoin="round" stroke-miterlimit="10" points="14.75,2.75 
	16.203,8.75 20,20.002 "/>
<polyline fill="none" stroke="#231F20" stroke-linecap="round" stroke-linejoin="round" stroke-miterlimit="10" points="25.25,2.75 
	23.75,8.75 20.062,20.002 "/>
</svg>
